<ttFont>
<head>
    <!-- Most of this table will be recalculated by the compiler -->
    <tableVersion value="1.0"/>
    <fontRevision value="1.0"/>
    <checkSumAdjustment value="0xf5b88885"/>
    <magicNumber value="0x5f0f3cf5"/>
    <flags value="00000000 00011001"/>
    <unitsPerEm value="1000"/>
    <created value="Thu Dec 23 11:28:57 2010"/>
    <modified value="Thu Dec 23 21:22:50 2010"/>
    <xMin value="-376"/>
    <yMin value="-285"/>
    <xMax value="1216"/>
    <yMax value="1026"/>
    <macStyle value="00000000 00000001"/>
    <lowestRecPPEM value="9"/>
    <fontDirectionHint value="2"/>
    <indexToLocFormat value="0"/>
    <glyphDataFormat value="0"/>
  </head>
    <TTGlyph name=".notdef" xMin="50" yMin="0" xMax="700" yMax="700">
      <contour>
        <pt x="50" y="700" on="1"/>
        <pt x="700" y="700" on="1"/>
        <pt x="700" y="0" on="1"/>
        <pt x="50" y="0" on="1"/>
      </contour>
      <contour>
        <pt x="570" y="650" on="1"/>
        <pt x="375" y="433" on="1"/>
        <pt x="180" y="650" on="1"/>
        <pt x="130" y="600" on="1"/>
        <pt x="327" y="380" on="1"/>
        <pt x="130" y="160" on="1"/>
        <pt x="180" y="110" on="1"/>
        <pt x="375" y="327" on="1"/>
        <pt x="570" y="110" on="1"/>
        <pt x="620" y="160" on="1"/>
        <pt x="422" y="380" on="1"/>
        <pt x="620" y="600" on="1"/>
      </contour>
      <contour>
        <pt x="162" y="68" on="1"/>
        <pt x="127" y="68" on="1"/>
        <pt x="127" y="61" on="1"/>
        <pt x="140" y="61" on="1"/>
        <pt x="140" y="26" on="1"/>
        <pt x="149" y="26" on="1"/>
        <pt x="149" y="61" on="1"/>
        <pt x="162" y="61" on="1"/>
      </contour>
      <contour>
        <pt x="271" y="58" on="1"/>
        <pt x="269" y="58" on="1"/>
        <pt x="268" y="58" on="0"/>
        <pt x="267" y="59" on="1"/>
        <pt x="263" y="59" on="0"/>
        <pt x="258" y="54" on="1"/>
        <pt x="258" y="58" on="1"/>
        <pt x="251" y="58" on="1"/>
        <pt x="251" y="26" on="1"/>
        <pt x="259" y="26" on="1"/>
        <pt x="259" y="46" on="1"/>
        <pt x="262" y="51" on="0"/>
        <pt x="266" y="51" on="1"/>
        <pt x="268" y="51" on="0"/>
        <pt x="270" y="50" on="1"/>
      </contour>
      <contour>
        <pt x="276" y="65" on="1"/>
        <pt x="276" y="60" on="0"/>
        <pt x="280" y="60" on="1"/>
        <pt x="285" y="60" on="0"/>
        <pt x="285" y="64" on="1"/>
        <pt x="285" y="69" on="0"/>
        <pt x="280" y="69" on="1"/>
        <pt x="276" y="69" on="0"/>
      </contour>
      <contour>
        <pt x="276" y="26" on="1"/>
        <pt x="285" y="26" on="1"/>
        <pt x="285" y="58" on="1"/>
        <pt x="276" y="58" on="1"/>
      </contour>
      <contour>
        <pt x="291" y="51" on="1"/>
        <pt x="296" y="51" on="1"/>
        <pt x="296" y="26" on="1"/>
        <pt x="304" y="26" on="1"/>
        <pt x="304" y="51" on="1"/>
        <pt x="312" y="51" on="1"/>
        <pt x="312" y="58" on="1"/>
        <pt x="304" y="58" on="1"/>
        <pt x="304" y="60" on="0"/>
        <pt x="305" y="61" on="1"/>
        <pt x="306" y="62" on="0"/>
        <pt x="308" y="62" on="1"/>
        <pt x="311" y="62" on="1"/>
        <pt x="314" y="62" on="1"/>
        <pt x="315" y="68" on="1"/>
        <pt x="315" y="69" on="0"/>
        <pt x="311" y="69" on="1"/>
        <pt x="306" y="69" on="1"/>
        <pt x="302" y="69" on="1"/>
        <pt x="301" y="69" on="0"/>
        <pt x="297" y="66" on="0"/>
        <pt x="297" y="65" on="1"/>
        <pt x="296" y="63" on="0"/>
        <pt x="296" y="60" on="1"/>
        <pt x="296" y="58" on="1"/>
        <pt x="291" y="58" on="1"/>
      </contour>
      <contour>
        <pt x="331" y="45" on="1"/>
        <pt x="331" y="20" on="0"/>
        <pt x="354" y="20" on="1"/>
        <pt x="365" y="20" on="0"/>
        <pt x="378" y="32" on="0"/>
        <pt x="378" y="45" on="1"/>
        <pt x="378" y="68" on="0"/>
        <pt x="354" y="68" on="1"/>
        <pt x="344" y="68" on="0"/>
        <pt x="331" y="56" on="0"/>
      </contour>
      <contour>
        <pt x="338" y="45" on="1"/>
        <pt x="338" y="62" on="0"/>
        <pt x="354" y="62" on="1"/>
        <pt x="371" y="62" on="0"/>
        <pt x="371" y="45" on="1"/>
        <pt x="371" y="27" on="0"/>
        <pt x="354" y="27" on="1"/>
        <pt x="338" y="27" on="0"/>
      </contour>
      <contour>
        <pt x="361" y="40" on="1"/>
        <pt x="359" y="39" on="0"/>
        <pt x="357" y="39" on="1"/>
        <pt x="352" y="39" on="0"/>
        <pt x="352" y="45" on="1"/>
        <pt x="352" y="49" on="0"/>
        <pt x="357" y="49" on="1"/>
        <pt x="360" y="49" on="1"/>
        <pt x="363" y="54" on="1"/>
        <pt x="359" y="56" on="0"/>
        <pt x="354" y="56" on="1"/>
        <pt x="344" y="56" on="0"/>
        <pt x="344" y="45" on="1"/>
        <pt x="344" y="32" on="0"/>
        <pt x="354" y="32" on="1"/>
        <pt x="359" y="32" on="0"/>
        <pt x="363" y="34" on="1"/>
      </contour>
      <contour>
        <pt x="402" y="27" on="1"/>
        <pt x="411" y="27" on="1"/>
        <pt x="411" y="41" on="1"/>
        <pt x="416" y="41" on="1"/>
        <pt x="423" y="41" on="0"/>
        <pt x="434" y="47" on="0"/>
        <pt x="434" y="55" on="1"/>
        <pt x="434" y="65" on="0"/>
        <pt x="422" y="69" on="0"/>
        <pt x="415" y="69" on="1"/>
        <pt x="402" y="69" on="1"/>
      </contour>
      <contour>
        <pt x="416" y="62" on="1"/>
        <pt x="425" y="62" on="0"/>
        <pt x="425" y="56" on="1"/>
        <pt x="425" y="50" on="0"/>
        <pt x="420" y="49" on="0"/>
        <pt x="415" y="49" on="1"/>
        <pt x="411" y="49" on="1"/>
        <pt x="411" y="62" on="1"/>
      </contour>
      <contour>
        <pt x="440" y="51" on="1"/>
        <pt x="443" y="52" on="0"/>
        <pt x="448" y="53" on="0"/>
        <pt x="451" y="53" on="1"/>
        <pt x="456" y="53" on="0"/>
        <pt x="456" y="48" on="1"/>
        <pt x="456" y="46" on="1"/>
        <pt x="455" y="46" on="0"/>
        <pt x="453" y="47" on="0"/>
        <pt x="451" y="47" on="1"/>
        <pt x="436" y="47" on="0"/>
        <pt x="436" y="35" on="1"/>
        <pt x="436" y="26" on="0"/>
        <pt x="446" y="26" on="1"/>
        <pt x="453" y="26" on="0"/>
        <pt x="456" y="32" on="1"/>
        <pt x="459" y="27" on="1"/>
        <pt x="466" y="27" on="1"/>
        <pt x="465" y="28" on="0"/>
        <pt x="465" y="35" on="1"/>
        <pt x="465" y="48" on="1"/>
        <pt x="465" y="60" on="0"/>
        <pt x="453" y="60" on="1"/>
        <pt x="448" y="60" on="0"/>
        <pt x="440" y="57" on="0"/>
        <pt x="438" y="56" on="1"/>
      </contour>
      <contour>
        <pt x="450" y="33" on="1"/>
        <pt x="445" y="33" on="0"/>
        <pt x="445" y="38" on="1"/>
        <pt x="445" y="42" on="0"/>
        <pt x="451" y="42" on="1"/>
        <pt x="453" y="42" on="0"/>
        <pt x="455" y="41" on="0"/>
        <pt x="456" y="41" on="1"/>
        <pt x="456" y="38" on="1"/>
        <pt x="455" y="33" on="0"/>
      </contour>
      <contour>
        <pt x="494" y="59" on="1"/>
        <pt x="492" y="60" on="0"/>
        <pt x="489" y="60" on="1"/>
        <pt x="484" y="60" on="0"/>
        <pt x="482" y="54" on="1"/>
        <pt x="481" y="54" on="1"/>
        <pt x="480" y="59" on="1"/>
        <pt x="473" y="59" on="1"/>
        <pt x="473" y="27" on="1"/>
        <pt x="482" y="27" on="1"/>
        <pt x="482" y="47" on="1"/>
        <pt x="482" y="52" on="0"/>
        <pt x="489" y="52" on="1"/>
        <pt x="490" y="52" on="0"/>
        <pt x="490" y="51" on="0"/>
        <pt x="491" y="51" on="1"/>
        <pt x="492" y="51" on="1"/>
      </contour>
      <contour>
        <pt x="499" y="51" on="1"/>
        <pt x="509" y="53" on="0"/>
        <pt x="510" y="53" on="1"/>
        <pt x="516" y="53" on="0"/>
        <pt x="516" y="48" on="1"/>
        <pt x="516" y="46" on="1"/>
        <pt x="514" y="46" on="0"/>
        <pt x="512" y="47" on="0"/>
        <pt x="510" y="47" on="1"/>
        <pt x="495" y="47" on="0"/>
        <pt x="495" y="35" on="1"/>
        <pt x="495" y="26" on="0"/>
        <pt x="505" y="26" on="1"/>
        <pt x="513" y="26" on="0"/>
        <pt x="516" y="32" on="1"/>
        <pt x="517" y="32" on="1"/>
        <pt x="518" y="27" on="1"/>
        <pt x="525" y="27" on="1"/>
        <pt x="524" y="28" on="0"/>
        <pt x="524" y="35" on="1"/>
        <pt x="524" y="48" on="1"/>
        <pt x="524" y="60" on="0"/>
        <pt x="512" y="60" on="1"/>
        <pt x="507" y="60" on="0"/>
        <pt x="501" y="57" on="0"/>
        <pt x="498" y="56" on="1"/>
      </contour>
      <contour>
        <pt x="509" y="33" on="1"/>
        <pt x="504" y="33" on="0"/>
        <pt x="504" y="38" on="1"/>
        <pt x="504" y="42" on="0"/>
        <pt x="510" y="42" on="1"/>
        <pt x="512" y="42" on="0"/>
        <pt x="514" y="41" on="0"/>
        <pt x="516" y="41" on="1"/>
        <pt x="516" y="38" on="1"/>
        <pt x="513" y="33" on="0"/>
      </contour>
      <contour>
        <pt x="557" y="69" on="1"/>
        <pt x="521" y="69" on="1"/>
        <pt x="521" y="62" on="1"/>
        <pt x="535" y="62" on="1"/>
        <pt x="535" y="27" on="1"/>
        <pt x="543" y="27" on="1"/>
        <pt x="543" y="62" on="1"/>
        <pt x="557" y="62" on="1"/>
      </contour>
      <contour>
        <pt x="567" y="59" on="1"/>
        <pt x="557" y="59" on="1"/>
        <pt x="571" y="27" on="1"/>
        <pt x="569" y="22" on="0"/>
        <pt x="566" y="22" on="1"/>
        <pt x="564" y="23" on="1"/>
        <pt x="562" y="16" on="1"/>
        <pt x="563" y="15" on="0"/>
        <pt x="568" y="15" on="1"/>
        <pt x="575" y="15" on="0"/>
        <pt x="579" y="30" on="1"/>
        <pt x="591" y="59" on="1"/>
        <pt x="582" y="59" on="1"/>
        <pt x="576" y="41" on="1"/>
        <pt x="576" y="35" on="1"/>
        <pt x="575" y="35" on="1"/>
        <pt x="574" y="41" on="1"/>
      </contour>
      <contour>
        <pt x="595" y="15" on="1"/>
        <pt x="604" y="15" on="1"/>
        <pt x="604" y="28" on="1"/>
        <pt x="606" y="26" on="0"/>
        <pt x="610" y="26" on="1"/>
        <pt x="626" y="26" on="0"/>
        <pt x="626" y="44" on="1"/>
        <pt x="626" y="60" on="0"/>
        <pt x="613" y="60" on="1"/>
        <pt x="607" y="60" on="0"/>
        <pt x="603" y="55" on="1"/>
        <pt x="601" y="55" on="1"/>
        <pt x="600" y="59" on="1"/>
        <pt x="595" y="59" on="1"/>
      </contour>
      <contour>
        <pt x="611" y="53" on="1"/>
        <pt x="617" y="53" on="0"/>
        <pt x="617" y="44" on="1"/>
        <pt x="617" y="33" on="0"/>
        <pt x="608" y="33" on="1"/>
        <pt x="606" y="33" on="0"/>
        <pt x="604" y="35" on="1"/>
        <pt x="604" y="47" on="1"/>
        <pt x="604" y="53" on="0"/>
      </contour>
      <contour>
        <pt x="656" y="35" on="1"/>
        <pt x="654" y="33" on="0"/>
        <pt x="648" y="33" on="1"/>
        <pt x="640" y="33" on="0"/>
        <pt x="640" y="40" on="1"/>
        <pt x="661" y="40" on="1"/>
        <pt x="661" y="47" on="1"/>
        <pt x="661" y="60" on="0"/>
        <pt x="647" y="60" on="1"/>
        <pt x="631" y="60" on="0"/>
        <pt x="631" y="42" on="1"/>
        <pt x="631" y="26" on="0"/>
        <pt x="647" y="26" on="1"/>
        <pt x="655" y="26" on="0"/>
        <pt x="659" y="30" on="1"/>
      </contour>
      <contour>
        <pt x="647" y="53" on="1"/>
        <pt x="654" y="53" on="0"/>
        <pt x="653" y="46" on="1"/>
        <pt x="640" y="46" on="1"/>
        <pt x="640" y="53" on="0"/>
      </contour>
      <contour>
        <pt x="92" y="27" on="1"/>
        <pt x="101" y="27" on="1"/>
        <pt x="101" y="41" on="1"/>
        <pt x="106" y="41" on="1"/>
        <pt x="113" y="41" on="0"/>
        <pt x="124" y="47" on="0"/>
        <pt x="124" y="55" on="1"/>
        <pt x="124" y="65" on="0"/>
        <pt x="112" y="69" on="0"/>
        <pt x="105" y="69" on="1"/>
        <pt x="92" y="69" on="1"/>
      </contour>
      <contour>
        <pt x="106" y="62" on="1"/>
        <pt x="115" y="62" on="0"/>
        <pt x="115" y="56" on="1"/>
        <pt x="115" y="50" on="0"/>
        <pt x="110" y="49" on="0"/>
        <pt x="105" y="49" on="1"/>
        <pt x="101" y="49" on="1"/>
        <pt x="101" y="62" on="1"/>
      </contour>
      <contour>
        <pt x="200" y="38" on="1"/>
        <pt x="200" y="33" on="0"/>
        <pt x="192" y="33" on="1"/>
        <pt x="189" y="33" on="0"/>
        <pt x="185" y="34" on="0"/>
        <pt x="181" y="36" on="1"/>
        <pt x="178" y="27" on="1"/>
        <pt x="182" y="26" on="0"/>
        <pt x="188" y="25" on="0"/>
        <pt x="193" y="25" on="1"/>
        <pt x="209" y="25" on="0"/>
        <pt x="209" y="39" on="1"/>
        <pt x="209" y="44" on="0"/>
        <pt x="202" y="49" on="0"/>
        <pt x="195" y="52" on="0"/>
        <pt x="188" y="55" on="0"/>
        <pt x="188" y="58" on="1"/>
        <pt x="188" y="61" on="0"/>
        <pt x="195" y="61" on="1"/>
        <pt x="198" y="61" on="0"/>
        <pt x="203" y="60" on="0"/>
        <pt x="206" y="59" on="1"/>
        <pt x="208" y="67" on="1"/>
        <pt x="204" y="68" on="0"/>
        <pt x="198" y="69" on="0"/>
        <pt x="195" y="69" on="1"/>
        <pt x="179" y="69" on="0"/>
        <pt x="179" y="56" on="1"/>
        <pt x="179" y="51" on="0"/>
        <pt x="186" y="46" on="0"/>
        <pt x="193" y="43" on="0"/>
        <pt x="200" y="40" on="0"/>
      </contour>
      <contour>
        <pt x="239" y="34" on="1"/>
        <pt x="237" y="32" on="0"/>
        <pt x="231" y="32" on="1"/>
        <pt x="223" y="32" on="0"/>
        <pt x="223" y="39" on="1"/>
        <pt x="244" y="39" on="1"/>
        <pt x="244" y="46" on="1"/>
        <pt x="244" y="59" on="0"/>
        <pt x="230" y="59" on="1"/>
        <pt x="214" y="59" on="0"/>
        <pt x="214" y="41" on="1"/>
        <pt x="214" y="25" on="0"/>
        <pt x="230" y="25" on="1"/>
        <pt x="238" y="25" on="0"/>
        <pt x="242" y="29" on="1"/>
      </contour>
      <contour>
        <pt x="230" y="52" on="1"/>
        <pt x="237" y="52" on="0"/>
        <pt x="236" y="45" on="1"/>
        <pt x="223" y="45" on="1"/>
        <pt x="223" y="52" on="0"/>
      </contour>
    </TTGlyph>
    <TTGlyph name="A" xMin="0" yMin="0" xMax="729" yMax="712">
      <contour>
        <pt x="247" y="0" on="1"/>
        <pt x="0" y="0" on="1"/>
        <pt x="0" y="38" on="1"/>
        <pt x="16" y="48" on="0"/>
        <pt x="53" y="63" on="0"/>
        <pt x="71" y="67" on="1"/>
        <pt x="329" y="712" on="1"/>
        <pt x="403" y="712" on="1"/>
        <pt x="654" y="67" on="1"/>
        <pt x="674" y="63" on="0"/>
        <pt x="714" y="48" on="0"/>
        <pt x="729" y="38" on="1"/>
        <pt x="729" y="0" on="1"/>
        <pt x="416" y="0" on="1"/>
        <pt x="416" y="38" on="1"/>
        <pt x="435" y="47" on="0"/>
        <pt x="479" y="63" on="0"/>
        <pt x="499" y="67" on="1"/>
        <pt x="441" y="226" on="1"/>
        <pt x="219" y="226" on="1"/>
        <pt x="160" y="67" on="1"/>
        <pt x="206" y="61" on="0"/>
        <pt x="247" y="38" on="1"/>
      </contour>
      <contour>
        <pt x="243" y="291" on="1"/>
        <pt x="420" y="291" on="1"/>
        <pt x="355" y="482" on="1"/>
        <pt x="336" y="568" on="1"/>
        <pt x="334" y="568" on="1"/>
        <pt x="312" y="480" on="1"/>
      </contour>
    </TTGlyph>
    <TTGlyph name="AE" xMin="5" yMin="0" xMax="916" yMax="700">
      <contour>
        <pt x="901" y="700" on="1"/>
        <pt x="899" y="655" on="0"/>
        <pt x="889" y="559" on="0"/>
        <pt x="881" y="517" on="1"/>
        <pt x="839" y="517" on="1"/>
        <pt x="793" y="635" on="1"/>
        <pt x="606" y="635" on="1"/>
        <pt x="606" y="390" on="1"/>
        <pt x="729" y="390" on="1"/>
        <pt x="773" y="467" on="1"/>
        <pt x="804" y="467" on="1"/>
        <pt x="809" y="418" on="0"/>
        <pt x="809" y="298" on="0"/>
        <pt x="804" y="246" on="1"/>
        <pt x="773" y="246" on="1"/>
        <pt x="729" y="325" on="1"/>
        <pt x="606" y="325" on="1"/>
        <pt x="606" y="65" on="1"/>
        <pt x="801" y="65" on="1"/>
        <pt x="854" y="192" on="1"/>
        <pt x="896" y="192" on="1"/>
        <pt x="900" y="173" on="0"/>
        <pt x="907" y="125" on="0"/>
        <pt x="913" y="74" on="0"/>
        <pt x="916" y="22" on="0"/>
        <pt x="916" y="0" on="1"/>
        <pt x="379" y="0" on="1"/>
        <pt x="379" y="38" on="1"/>
        <pt x="395" y="46" on="0"/>
        <pt x="435" y="62" on="0"/>
        <pt x="456" y="67" on="1"/>
        <pt x="458" y="244" on="1"/>
        <pt x="273" y="244" on="1"/>
        <pt x="170" y="67" on="1"/>
        <pt x="211" y="59" on="0"/>
        <pt x="247" y="38" on="1"/>
        <pt x="247" y="0" on="1"/>
        <pt x="5" y="0" on="1"/>
        <pt x="5" y="38" on="1"/>
        <pt x="21" y="48" on="0"/>
        <pt x="57" y="63" on="0"/>
        <pt x="75" y="67" on="1"/>
        <pt x="423" y="638" on="1"/>
        <pt x="408" y="643" on="0"/>
        <pt x="378" y="654" on="0"/>
        <pt x="365" y="662" on="1"/>
        <pt x="365" y="700" on="1"/>
      </contour>
      <contour>
        <pt x="310" y="309" on="1"/>
        <pt x="458" y="309" on="1"/>
        <pt x="461" y="594" on="1"/>
        <pt x="459" y="594" on="1"/>
        <pt x="423" y="504" on="1"/>
      </contour>
    </TTGlyph>
    <TTGlyph name="Aacute" xMin="0" yMin="0" xMax="729" yMax="899">
      <component glyphName="A" x="0" y="0" flags="0x204"/>
      <component glyphName="uniF6C9" x="250" y="0" flags="0x4"/>
    </TTGlyph>
    <TTGlyph name="Acircumflex" xMin="0" yMin="0" xMax="729" yMax="893">
      <component glyphName="A" x="0" y="0" flags="0x204"/>
      <component glyphName="uniF408" x="152" y="0" flags="0x4"/>
    </TTGlyph>
    <TTGlyph name="Adieresis" xMin="0" yMin="0" xMax="729" yMax="857">
      <component glyphName="A" x="0" y="0" flags="0x204"/>
      <component glyphName="uniF6CB" x="103" y="0" flags="0x4"/>
    </TTGlyph>
    <TTGlyph name="Agrave" xMin="0" yMin="0" xMax="729" yMax="901">
      <component glyphName="A" x="0" y="0" flags="0x204"/>
      <component glyphName="uniF6CE" x="86" y="0" flags="0x4"/>
    </TTGlyph>
    <TTGlyph name="Aring" xMin="0" yMin="0" xMax="729" yMax="878">
      <contour>
        <pt x="243" y="291" on="1"/>
        <pt x="420" y="291" on="1"/>
        <pt x="355" y="482" on="1"/>
        <pt x="336" y="568" on="1"/>
        <pt x="334" y="568" on="1"/>
        <pt x="312" y="480" on="1"/>
      </contour>
      <contour>
        <pt x="321" y="788" on="1"/>
        <pt x="321" y="771" on="0"/>
        <pt x="351" y="754" on="0"/>
        <pt x="366" y="754" on="1"/>
        <pt x="389" y="754" on="0"/>
        <pt x="415" y="771" on="0"/>
        <pt x="415" y="787" on="1"/>
        <pt x="415" y="810" on="0"/>
        <pt x="388" y="828" on="0"/>
        <pt x="369" y="828" on="1"/>
        <pt x="348" y="828" on="0"/>
        <pt x="321" y="810" on="0"/>
      </contour>
      <contour>
        <pt x="238" y="788" on="1"/>
        <pt x="238" y="829" on="0"/>
        <pt x="310" y="878" on="0"/>
        <pt x="371" y="878" on="1"/>
        <pt x="397" y="878" on="0"/>
        <pt x="443" y="867" on="0"/>
        <pt x="478" y="845" on="0"/>
        <pt x="498" y="813" on="0"/>
        <pt x="498" y="791" on="1"/>
        <pt x="498" y="752" on="0"/>
        <pt x="462" y="728" on="1"/>
        <pt x="438" y="712" on="0"/>
        <pt x="405" y="706" on="1"/>
        <pt x="654" y="67" on="1"/>
        <pt x="674" y="63" on="0"/>
        <pt x="714" y="48" on="0"/>
        <pt x="729" y="38" on="1"/>
        <pt x="729" y="0" on="1"/>
        <pt x="416" y="0" on="1"/>
        <pt x="416" y="38" on="1"/>
        <pt x="435" y="47" on="0"/>
        <pt x="479" y="63" on="0"/>
        <pt x="499" y="67" on="1"/>
        <pt x="441" y="226" on="1"/>
        <pt x="219" y="226" on="1"/>
        <pt x="160" y="67" on="1"/>
        <pt x="206" y="61" on="0"/>
        <pt x="247" y="38" on="1"/>
        <pt x="247" y="0" on="1"/>
        <pt x="0" y="0" on="1"/>
        <pt x="0" y="38" on="1"/>
        <pt x="16" y="48" on="0"/>
        <pt x="53" y="63" on="0"/>
        <pt x="71" y="67" on="1"/>
        <pt x="327" y="707" on="1"/>
        <pt x="293" y="712" on="0"/>
        <pt x="272" y="727" on="1"/>
        <pt x="238" y="750" on="0"/>
      </contour>
    </TTGlyph>
    <TTGlyph name="Atilde" xMin="0" yMin="0" xMax="729" yMax="876">
      <component glyphName="A" x="0" y="0" flags="0x204"/>
      <component glyphName="uniF40D" x="135" y="0" flags="0x4"/>
    </TTGlyph>
    <TTGlyph name="B" xMin="20" yMin="-6" xMax="612" yMax="706">
      <contour>
        <pt x="20" y="0" on="1"/>
        <pt x="20" y="38" on="1"/>
        <pt x="39" y="49" on="0"/>
        <pt x="82" y="65" on="0"/>
        <pt x="102" y="67" on="1"/>
        <pt x="102" y="633" on="1"/>
        <pt x="82" y="637" on="0"/>
        <pt x="38" y="652" on="0"/>
        <pt x="20" y="662" on="1"/>
        <pt x="20" y="700" on="1"/>
        <pt x="181" y="700" on="1"/>
        <pt x="219" y="700" on="0"/>
        <pt x="287" y="706" on="0"/>
        <pt x="331" y="706" on="1"/>
        <pt x="379" y="706" on="0"/>
        <pt x="469" y="692" on="0"/>
        <pt x="539" y="656" on="0"/>
        <pt x="581" y="591" on="0"/>
        <pt x="581" y="540" on="1"/>
        <pt x="581" y="508" on="0"/>
        <pt x="558" y="453" on="0"/>
        <pt x="517" y="411" on="0"/>
        <pt x="462" y="383" on="0"/>
        <pt x="430" y="377" on="1"/>
        <pt x="430" y="373" on="1"/>
        <pt x="462" y="369" on="0"/>
        <pt x="527" y="347" on="0"/>
        <pt x="579" y="305" on="0"/>
        <pt x="612" y="242" on="0"/>
        <pt x="612" y="199" on="1"/>
        <pt x="612" y="145" on="0"/>
        <pt x="564" y="67" on="0"/>
        <pt x="483" y="17" on="0"/>
        <pt x="379" y="-6" on="0"/>
        <pt x="323" y="-6" on="1"/>
        <pt x="302" y="-6" on="0"/>
        <pt x="252" y="-4" on="0"/>
        <pt x="202" y="-2" on="0"/>
        <pt x="155" y="0" on="0"/>
        <pt x="139" y="0" on="1"/>
      </contour>
      <contour>
        <pt x="322" y="59" on="1"/>
        <pt x="385" y="59" on="0"/>
        <pt x="457" y="134" on="0"/>
        <pt x="457" y="196" on="1"/>
        <pt x="457" y="234" on="0"/>
        <pt x="433" y="283" on="0"/>
        <pt x="391" y="312" on="0"/>
        <pt x="333" y="323" on="0"/>
        <pt x="299" y="323" on="1"/>
        <pt x="246" y="323" on="1"/>
        <pt x="246" y="66" on="1"/>
        <pt x="260" y="63" on="0"/>
        <pt x="291" y="59" on="0"/>
      </contour>
      <contour>
        <pt x="278" y="388" on="1"/>
        <pt x="295" y="388" on="0"/>
        <pt x="329" y="391" on="0"/>
        <pt x="344" y="393" on="1"/>
        <pt x="383" y="409" on="0"/>
        <pt x="431" y="476" on="0"/>
        <pt x="431" y="519" on="1"/>
        <pt x="431" y="582" on="0"/>
        <pt x="365" y="641" on="0"/>
        <pt x="313" y="641" on="1"/>
        <pt x="291" y="641" on="0"/>
        <pt x="259" y="639" on="0"/>
        <pt x="246" y="637" on="1"/>
        <pt x="246" y="388" on="1"/>
      </contour>
    </TTGlyph>
    <TTGlyph name="C" xMin="39" yMin="-12" xMax="599" yMax="712">
      <contour>
        <pt x="540" y="210" on="1"/>
        <pt x="581" y="210" on="1"/>
        <pt x="585" y="194" on="0"/>
        <pt x="592" y="149" on="0"/>
        <pt x="597" y="98" on="0"/>
        <pt x="599" y="48" on="0"/>
        <pt x="599" y="28" on="1"/>
        <pt x="564" y="6" on="0"/>
        <pt x="459" y="-12" on="0"/>
        <pt x="404" y="-12" on="1"/>
        <pt x="321" y="-12" on="0"/>
        <pt x="186" y="29" on="0"/>
        <pt x="91" y="118" on="0"/>
        <pt x="39" y="255" on="0"/>
        <pt x="39" y="351" on="1"/>
        <pt x="39" y="446" on="0"/>
        <pt x="96" y="583" on="0"/>
        <pt x="192" y="671" on="0"/>
        <pt x="319" y="712" on="0"/>
        <pt x="389" y="712" on="1"/>
        <pt x="455" y="712" on="0"/>
        <pt x="562" y="693" on="0"/>
        <pt x="596" y="677" on="1"/>
        <pt x="596" y="661" on="0"/>
        <pt x="593" y="611" on="0"/>
        <pt x="586" y="556" on="0"/>
        <pt x="577" y="503" on="0"/>
        <pt x="573" y="485" on="1"/>
        <pt x="531" y="485" on="1"/>
        <pt x="476" y="636" on="1"/>
        <pt x="467" y="641" on="0"/>
        <pt x="427" y="647" on="0"/>
        <pt x="406" y="647" on="1"/>
        <pt x="365" y="647" on="0"/>
        <pt x="293" y="614" on="0"/>
        <pt x="237" y="542" on="0"/>
        <pt x="205" y="429" on="0"/>
        <pt x="205" y="350" on="1"/>
        <pt x="205" y="207" on="0"/>
        <pt x="319" y="53" on="0"/>
        <pt x="417" y="53" on="1"/>
        <pt x="445" y="53" on="0"/>
        <pt x="484" y="62" on="0"/>
        <pt x="491" y="70" on="1"/>
      </contour>
    </TTGlyph>
    <TTGlyph name="Ccedilla" xMin="39" yMin="-285" xMax="599" yMax="712">
      <contour>
        <pt x="540" y="210" on="1"/>
        <pt x="581" y="210" on="1"/>
        <pt x="585" y="194" on="0"/>
        <pt x="592" y="149" on="0"/>
        <pt x="597" y="98" on="0"/>
        <pt x="599" y="48" on="0"/>
        <pt x="599" y="28" on="1"/>
        <pt x="581" y="16" on="0"/>
        <pt x="534" y="1" on="0"/>
        <pt x="482" y="-8" on="0"/>
        <pt x="427" y="-12" on="0"/>
        <pt x="400" y="-12" on="1"/>
        <pt x="376" y="-70" on="1"/>
        <pt x="436" y="-72" on="0"/>
        <pt x="511" y="-115" on="0"/>
        <pt x="511" y="-159" on="1"/>
        <pt x="511" y="-192" on="0"/>
        <pt x="466" y="-240" on="0"/>
        <pt x="401" y="-271" on="0"/>
        <pt x="328" y="-285" on="0"/>
        <pt x="299" y="-285" on="1"/>
        <pt x="299" y="-239" on="1"/>
        <pt x="334" y="-234" on="0"/>
        <pt x="379" y="-204" on="0"/>
        <pt x="378" y="-176" on="1"/>
        <pt x="377" y="-153" on="0"/>
        <pt x="344" y="-127" on="0"/>
        <pt x="302" y="-125" on="1"/>
        <pt x="338" y="-8" on="1"/>
        <pt x="269" y="-1" on="0"/>
        <pt x="159" y="48" on="0"/>
        <pt x="81" y="136" on="0"/>
        <pt x="39" y="265" on="0"/>
        <pt x="39" y="351" on="1"/>
        <pt x="39" y="446" on="0"/>
        <pt x="96" y="583" on="0"/>
        <pt x="192" y="671" on="0"/>
        <pt x="319" y="712" on="0"/>
        <pt x="389" y="712" on="1"/>
        <pt x="455" y="712" on="0"/>
        <pt x="562" y="693" on="0"/>
        <pt x="596" y="677" on="1"/>
        <pt x="596" y="661" on="0"/>
        <pt x="593" y="611" on="0"/>
        <pt x="586" y="556" on="0"/>
        <pt x="577" y="503" on="0"/>
        <pt x="573" y="485" on="1"/>
        <pt x="531" y="485" on="1"/>
        <pt x="476" y="636" on="1"/>
        <pt x="467" y="641" on="0"/>
        <pt x="427" y="647" on="0"/>
        <pt x="406" y="647" on="1"/>
        <pt x="365" y="647" on="0"/>
        <pt x="293" y="614" on="0"/>
        <pt x="237" y="542" on="0"/>
        <pt x="205" y="429" on="0"/>
        <pt x="205" y="350" on="1"/>
        <pt x="205" y="207" on="0"/>
        <pt x="319" y="53" on="0"/>
        <pt x="417" y="53" on="1"/>
        <pt x="445" y="53" on="0"/>
        <pt x="484" y="62" on="0"/>
        <pt x="491" y="70" on="1"/>
      </contour>
    </TTGlyph>
    <TTGlyph name="D" xMin="20" yMin="-9" xMax="696" yMax="708">
      <contour>
        <pt x="20" y="0" on="1"/>
        <pt x="20" y="38" on="1"/>
        <pt x="37" y="48" on="0"/>
        <pt x="79" y="63" on="0"/>
        <pt x="102" y="67" on="1"/>
        <pt x="102" y="633" on="1"/>
        <pt x="79" y="638" on="0"/>
        <pt x="36" y="653" on="0"/>
        <pt x="20" y="662" on="1"/>
        <pt x="20" y="700" on="1"/>
        <pt x="136" y="700" on="1"/>
        <pt x="153" y="700" on="0"/>
        <pt x="203" y="702" on="0"/>
        <pt x="257" y="705" on="0"/>
        <pt x="308" y="708" on="0"/>
        <pt x="326" y="708" on="1"/>
        <pt x="413" y="708" on="0"/>
        <pt x="550" y="662" on="0"/>
        <pt x="645" y="574" on="0"/>
        <pt x="696" y="444" on="0"/>
        <pt x="696" y="359" on="1"/>
        <pt x="696" y="276" on="0"/>
        <pt x="648" y="140" on="0"/>
        <pt x="552" y="44" on="0"/>
        <pt x="405" y="-9" on="0"/>
        <pt x="306" y="-9" on="1"/>
        <pt x="293" y="-9" on="0"/>
        <pt x="249" y="-6" on="0"/>
        <pt x="199" y="-3" on="0"/>
        <pt x="149" y="0" on="0"/>
        <pt x="130" y="0" on="1"/>
      </contour>
      <contour>
        <pt x="313" y="643" on="1"/>
        <pt x="295" y="643" on="0"/>
        <pt x="259" y="641" on="0"/>
        <pt x="246" y="639" on="1"/>
        <pt x="246" y="60" on="1"/>
        <pt x="250" y="59" on="0"/>
        <pt x="270" y="58" on="0"/>
        <pt x="291" y="57" on="0"/>
        <pt x="311" y="56" on="0"/>
        <pt x="316" y="56" on="1"/>
        <pt x="374" y="56" on="0"/>
        <pt x="455" y="104" on="0"/>
        <pt x="507" y="186" on="0"/>
        <pt x="531" y="296" on="0"/>
        <pt x="531" y="358" on="1"/>
        <pt x="531" y="413" on="0"/>
        <pt x="506" y="515" on="0"/>
        <pt x="454" y="595" on="0"/>
        <pt x="371" y="643" on="0"/>
      </contour>
    </TTGlyph>
    <TTGlyph name="E" xMin="20" yMin="0" xMax="561" yMax="700">
      <contour>
        <pt x="546" y="700" on="1"/>
        <pt x="544" y="655" on="0"/>
        <pt x="534" y="559" on="0"/>
        <pt x="526" y="517" on="1"/>
        <pt x="485" y="517" on="1"/>
        <pt x="439" y="635" on="1"/>
        <pt x="252" y="635" on="1"/>
        <pt x="252" y="390" on="1"/>
        <pt x="374" y="390" on="1"/>
        <pt x="418" y="467" on="1"/>
        <pt x="450" y="467" on="1"/>
        <pt x="455" y="418" on="0"/>
        <pt x="455" y="298" on="0"/>
        <pt x="450" y="246" on="1"/>
        <pt x="418" y="246" on="1"/>
        <pt x="374" y="325" on="1"/>
        <pt x="252" y="325" on="1"/>
        <pt x="252" y="65" on="1"/>
        <pt x="447" y="65" on="1"/>
        <pt x="500" y="192" on="1"/>
        <pt x="541" y="192" on="1"/>
        <pt x="545" y="173" on="0"/>
        <pt x="553" y="125" on="0"/>
        <pt x="558" y="74" on="0"/>
        <pt x="561" y="22" on="0"/>
        <pt x="561" y="0" on="1"/>
        <pt x="20" y="0" on="1"/>
        <pt x="20" y="38" on="1"/>
        <pt x="37" y="47" on="0"/>
        <pt x="79" y="63" on="0"/>
        <pt x="102" y="67" on="1"/>
        <pt x="102" y="633" on="1"/>
        <pt x="82" y="637" on="0"/>
        <pt x="37" y="652" on="0"/>
        <pt x="20" y="662" on="1"/>
        <pt x="20" y="700" on="1"/>
      </contour>
    </TTGlyph>
    <TTGlyph name="Eacute" xMin="20" yMin="0" xMax="561" yMax="899">
      <component glyphName="E" x="0" y="0" flags="0x204"/>
      <component glyphName="uniF6C9" x="160" y="0" flags="0x4"/>
    </TTGlyph>
    <TTGlyph name="Ecircumflex" xMin="20" yMin="0" xMax="561" yMax="893">
      <component glyphName="E" x="0" y="0" flags="0x204"/>
      <component glyphName="uniF408" x="94" y="0" flags="0x4"/>
    </TTGlyph>
    <TTGlyph name="Edieresis" xMin="20" yMin="0" xMax="561" yMax="857">
      <component glyphName="E" x="0" y="0" flags="0x204"/>
      <component glyphName="uniF6CB" x="33" y="0" flags="0x4"/>
    </TTGlyph>
    <TTGlyph name="Egrave" xMin="20" yMin="0" xMax="561" yMax="901">
      <component glyphName="E" x="0" y="0" flags="0x204"/>
      <component glyphName="uniF6CE" x="40" y="0" flags="0x4"/>
    </TTGlyph>
    <TTGlyph name="Eth" xMin="22" yMin="-9" xMax="701" yMax="708">
      <contour>
        <pt x="22" y="389" on="1"/>
        <pt x="107" y="389" on="1"/>
        <pt x="107" y="633" on="1"/>
        <pt x="84" y="638" on="0"/>
        <pt x="41" y="653" on="0"/>
        <pt x="25" y="662" on="1"/>
        <pt x="25" y="700" on="1"/>
        <pt x="141" y="700" on="1"/>
        <pt x="158" y="700" on="0"/>
        <pt x="208" y="702" on="0"/>
        <pt x="262" y="705" on="0"/>
        <pt x="313" y="708" on="0"/>
        <pt x="331" y="708" on="1"/>
        <pt x="418" y="708" on="0"/>
        <pt x="555" y="662" on="0"/>
        <pt x="650" y="574" on="0"/>
        <pt x="701" y="444" on="0"/>
        <pt x="701" y="359" on="1"/>
        <pt x="701" y="276" on="0"/>
        <pt x="653" y="140" on="0"/>
        <pt x="557" y="44" on="0"/>
        <pt x="410" y="-9" on="0"/>
        <pt x="311" y="-9" on="1"/>
        <pt x="298" y="-9" on="0"/>
        <pt x="254" y="-6" on="0"/>
        <pt x="204" y="-3" on="0"/>
        <pt x="154" y="0" on="0"/>
        <pt x="135" y="0" on="1"/>
        <pt x="25" y="0" on="1"/>
        <pt x="25" y="38" on="1"/>
        <pt x="42" y="48" on="0"/>
        <pt x="84" y="63" on="0"/>
        <pt x="107" y="67" on="1"/>
        <pt x="107" y="329" on="1"/>
        <pt x="22" y="329" on="1"/>
      </contour>
      <contour>
        <pt x="318" y="643" on="1"/>
        <pt x="300" y="643" on="0"/>
        <pt x="264" y="641" on="0"/>
        <pt x="251" y="639" on="1"/>
        <pt x="251" y="389" on="1"/>
        <pt x="404" y="389" on="1"/>
        <pt x="404" y="329" on="1"/>
        <pt x="251" y="329" on="1"/>
        <pt x="251" y="60" on="1"/>
        <pt x="255" y="59" on="0"/>
        <pt x="275" y="58" on="0"/>
        <pt x="296" y="57" on="0"/>
        <pt x="316" y="56" on="0"/>
        <pt x="321" y="56" on="1"/>
        <pt x="379" y="56" on="0"/>
        <pt x="460" y="104" on="0"/>
        <pt x="512" y="186" on="0"/>
        <pt x="536" y="296" on="0"/>
        <pt x="536" y="358" on="1"/>
        <pt x="536" y="413" on="0"/>
        <pt x="511" y="515" on="0"/>
        <pt x="459" y="595" on="0"/>
        <pt x="376" y="643" on="0"/>
      </contour>
    </TTGlyph>
    <TTGlyph name="Euro" xMin="-46" yMin="-12" xMax="551" yMax="712">
      <contour>
        <pt x="-29" y="448" on="1"/>
        <pt x="33" y="448" on="1"/>
        <pt x="44" y="518" on="0"/>
        <pt x="100" y="618" on="0"/>
        <pt x="182" y="682" on="0"/>
        <pt x="285" y="712" on="0"/>
        <pt x="343" y="712" on="1"/>
        <pt x="409" y="712" on="0"/>
        <pt x="514" y="693" on="0"/>
        <pt x="548" y="677" on="1"/>
        <pt x="548" y="661" on="0"/>
        <pt x="544" y="611" on="0"/>
        <pt x="537" y="556" on="0"/>
        <pt x="528" y="503" on="0"/>
        <pt x="524" y="485" on="1"/>
        <pt x="483" y="485" on="1"/>
        <pt x="427" y="636" on="1"/>
        <pt x="418" y="641" on="0"/>
        <pt x="381" y="647" on="0"/>
        <pt x="361" y="647" on="1"/>
        <pt x="292" y="647" on="0"/>
        <pt x="197" y="554" on="0"/>
        <pt x="182" y="448" on="1"/>
        <pt x="427" y="448" on="1"/>
        <pt x="410" y="381" on="1"/>
        <pt x="176" y="381" on="1"/>
        <pt x="176" y="350" on="1"/>
        <pt x="176" y="342" on="0"/>
        <pt x="176" y="326" on="0"/>
        <pt x="177" y="318" on="1"/>
        <pt x="394" y="318" on="1"/>
        <pt x="377" y="251" on="1"/>
        <pt x="183" y="251" on="1"/>
        <pt x="198" y="157" on="0"/>
        <pt x="292" y="53" on="0"/>
        <pt x="371" y="53" on="1"/>
        <pt x="428" y="53" on="0"/>
        <pt x="443" y="70" on="1"/>
        <pt x="491" y="210" on="1"/>
        <pt x="533" y="210" on="1"/>
        <pt x="537" y="194" on="0"/>
        <pt x="544" y="149" on="0"/>
        <pt x="549" y="98" on="0"/>
        <pt x="551" y="48" on="0"/>
        <pt x="551" y="28" on="1"/>
        <pt x="516" y="6" on="0"/>
        <pt x="414" y="-12" on="0"/>
        <pt x="359" y="-12" on="1"/>
        <pt x="78" y="-12" on="0"/>
        <pt x="35" y="251" on="1"/>
        <pt x="-46" y="251" on="1"/>
        <pt x="-29" y="318" on="1"/>
        <pt x="27" y="318" on="1"/>
        <pt x="26" y="329" on="0"/>
        <pt x="26" y="350" on="0"/>
        <pt x="26" y="361" on="1"/>
        <pt x="26" y="366" on="0"/>
        <pt x="26" y="376" on="0"/>
        <pt x="27" y="381" on="1"/>
        <pt x="-46" y="381" on="1"/>
      </contour>
    </TTGlyph>
    <TTGlyph name="F" xMin="20" yMin="0" xMax="543" yMax="700">
      <contour>
        <pt x="242" y="67" on="1"/>
        <pt x="288" y="61" on="0"/>
        <pt x="329" y="38" on="1"/>
        <pt x="329" y="0" on="1"/>
        <pt x="20" y="0" on="1"/>
        <pt x="20" y="38" on="1"/>
        <pt x="36" y="47" on="0"/>
        <pt x="72" y="62" on="0"/>
        <pt x="92" y="67" on="1"/>
        <pt x="92" y="633" on="1"/>
        <pt x="69" y="638" on="0"/>
        <pt x="34" y="654" on="0"/>
        <pt x="20" y="662" on="1"/>
        <pt x="20" y="700" on="1"/>
        <pt x="543" y="700" on="1"/>
        <pt x="543" y="680" on="0"/>
        <pt x="539" y="633" on="0"/>
        <pt x="534" y="584" on="0"/>
        <pt x="527" y="537" on="0"/>
        <pt x="523" y="517" on="1"/>
        <pt x="482" y="517" on="1"/>
        <pt x="436" y="635" on="1"/>
        <pt x="242" y="635" on="1"/>
        <pt x="242" y="372" on="1"/>
        <pt x="379" y="372" on="1"/>
        <pt x="424" y="449" on="1"/>
        <pt x="454" y="449" on="1"/>
        <pt x="458" y="423" on="0"/>
        <pt x="461" y="365" on="0"/>
        <pt x="461" y="336" on="1"/>
        <pt x="460" y="306" on="0"/>
        <pt x="457" y="250" on="0"/>
        <pt x="454" y="228" on="1"/>
        <pt x="424" y="228" on="1"/>
        <pt x="379" y="307" on="1"/>
        <pt x="242" y="307" on="1"/>
      </contour>
    </TTGlyph>
    <TTGlyph name="G" xMin="39" yMin="-12" xMax="698" yMax="712">
      <contour>
        <pt x="636" y="44" on="1"/>
        <pt x="616" y="34" on="0"/>
        <pt x="558" y="14" on="0"/>
        <pt x="494" y="-2" on="0"/>
        <pt x="430" y="-12" on="0"/>
        <pt x="405" y="-12" on="1"/>
        <pt x="319" y="-12" on="0"/>
        <pt x="184" y="33" on="0"/>
        <pt x="89" y="124" on="0"/>
        <pt x="39" y="260" on="0"/>
        <pt x="39" y="350" on="1"/>
        <pt x="39" y="448" on="0"/>
        <pt x="100" y="585" on="0"/>
        <pt x="201" y="672" on="0"/>
        <pt x="329" y="712" on="0"/>
        <pt x="396" y="712" on="1"/>
        <pt x="462" y="712" on="0"/>
        <pt x="578" y="694" on="0"/>
        <pt x="612" y="677" on="1"/>
        <pt x="612" y="662" on="0"/>
        <pt x="609" y="615" on="0"/>
        <pt x="603" y="561" on="0"/>
        <pt x="594" y="507" on="0"/>
        <pt x="588" y="485" on="1"/>
        <pt x="547" y="485" on="1"/>
        <pt x="491" y="637" on="1"/>
        <pt x="480" y="642" on="0"/>
        <pt x="436" y="647" on="0"/>
        <pt x="414" y="647" on="1"/>
        <pt x="373" y="647" on="0"/>
        <pt x="297" y="615" on="0"/>
        <pt x="239" y="544" on="0"/>
        <pt x="205" y="431" on="0"/>
        <pt x="205" y="350" on="1"/>
        <pt x="205" y="284" on="0"/>
        <pt x="236" y="175" on="0"/>
        <pt x="292" y="97" on="0"/>
        <pt x="370" y="53" on="0"/>
        <pt x="417" y="53" on="1"/>
        <pt x="432" y="53" on="0"/>
        <pt x="464" y="58" on="0"/>
        <pt x="492" y="66" on="0"/>
        <pt x="513" y="76" on="0"/>
        <pt x="517" y="80" on="1"/>
        <pt x="517" y="268" on="1"/>
        <pt x="491" y="270" on="0"/>
        <pt x="445" y="286" on="0"/>
        <pt x="425" y="297" on="1"/>
        <pt x="425" y="335" on="1"/>
        <pt x="698" y="335" on="1"/>
        <pt x="698" y="297" on="1"/>
        <pt x="689" y="288" on="0"/>
        <pt x="659" y="273" on="0"/>
        <pt x="636" y="268" on="1"/>
      </contour>
    </TTGlyph>
    <TTGlyph name="H" xMin="20" yMin="0" xMax="749" yMax="700">
      <contour>
        <pt x="323" y="0" on="1"/>
        <pt x="20" y="0" on="1"/>
        <pt x="20" y="38" on="1"/>
        <pt x="37" y="47" on="0"/>
        <pt x="82" y="63" on="0"/>
        <pt x="102" y="67" on="1"/>
        <pt x="102" y="633" on="1"/>
        <pt x="78" y="637" on="0"/>
        <pt x="34" y="653" on="0"/>
        <pt x="20" y="662" on="1"/>
        <pt x="20" y="700" on="1"/>
        <pt x="323" y="700" on="1"/>
        <pt x="323" y="662" on="1"/>
        <pt x="308" y="652" on="0"/>
        <pt x="271" y="636" on="0"/>
        <pt x="252" y="633" on="1"/>
        <pt x="252" y="391" on="1"/>
        <pt x="517" y="391" on="1"/>
        <pt x="517" y="633" on="1"/>
        <pt x="495" y="637" on="0"/>
        <pt x="460" y="653" on="0"/>
        <pt x="446" y="662" on="1"/>
        <pt x="446" y="700" on="1"/>
        <pt x="749" y="700" on="1"/>
        <pt x="749" y="662" on="1"/>
        <pt x="732" y="651" on="0"/>
        <pt x="688" y="637" on="0"/>
        <pt x="667" y="633" on="1"/>
        <pt x="667" y="67" on="1"/>
        <pt x="690" y="63" on="0"/>
        <pt x="733" y="47" on="0"/>
        <pt x="749" y="38" on="1"/>
        <pt x="749" y="0" on="1"/>
        <pt x="446" y="0" on="1"/>
        <pt x="446" y="38" on="1"/>
        <pt x="461" y="47" on="0"/>
        <pt x="497" y="63" on="0"/>
        <pt x="517" y="67" on="1"/>
        <pt x="517" y="326" on="1"/>
        <pt x="252" y="326" on="1"/>
        <pt x="252" y="67" on="1"/>
        <pt x="272" y="63" on="0"/>
        <pt x="306" y="49" on="0"/>
        <pt x="323" y="38" on="1"/>
      </contour>
    </TTGlyph>
    <TTGlyph name="I" xMin="30" yMin="0" xMax="342" yMax="700">
      <contour>
        <pt x="342" y="0" on="1"/>
        <pt x="30" y="0" on="1"/>
        <pt x="30" y="38" on="1"/>
        <pt x="70" y="60" on="0"/>
        <pt x="111" y="67" on="1"/>
        <pt x="111" y="633" on="1"/>
        <pt x="91" y="636" on="0"/>
        <pt x="47" y="652" on="0"/>
        <pt x="30" y="662" on="1"/>
        <pt x="30" y="700" on="1"/>
        <pt x="342" y="700" on="1"/>
        <pt x="342" y="662" on="1"/>
        <pt x="324" y="651" on="0"/>
        <pt x="281" y="636" on="0"/>
        <pt x="261" y="633" on="1"/>
        <pt x="261" y="67" on="1"/>
        <pt x="281" y="63" on="0"/>
        <pt x="324" y="49" on="0"/>
        <pt x="342" y="38" on="1"/>
      </contour>
    </TTGlyph>
    <TTGlyph name="Iacute" xMin="30" yMin="0" xMax="352" yMax="899">
      <component glyphName="I" x="0" y="0" flags="0x204"/>
      <component glyphName="uniF6C9" x="17" y="0" flags="0x4"/>
    </TTGlyph>
    <TTGlyph name="Icircumflex" xMin="30" yMin="0" xMax="344" yMax="893">
      <component glyphName="I" x="0" y="0" flags="0x204"/>
      <component glyphName="uniF408" x="-30" y="0" flags="0x4"/>
    </TTGlyph>
    <TTGlyph name="Idieresis" xMin="-17" yMin="0" xMax="391" yMax="857">
      <component glyphName="I" x="0" y="0" flags="0x204"/>
      <component glyphName="uniF6CB" x="-77" y="0" flags="0x4"/>
    </TTGlyph>
    <TTGlyph name="Igrave" xMin="30" yMin="0" xMax="342" yMax="901">
      <component glyphName="I" x="0" y="0" flags="0x204"/>
      <component glyphName="uniF6CE" x="-28" y="0" flags="0x4"/>
    </TTGlyph>
    <TTGlyph name="J" xMin="27" yMin="-160" xMax="335" yMax="700">
      <contour>
        <pt x="27" y="700" on="1"/>
        <pt x="335" y="700" on="1"/>
        <pt x="335" y="662" on="1"/>
        <pt x="319" y="652" on="0"/>
        <pt x="279" y="636" on="0"/>
        <pt x="259" y="633" on="1"/>
        <pt x="259" y="121" on="1"/>
        <pt x="259" y="39" on="0"/>
        <pt x="210" y="-66" on="0"/>
        <pt x="143" y="-127" on="0"/>
        <pt x="73" y="-155" on="0"/>
        <pt x="51" y="-160" on="1"/>
        <pt x="32" y="-134" on="1"/>
        <pt x="47" y="-122" on="0"/>
        <pt x="75" y="-85" on="0"/>
        <pt x="96" y="-27" on="0"/>
        <pt x="109" y="56" on="0"/>
        <pt x="109" y="115" on="1"/>
        <pt x="109" y="633" on="1"/>
        <pt x="87" y="638" on="0"/>
        <pt x="44" y="651" on="0"/>
        <pt x="27" y="662" on="1"/>
      </contour>
    </TTGlyph>
    <TTGlyph name="K" xMin="20" yMin="0" xMax="710" yMax="700">
      <contour>
        <pt x="399" y="700" on="1"/>
        <pt x="667" y="700" on="1"/>
        <pt x="667" y="662" on="1"/>
        <pt x="650" y="651" on="0"/>
        <pt x="606" y="636" on="0"/>
        <pt x="588" y="633" on="1"/>
        <pt x="398" y="392" on="1"/>
        <pt x="421" y="360" on="0"/>
        <pt x="483" y="279" on="0"/>
        <pt x="553" y="192" on="0"/>
        <pt x="627" y="103" on="0"/>
        <pt x="662" y="63" on="1"/>
        <pt x="710" y="34" on="1"/>
        <pt x="710" y="0" on="1"/>
        <pt x="536" y="0" on="1"/>
        <pt x="496" y="28" on="1"/>
        <pt x="472" y="58" on="0"/>
        <pt x="419" y="131" on="0"/>
        <pt x="367" y="210" on="0"/>
        <pt x="317" y="290" on="0"/>
        <pt x="295" y="328" on="1"/>
        <pt x="252" y="328" on="1"/>
        <pt x="252" y="67" on="1"/>
        <pt x="274" y="63" on="0"/>
        <pt x="310" y="47" on="0"/>
        <pt x="323" y="38" on="1"/>
        <pt x="323" y="0" on="1"/>
        <pt x="20" y="0" on="1"/>
        <pt x="20" y="38" on="1"/>
        <pt x="40" y="48" on="0"/>
        <pt x="82" y="63" on="0"/>
        <pt x="102" y="67" on="1"/>
        <pt x="102" y="633" on="1"/>
        <pt x="79" y="636" on="0"/>
        <pt x="36" y="652" on="0"/>
        <pt x="20" y="662" on="1"/>
        <pt x="20" y="700" on="1"/>
        <pt x="323" y="700" on="1"/>
        <pt x="323" y="662" on="1"/>
        <pt x="310" y="654" on="0"/>
        <pt x="273" y="638" on="0"/>
        <pt x="252" y="633" on="1"/>
        <pt x="252" y="379" on="1"/>
        <pt x="311" y="393" on="1"/>
        <pt x="472" y="633" on="1"/>
        <pt x="452" y="637" on="0"/>
        <pt x="413" y="654" on="0"/>
        <pt x="399" y="662" on="1"/>
      </contour>
    </TTGlyph>
    <TTGlyph name="L" xMin="20" yMin="0" xMax="570" yMax="700">
      <contour>
        <pt x="20" y="700" on="1"/>
        <pt x="348" y="700" on="1"/>
        <pt x="348" y="662" on="1"/>
        <pt x="327" y="651" on="0"/>
        <pt x="276" y="636" on="0"/>
        <pt x="252" y="633" on="1"/>
        <pt x="252" y="65" on="1"/>
        <pt x="445" y="65" on="1"/>
        <pt x="512" y="244" on="1"/>
        <pt x="553" y="244" on="1"/>
        <pt x="557" y="221" on="0"/>
        <pt x="564" y="159" on="0"/>
        <pt x="568" y="91" on="0"/>
        <pt x="570" y="25" on="0"/>
        <pt x="569" y="0" on="1"/>
        <pt x="20" y="0" on="1"/>
        <pt x="20" y="38" on="1"/>
        <pt x="43" y="50" on="0"/>
        <pt x="84" y="64" on="0"/>
        <pt x="102" y="67" on="1"/>
        <pt x="102" y="633" on="1"/>
        <pt x="53" y="641" on="0"/>
        <pt x="20" y="662" on="1"/>
      </contour>
    </TTGlyph>
    <TTGlyph name="M" xMin="20" yMin="0" xMax="910" yMax="700">
      <contour>
        <pt x="909" y="0" on="1"/>
        <pt x="610" y="0" on="1"/>
        <pt x="610" y="38" on="1"/>
        <pt x="630" y="48" on="0"/>
        <pt x="668" y="62" on="0"/>
        <pt x="690" y="67" on="1"/>
        <pt x="690" y="485" on="1"/>
        <pt x="695" y="602" on="1"/>
        <pt x="687" y="602" on="1"/>
        <pt x="654" y="495" on="1"/>
        <pt x="461" y="0" on="1"/>
        <pt x="415" y="0" on="1"/>
        <pt x="223" y="491" on="1"/>
        <pt x="187" y="608" on="1"/>
        <pt x="178" y="608" on="1"/>
        <pt x="179" y="481" on="1"/>
        <pt x="179" y="71" on="1"/>
        <pt x="198" y="67" on="0"/>
        <pt x="244" y="49" on="0"/>
        <pt x="264" y="38" on="1"/>
        <pt x="264" y="0" on="1"/>
        <pt x="20" y="0" on="1"/>
        <pt x="20" y="38" on="1"/>
        <pt x="36" y="46" on="0"/>
        <pt x="83" y="68" on="0"/>
        <pt x="104" y="72" on="1"/>
        <pt x="104" y="633" on="1"/>
        <pt x="84" y="637" on="0"/>
        <pt x="39" y="651" on="0"/>
        <pt x="22" y="662" on="1"/>
        <pt x="22" y="700" on="1"/>
        <pt x="293" y="700" on="1"/>
        <pt x="446" y="293" on="1"/>
        <pt x="475" y="197" on="1"/>
        <pt x="476" y="197" on="1"/>
        <pt x="506" y="295" on="1"/>
        <pt x="662" y="700" on="1"/>
        <pt x="910" y="700" on="1"/>
        <pt x="910" y="662" on="1"/>
        <pt x="893" y="652" on="0"/>
        <pt x="854" y="637" on="0"/>
        <pt x="834" y="633" on="1"/>
        <pt x="834" y="66" on="1"/>
        <pt x="855" y="62" on="0"/>
        <pt x="894" y="46" on="0"/>
        <pt x="909" y="38" on="1"/>
      </contour>
    </TTGlyph>
    <TTGlyph name="N" xMin="20" yMin="-12" xMax="738" yMax="700">
      <contour>
        <pt x="490" y="700" on="1"/>
        <pt x="738" y="700" on="1"/>
        <pt x="738" y="662" on="1"/>
        <pt x="719" y="647" on="0"/>
        <pt x="673" y="624" on="0"/>
        <pt x="653" y="618" on="1"/>
        <pt x="653" y="-12" on="1"/>
        <pt x="568" y="-12" on="1"/>
        <pt x="215" y="498" on="1"/>
        <pt x="175" y="575" on="1"/>
        <pt x="172" y="575" on="1"/>
        <pt x="181" y="495" on="1"/>
        <pt x="181" y="78" on="1"/>
        <pt x="201" y="73" on="0"/>
        <pt x="250" y="50" on="0"/>
        <pt x="267" y="38" on="1"/>
        <pt x="267" y="0" on="1"/>
        <pt x="20" y="0" on="1"/>
        <pt x="20" y="38" on="1"/>
        <pt x="38" y="50" on="0"/>
        <pt x="81" y="71" on="0"/>
        <pt x="104" y="78" on="1"/>
        <pt x="104" y="624" on="1"/>
        <pt x="84" y="632" on="0"/>
        <pt x="44" y="652" on="0"/>
        <pt x="28" y="663" on="1"/>
        <pt x="28" y="700" on="1"/>
        <pt x="244" y="700" on="1"/>
        <pt x="531" y="284" on="1"/>
        <pt x="577" y="198" on="1"/>
        <pt x="581" y="198" on="1"/>
        <pt x="576" y="284" on="1"/>
        <pt x="576" y="618" on="1"/>
        <pt x="552" y="626" on="0"/>
        <pt x="507" y="649" on="0"/>
        <pt x="490" y="662" on="1"/>
      </contour>
    </TTGlyph>
    <TTGlyph name="Ntilde" xMin="20" yMin="-12" xMax="738" yMax="876">
      <component glyphName="N" x="0" y="0" flags="0x204"/>
      <component glyphName="uniF40D" x="151" y="0" flags="0x4"/>
    </TTGlyph>
    <TTGlyph name="O" xMin="39" yMin="-12" xMax="714" yMax="712">
      <contour>
        <pt x="39" y="350" on="1"/>
        <pt x="39" y="428" on="0"/>
        <pt x="83" y="561" on="0"/>
        <pt x="169" y="658" on="0"/>
        <pt x="295" y="712" on="0"/>
        <pt x="377" y="712" on="1"/>
        <pt x="459" y="712" on="0"/>
        <pt x="585" y="658" on="0"/>
        <pt x="670" y="561" on="0"/>
        <pt x="714" y="428" on="0"/>
        <pt x="714" y="350" on="1"/>
        <pt x="714" y="272" on="0"/>
        <pt x="670" y="139" on="0"/>
        <pt x="585" y="42" on="0"/>
        <pt x="459" y="-12" on="0"/>
        <pt x="377" y="-12" on="1"/>
        <pt x="295" y="-12" on="0"/>
        <pt x="169" y="42" on="0"/>
        <pt x="83" y="139" on="0"/>
        <pt x="39" y="272" on="0"/>
      </contour>
      <contour>
        <pt x="209" y="350" on="1"/>
        <pt x="209" y="286" on="0"/>
        <pt x="229" y="177" on="0"/>
        <pt x="272" y="98" on="0"/>
        <pt x="339" y="53" on="0"/>
        <pt x="386" y="53" on="1"/>
        <pt x="429" y="53" on="0"/>
        <pt x="489" y="98" on="0"/>
        <pt x="527" y="177" on="0"/>
        <pt x="544" y="286" on="0"/>
        <pt x="544" y="350" on="1"/>
        <pt x="544" y="414" on="0"/>
        <pt x="525" y="523" on="0"/>
        <pt x="484" y="602" on="0"/>
        <pt x="417" y="647" on="0"/>
        <pt x="369" y="647" on="1"/>
        <pt x="323" y="647" on="0"/>
        <pt x="261" y="602" on="0"/>
        <pt x="224" y="523" on="0"/>
        <pt x="209" y="414" on="0"/>
      </contour>
    </TTGlyph>
    <TTGlyph name="OE" xMin="39" yMin="-12" xMax="940" yMax="712">
      <contour>
        <pt x="482" y="0" on="1"/>
        <pt x="459" y="-5" on="0"/>
        <pt x="400" y="-12" on="0"/>
        <pt x="375" y="-12" on="1"/>
        <pt x="293" y="-12" on="0"/>
        <pt x="167" y="42" on="0"/>
        <pt x="82" y="139" on="0"/>
        <pt x="39" y="272" on="0"/>
        <pt x="39" y="350" on="1"/>
        <pt x="39" y="428" on="0"/>
        <pt x="82" y="561" on="0"/>
        <pt x="167" y="658" on="0"/>
        <pt x="293" y="712" on="0"/>
        <pt x="375" y="712" on="1"/>
        <pt x="396" y="712" on="0"/>
        <pt x="457" y="705" on="0"/>
        <pt x="481" y="700" on="1"/>
        <pt x="925" y="700" on="1"/>
        <pt x="923" y="655" on="0"/>
        <pt x="913" y="559" on="0"/>
        <pt x="905" y="517" on="1"/>
        <pt x="864" y="517" on="1"/>
        <pt x="818" y="635" on="1"/>
        <pt x="631" y="635" on="1"/>
        <pt x="631" y="390" on="1"/>
        <pt x="753" y="390" on="1"/>
        <pt x="797" y="467" on="1"/>
        <pt x="829" y="467" on="1"/>
        <pt x="834" y="418" on="0"/>
        <pt x="834" y="298" on="0"/>
        <pt x="829" y="246" on="1"/>
        <pt x="797" y="246" on="1"/>
        <pt x="753" y="325" on="1"/>
        <pt x="631" y="325" on="1"/>
        <pt x="631" y="65" on="1"/>
        <pt x="826" y="65" on="1"/>
        <pt x="879" y="192" on="1"/>
        <pt x="920" y="192" on="1"/>
        <pt x="924" y="173" on="0"/>
        <pt x="932" y="125" on="0"/>
        <pt x="937" y="74" on="0"/>
        <pt x="940" y="22" on="0"/>
        <pt x="940" y="0" on="1"/>
      </contour>
      <contour>
        <pt x="386" y="53" on="1"/>
        <pt x="410" y="53" on="0"/>
        <pt x="461" y="66" on="0"/>
        <pt x="481" y="77" on="1"/>
        <pt x="481" y="617" on="1"/>
        <pt x="458" y="630" on="0"/>
        <pt x="400" y="647" on="0"/>
        <pt x="369" y="647" on="1"/>
        <pt x="323" y="647" on="0"/>
        <pt x="261" y="602" on="0"/>
        <pt x="224" y="523" on="0"/>
        <pt x="209" y="414" on="0"/>
        <pt x="209" y="350" on="1"/>
        <pt x="209" y="286" on="0"/>
        <pt x="229" y="177" on="0"/>
        <pt x="272" y="98" on="0"/>
        <pt x="339" y="53" on="0"/>
      </contour>
    </TTGlyph>
    <TTGlyph name="Oacute" xMin="39" yMin="-12" xMax="714" yMax="899">
      <component glyphName="O" x="0" y="0" flags="0x204"/>
      <component glyphName="uniF6C9" x="223" y="0" flags="0x4"/>
    </TTGlyph>
    <TTGlyph name="Ocircumflex" xMin="39" yMin="-12" xMax="714" yMax="893">
      <component glyphName="O" x="0" y="0" flags="0x204"/>
      <component glyphName="uniF408" x="160" y="0" flags="0x4"/>
    </TTGlyph>
    <TTGlyph name="Odieresis" xMin="39" yMin="-12" xMax="714" yMax="857">
      <component glyphName="O" x="0" y="0" flags="0x204"/>
      <component glyphName="uniF6CB" x="113" y="0" flags="0x4"/>
    </TTGlyph>
    <TTGlyph name="Ograve" xMin="39" yMin="-12" xMax="714" yMax="901">
      <component glyphName="O" x="0" y="0" flags="0x204"/>
      <component glyphName="uniF6CE" x="133" y="0" flags="0x4"/>
    </TTGlyph>
    <TTGlyph name="Oslash" xMin="39" yMin="-18" xMax="714" yMax="718">
      <contour>
        <pt x="39" y="350" on="1"/>
        <pt x="39" y="428" on="0"/>
        <pt x="83" y="561" on="0"/>
        <pt x="169" y="658" on="0"/>
        <pt x="295" y="712" on="0"/>
        <pt x="377" y="712" on="1"/>
        <pt x="425" y="712" on="0"/>
        <pt x="507" y="692" on="0"/>
        <pt x="542" y="674" on="1"/>
        <pt x="569" y="718" on="1"/>
        <pt x="632" y="679" on="1"/>
        <pt x="603" y="633" on="1"/>
        <pt x="658" y="584" on="0"/>
        <pt x="714" y="439" on="0"/>
        <pt x="714" y="350" on="1"/>
        <pt x="714" y="272" on="0"/>
        <pt x="670" y="139" on="0"/>
        <pt x="585" y="42" on="0"/>
        <pt x="459" y="-12" on="0"/>
        <pt x="377" y="-12" on="1"/>
        <pt x="329" y="-12" on="0"/>
        <pt x="249" y="7" on="0"/>
        <pt x="214" y="24" on="1"/>
        <pt x="188" y="-18" on="1"/>
        <pt x="127" y="21" on="1"/>
        <pt x="153" y="63" on="1"/>
        <pt x="96" y="112" on="0"/>
        <pt x="39" y="259" on="0"/>
      </contour>
      <contour>
        <pt x="209" y="350" on="1"/>
        <pt x="209" y="305" on="0"/>
        <pt x="223" y="226" on="0"/>
        <pt x="237" y="194" on="1"/>
        <pt x="486" y="588" on="1"/>
        <pt x="466" y="616" on="0"/>
        <pt x="408" y="647" on="0"/>
        <pt x="369" y="647" on="1"/>
        <pt x="323" y="647" on="0"/>
        <pt x="261" y="602" on="0"/>
        <pt x="224" y="523" on="0"/>
        <pt x="209" y="414" on="0"/>
      </contour>
      <contour>
        <pt x="544" y="350" on="1"/>
        <pt x="544" y="393" on="0"/>
        <pt x="532" y="469" on="0"/>
        <pt x="518" y="501" on="1"/>
        <pt x="270" y="110" on="1"/>
        <pt x="312" y="53" on="0"/>
        <pt x="386" y="53" on="1"/>
        <pt x="429" y="53" on="0"/>
        <pt x="489" y="98" on="0"/>
        <pt x="527" y="177" on="0"/>
        <pt x="544" y="286" on="0"/>
      </contour>
    </TTGlyph>
    <TTGlyph name="Otilde" xMin="39" yMin="-12" xMax="714" yMax="876">
      <component glyphName="O" x="0" y="0" flags="0x204"/>
      <component glyphName="uniF40D" x="145" y="0" flags="0x4"/>
    </TTGlyph>
    <TTGlyph name="P" xMin="20" yMin="0" xMax="613" yMax="708">
      <contour>
        <pt x="252" y="67" on="1"/>
        <pt x="279" y="63" on="0"/>
        <pt x="332" y="48" on="0"/>
        <pt x="353" y="38" on="1"/>
        <pt x="353" y="0" on="1"/>
        <pt x="20" y="0" on="1"/>
        <pt x="20" y="38" on="1"/>
        <pt x="39" y="49" on="0"/>
        <pt x="82" y="63" on="0"/>
        <pt x="102" y="67" on="1"/>
        <pt x="102" y="633" on="1"/>
        <pt x="79" y="637" on="0"/>
        <pt x="37" y="652" on="0"/>
        <pt x="20" y="662" on="1"/>
        <pt x="20" y="700" on="1"/>
        <pt x="146" y="700" on="1"/>
        <pt x="186" y="700" on="0"/>
        <pt x="289" y="708" on="0"/>
        <pt x="332" y="708" on="1"/>
        <pt x="385" y="708" on="0"/>
        <pt x="486" y="687" on="0"/>
        <pt x="565" y="637" on="0"/>
        <pt x="613" y="554" on="0"/>
        <pt x="613" y="492" on="1"/>
        <pt x="613" y="433" on="0"/>
        <pt x="566" y="347" on="0"/>
        <pt x="488" y="291" on="0"/>
        <pt x="386" y="264" on="0"/>
        <pt x="332" y="264" on="1"/>
        <pt x="327" y="264" on="0"/>
        <pt x="305" y="264" on="0"/>
        <pt x="280" y="265" on="0"/>
        <pt x="257" y="266" on="0"/>
        <pt x="252" y="267" on="1"/>
      </contour>
      <contour>
        <pt x="306" y="643" on="1"/>
        <pt x="286" y="643" on="0"/>
        <pt x="263" y="640" on="0"/>
        <pt x="252" y="637" on="1"/>
        <pt x="252" y="333" on="1"/>
        <pt x="261" y="330" on="0"/>
        <pt x="297" y="329" on="0"/>
        <pt x="308" y="329" on="1"/>
        <pt x="335" y="329" on="0"/>
        <pt x="385" y="347" on="0"/>
        <pt x="424" y="385" on="0"/>
        <pt x="448" y="445" on="0"/>
        <pt x="448" y="487" on="1"/>
        <pt x="448" y="567" on="0"/>
        <pt x="370" y="643" on="0"/>
      </contour>
    </TTGlyph>
    <TTGlyph name="Q" xMin="39" yMin="-210" xMax="774" yMax="712">
      <contour>
        <pt x="774" y="-112" on="1"/>
        <pt x="756" y="-131" on="0"/>
        <pt x="715" y="-166" on="0"/>
        <pt x="670" y="-194" on="0"/>
        <pt x="620" y="-210" on="0"/>
        <pt x="593" y="-210" on="1"/>
        <pt x="547" y="-210" on="0"/>
        <pt x="454" y="-177" on="0"/>
        <pt x="353" y="-134" on="0"/>
        <pt x="242" y="-94" on="0"/>
        <pt x="177" y="-86" on="1"/>
        <pt x="202" y="-42" on="1"/>
        <pt x="250" y="-33" on="0"/>
        <pt x="343" y="-42" on="0"/>
        <pt x="434" y="-63" on="0"/>
        <pt x="525" y="-89" on="0"/>
        <pt x="617" y="-105" on="0"/>
        <pt x="713" y="-104" on="0"/>
        <pt x="764" y="-87" on="1"/>
      </contour>
      <contour>
        <pt x="39" y="350" on="1"/>
        <pt x="39" y="428" on="0"/>
        <pt x="83" y="561" on="0"/>
        <pt x="169" y="658" on="0"/>
        <pt x="295" y="712" on="0"/>
        <pt x="377" y="712" on="1"/>
        <pt x="459" y="712" on="0"/>
        <pt x="585" y="658" on="0"/>
        <pt x="670" y="561" on="0"/>
        <pt x="714" y="428" on="0"/>
        <pt x="714" y="350" on="1"/>
        <pt x="714" y="272" on="0"/>
        <pt x="670" y="139" on="0"/>
        <pt x="585" y="42" on="0"/>
        <pt x="459" y="-12" on="0"/>
        <pt x="377" y="-12" on="1"/>
        <pt x="295" y="-12" on="0"/>
        <pt x="169" y="42" on="0"/>
        <pt x="83" y="139" on="0"/>
        <pt x="39" y="272" on="0"/>
      </contour>
      <contour>
        <pt x="209" y="350" on="1"/>
        <pt x="209" y="286" on="0"/>
        <pt x="229" y="177" on="0"/>
        <pt x="272" y="98" on="0"/>
        <pt x="339" y="53" on="0"/>
        <pt x="386" y="53" on="1"/>
        <pt x="429" y="53" on="0"/>
        <pt x="489" y="98" on="0"/>
        <pt x="527" y="177" on="0"/>
        <pt x="544" y="286" on="0"/>
        <pt x="544" y="350" on="1"/>
        <pt x="544" y="414" on="0"/>
        <pt x="525" y="523" on="0"/>
        <pt x="484" y="602" on="0"/>
        <pt x="417" y="647" on="0"/>
        <pt x="369" y="647" on="1"/>
        <pt x="323" y="647" on="0"/>
        <pt x="261" y="602" on="0"/>
        <pt x="224" y="523" on="0"/>
        <pt x="209" y="414" on="0"/>
      </contour>
    </TTGlyph>
    <TTGlyph name="R" xMin="20" yMin="0" xMax="687" yMax="708">
      <contour>
        <pt x="252" y="67" on="1"/>
        <pt x="275" y="62" on="0"/>
        <pt x="311" y="46" on="0"/>
        <pt x="328" y="38" on="1"/>
        <pt x="328" y="0" on="1"/>
        <pt x="20" y="0" on="1"/>
        <pt x="20" y="38" on="1"/>
        <pt x="42" y="50" on="0"/>
        <pt x="82" y="63" on="0"/>
        <pt x="102" y="67" on="1"/>
        <pt x="102" y="633" on="1"/>
        <pt x="52" y="644" on="0"/>
        <pt x="20" y="662" on="1"/>
        <pt x="20" y="700" on="1"/>
        <pt x="126" y="700" on="1"/>
        <pt x="146" y="700" on="0"/>
        <pt x="197" y="702" on="0"/>
        <pt x="253" y="705" on="0"/>
        <pt x="311" y="708" on="0"/>
        <pt x="338" y="708" on="1"/>
        <pt x="393" y="708" on="0"/>
        <pt x="486" y="683" on="0"/>
        <pt x="553" y="633" on="0"/>
        <pt x="590" y="558" on="0"/>
        <pt x="590" y="508" on="1"/>
        <pt x="590" y="436" on="0"/>
        <pt x="520" y="344" on="0"/>
        <pt x="459" y="321" on="1"/>
        <pt x="499" y="258" on="0"/>
        <pt x="589" y="127" on="0"/>
        <pt x="639" y="66" on="1"/>
        <pt x="687" y="34" on="1"/>
        <pt x="687" y="0" on="1"/>
        <pt x="520" y="0" on="1"/>
        <pt x="477" y="33" on="1"/>
        <pt x="431" y="88" on="0"/>
        <pt x="360" y="233" on="0"/>
        <pt x="333" y="303" on="1"/>
        <pt x="252" y="303" on="1"/>
      </contour>
      <contour>
        <pt x="302" y="643" on="1"/>
        <pt x="271" y="643" on="0"/>
        <pt x="252" y="637" on="1"/>
        <pt x="252" y="358" on="1"/>
        <pt x="311" y="358" on="1"/>
        <pt x="362" y="358" on="0"/>
        <pt x="434" y="431" on="0"/>
        <pt x="434" y="503" on="1"/>
        <pt x="434" y="540" on="0"/>
        <pt x="414" y="593" on="0"/>
        <pt x="378" y="627" on="0"/>
        <pt x="330" y="643" on="0"/>
      </contour>
    </TTGlyph>
    <TTGlyph name="S" xMin="42" yMin="-12" xMax="519" yMax="712">
      <contour>
        <pt x="157" y="83" on="1"/>
        <pt x="168" y="72" on="0"/>
        <pt x="208" y="53" on="0"/>
        <pt x="241" y="53" on="1"/>
        <pt x="296" y="53" on="0"/>
        <pt x="369" y="110" on="0"/>
        <pt x="369" y="161" on="1"/>
        <pt x="369" y="198" on="0"/>
        <pt x="322" y="248" on="0"/>
        <pt x="250" y="290" on="0"/>
        <pt x="168" y="331" on="0"/>
        <pt x="96" y="387" on="0"/>
        <pt x="49" y="464" on="0"/>
        <pt x="49" y="521" on="1"/>
        <pt x="49" y="570" on="0"/>
        <pt x="85" y="642" on="0"/>
        <pt x="148" y="689" on="0"/>
        <pt x="234" y="712" on="0"/>
        <pt x="284" y="712" on="1"/>
        <pt x="345" y="712" on="0"/>
        <pt x="450" y="695" on="0"/>
        <pt x="492" y="677" on="1"/>
        <pt x="491" y="657" on="0"/>
        <pt x="486" y="605" on="0"/>
        <pt x="478" y="554" on="0"/>
        <pt x="469" y="509" on="0"/>
        <pt x="465" y="494" on="1"/>
        <pt x="424" y="494" on="1"/>
        <pt x="378" y="631" on="1"/>
        <pt x="366" y="637" on="0"/>
        <pt x="319" y="647" on="0"/>
        <pt x="294" y="647" on="1"/>
        <pt x="252" y="647" on="0"/>
        <pt x="194" y="603" on="0"/>
        <pt x="194" y="561" on="1"/>
        <pt x="194" y="523" on="0"/>
        <pt x="242" y="470" on="0"/>
        <pt x="314" y="426" on="0"/>
        <pt x="399" y="383" on="0"/>
        <pt x="471" y="327" on="0"/>
        <pt x="519" y="252" on="0"/>
        <pt x="519" y="197" on="1"/>
        <pt x="519" y="97" on="0"/>
        <pt x="384" y="-12" on="0"/>
        <pt x="253" y="-12" on="1"/>
        <pt x="221" y="-12" on="0"/>
        <pt x="156" y="-4" on="0"/>
        <pt x="98" y="10" on="0"/>
        <pt x="53" y="26" on="0"/>
        <pt x="42" y="35" on="1"/>
        <pt x="43" y="58" on="0"/>
        <pt x="51" y="111" on="0"/>
        <pt x="60" y="164" on="0"/>
        <pt x="70" y="212" on="0"/>
        <pt x="75" y="230" on="1"/>
        <pt x="116" y="230" on="1"/>
      </contour>
    </TTGlyph>
    <TTGlyph name="T" xMin="15" yMin="0" xMax="652" yMax="700">
      <contour>
        <pt x="505" y="0" on="1"/>
        <pt x="161" y="0" on="1"/>
        <pt x="161" y="38" on="1"/>
        <pt x="181" y="46" on="0"/>
        <pt x="232" y="63" on="0"/>
        <pt x="258" y="67" on="1"/>
        <pt x="258" y="635" on="1"/>
        <pt x="142" y="635" on="1"/>
        <pt x="78" y="464" on="1"/>
        <pt x="37" y="464" on="1"/>
        <pt x="33" y="484" on="0"/>
        <pt x="25" y="546" on="0"/>
        <pt x="19" y="612" on="0"/>
        <pt x="15" y="677" on="0"/>
        <pt x="15" y="700" on="1"/>
        <pt x="652" y="700" on="1"/>
        <pt x="652" y="676" on="0"/>
        <pt x="648" y="612" on="0"/>
        <pt x="642" y="546" on="0"/>
        <pt x="634" y="485" on="0"/>
        <pt x="630" y="464" on="1"/>
        <pt x="588" y="464" on="1"/>
        <pt x="524" y="635" on="1"/>
        <pt x="408" y="635" on="1"/>
        <pt x="408" y="67" on="1"/>
        <pt x="434" y="62" on="0"/>
        <pt x="485" y="48" on="0"/>
        <pt x="505" y="38" on="1"/>
      </contour>
    </TTGlyph>
    <TTGlyph name="Thorn" xMin="20" yMin="0" xMax="608" yMax="700">
      <contour>
        <pt x="252" y="63" on="1"/>
        <pt x="279" y="60" on="0"/>
        <pt x="332" y="43" on="0"/>
        <pt x="353" y="33" on="1"/>
        <pt x="353" y="0" on="1"/>
        <pt x="20" y="0" on="1"/>
        <pt x="20" y="33" on="1"/>
        <pt x="39" y="44" on="0"/>
        <pt x="82" y="58" on="0"/>
        <pt x="102" y="62" on="1"/>
        <pt x="102" y="638" on="1"/>
        <pt x="82" y="641" on="0"/>
        <pt x="38" y="657" on="0"/>
        <pt x="21" y="667" on="1"/>
        <pt x="21" y="700" on="1"/>
        <pt x="333" y="700" on="1"/>
        <pt x="333" y="667" on="1"/>
        <pt x="315" y="656" on="0"/>
        <pt x="272" y="641" on="0"/>
        <pt x="252" y="638" on="1"/>
        <pt x="252" y="593" on="1"/>
        <pt x="272" y="595" on="0"/>
        <pt x="320" y="598" on="0"/>
        <pt x="339" y="598" on="1"/>
        <pt x="392" y="598" on="0"/>
        <pt x="489" y="577" on="0"/>
        <pt x="564" y="529" on="0"/>
        <pt x="608" y="450" on="0"/>
        <pt x="608" y="391" on="1"/>
        <pt x="608" y="335" on="0"/>
        <pt x="563" y="253" on="0"/>
        <pt x="486" y="199" on="0"/>
        <pt x="386" y="172" on="0"/>
        <pt x="332" y="172" on="1"/>
        <pt x="327" y="172" on="0"/>
        <pt x="305" y="172" on="0"/>
        <pt x="280" y="173" on="0"/>
        <pt x="257" y="174" on="0"/>
        <pt x="252" y="175" on="1"/>
      </contour>
      <contour>
        <pt x="306" y="533" on="1"/>
        <pt x="286" y="533" on="0"/>
        <pt x="263" y="530" on="0"/>
        <pt x="252" y="527" on="1"/>
        <pt x="252" y="241" on="1"/>
        <pt x="261" y="238" on="0"/>
        <pt x="297" y="237" on="0"/>
        <pt x="308" y="237" on="1"/>
        <pt x="335" y="237" on="0"/>
        <pt x="383" y="254" on="0"/>
        <pt x="421" y="290" on="0"/>
        <pt x="443" y="346" on="0"/>
        <pt x="443" y="386" on="1"/>
        <pt x="443" y="461" on="0"/>
        <pt x="370" y="533" on="0"/>
      </contour>
    </TTGlyph>
    <TTGlyph name="U" xMin="7" yMin="-9" xMax="710" yMax="700">
      <contour>
        <pt x="7" y="700" on="1"/>
        <pt x="315" y="700" on="1"/>
        <pt x="315" y="662" on="1"/>
        <pt x="282" y="641" on="0"/>
        <pt x="239" y="633" on="1"/>
        <pt x="239" y="248" on="1"/>
        <pt x="239" y="199" on="0"/>
        <pt x="261" y="133" on="0"/>
        <pt x="303" y="92" on="0"/>
        <pt x="362" y="74" on="0"/>
        <pt x="399" y="74" on="1"/>
        <pt x="432" y="74" on="0"/>
        <pt x="487" y="93" on="0"/>
        <pt x="528" y="135" on="0"/>
        <pt x="550" y="203" on="0"/>
        <pt x="550" y="253" on="1"/>
        <pt x="550" y="628" on="1"/>
        <pt x="527" y="633" on="0"/>
        <pt x="478" y="651" on="0"/>
        <pt x="462" y="662" on="1"/>
        <pt x="462" y="700" on="1"/>
        <pt x="710" y="700" on="1"/>
        <pt x="710" y="662" on="1"/>
        <pt x="692" y="649" on="0"/>
        <pt x="648" y="633" on="0"/>
        <pt x="627" y="628" on="1"/>
        <pt x="627" y="252" on="1"/>
        <pt x="627" y="124" on="0"/>
        <pt x="492" y="-9" on="0"/>
        <pt x="369" y="-9" on="1"/>
        <pt x="235" y="-9" on="0"/>
        <pt x="89" y="111" on="0"/>
        <pt x="89" y="243" on="1"/>
        <pt x="89" y="633" on="1"/>
        <pt x="69" y="636" on="0"/>
        <pt x="25" y="651" on="0"/>
        <pt x="7" y="662" on="1"/>
      </contour>
    </TTGlyph>
    <TTGlyph name="Uacute" xMin="7" yMin="-9" xMax="710" yMax="899">
      <component glyphName="U" x="0" y="0" flags="0x204"/>
      <component glyphName="uniF6C9" x="297" y="0" flags="0x4"/>
    </TTGlyph>
    <TTGlyph name="Ucircumflex" xMin="7" yMin="-9" xMax="710" yMax="893">
      <component glyphName="U" x="0" y="0" flags="0x204"/>
      <component glyphName="uniF408" x="175" y="0" flags="0x4"/>
    </TTGlyph>
    <TTGlyph name="Udieresis" xMin="7" yMin="-9" xMax="710" yMax="857">
      <component glyphName="U" x="0" y="0" flags="0x204"/>
      <component glyphName="uniF6CB" x="126" y="0" flags="0x4"/>
    </TTGlyph>
    <TTGlyph name="Ugrave" xMin="7" yMin="-9" xMax="710" yMax="901">
      <component glyphName="U" x="0" y="0" flags="0x204"/>
      <component glyphName="uniF6CE" x="122" y="0" flags="0x4"/>
    </TTGlyph>
    <TTGlyph name="V" xMin="0" yMin="-12" xMax="734" yMax="700">
      <contour>
        <pt x="564" y="633" on="1"/>
        <pt x="540" y="638" on="0"/>
        <pt x="497" y="654" on="0"/>
        <pt x="480" y="662" on="1"/>
        <pt x="480" y="700" on="1"/>
        <pt x="734" y="700" on="1"/>
        <pt x="734" y="662" on="1"/>
        <pt x="722" y="654" on="0"/>
        <pt x="683" y="638" on="0"/>
        <pt x="662" y="633" on="1"/>
        <pt x="432" y="0" on="1"/>
        <pt x="333" y="-12" on="1"/>
        <pt x="75" y="633" on="1"/>
        <pt x="55" y="638" on="0"/>
        <pt x="15" y="653" on="0"/>
        <pt x="0" y="662" on="1"/>
        <pt x="0" y="700" on="1"/>
        <pt x="333" y="700" on="1"/>
        <pt x="333" y="662" on="1"/>
        <pt x="316" y="654" on="0"/>
        <pt x="274" y="638" on="0"/>
        <pt x="251" y="633" on="1"/>
        <pt x="391" y="239" on="1"/>
        <pt x="414" y="145" on="1"/>
        <pt x="416" y="145" on="1"/>
        <pt x="438" y="241" on="1"/>
      </contour>
    </TTGlyph>
    <TTGlyph name="W" xMin="0" yMin="-12" xMax="1033" yMax="700">
      <contour>
        <pt x="865" y="633" on="1"/>
        <pt x="825" y="639" on="0"/>
        <pt x="781" y="662" on="1"/>
        <pt x="781" y="700" on="1"/>
        <pt x="1033" y="700" on="1"/>
        <pt x="1033" y="662" on="1"/>
        <pt x="1016" y="651" on="0"/>
        <pt x="978" y="637" on="0"/>
        <pt x="960" y="633" on="1"/>
        <pt x="783" y="0" on="1"/>
        <pt x="679" y="-12" on="1"/>
        <pt x="524" y="472" on="1"/>
        <pt x="373" y="0" on="1"/>
        <pt x="268" y="-12" on="1"/>
        <pt x="73" y="633" on="1"/>
        <pt x="52" y="637" on="0"/>
        <pt x="16" y="652" on="0"/>
        <pt x="0" y="662" on="1"/>
        <pt x="0" y="700" on="1"/>
        <pt x="324" y="700" on="1"/>
        <pt x="324" y="662" on="1"/>
        <pt x="307" y="653" on="0"/>
        <pt x="264" y="638" on="0"/>
        <pt x="241" y="633" on="1"/>
        <pt x="334" y="280" on="1"/>
        <pt x="355" y="150" on="1"/>
        <pt x="357" y="150" on="1"/>
        <pt x="392" y="285" on="1"/>
        <pt x="525" y="700" on="1"/>
        <pt x="584" y="700" on="1"/>
        <pt x="726" y="290" on="1"/>
        <pt x="760" y="160" on="1"/>
        <pt x="762" y="160" on="1"/>
        <pt x="785" y="292" on="1"/>
      </contour>
    </TTGlyph>
    <TTGlyph name="X" xMin="12" yMin="0" xMax="721" yMax="700">
      <contour>
        <pt x="435" y="700" on="1"/>
        <pt x="683" y="700" on="1"/>
        <pt x="683" y="662" on="1"/>
        <pt x="668" y="654" on="0"/>
        <pt x="635" y="638" on="0"/>
        <pt x="615" y="633" on="1"/>
        <pt x="437" y="372" on="1"/>
        <pt x="644" y="67" on="1"/>
        <pt x="667" y="62" on="0"/>
        <pt x="704" y="47" on="0"/>
        <pt x="721" y="38" on="1"/>
        <pt x="721" y="0" on="1"/>
        <pt x="397" y="0" on="1"/>
        <pt x="397" y="38" on="1"/>
        <pt x="413" y="47" on="0"/>
        <pt x="448" y="62" on="0"/>
        <pt x="468" y="67" on="1"/>
        <pt x="326" y="287" on="1"/>
        <pt x="194" y="66" on="1"/>
        <pt x="215" y="63" on="0"/>
        <pt x="251" y="49" on="0"/>
        <pt x="268" y="38" on="1"/>
        <pt x="268" y="0" on="1"/>
        <pt x="12" y="0" on="1"/>
        <pt x="12" y="38" on="1"/>
        <pt x="45" y="58" on="0"/>
        <pt x="80" y="67" on="1"/>
        <pt x="281" y="352" on="1"/>
        <pt x="93" y="633" on="1"/>
        <pt x="74" y="638" on="0"/>
        <pt x="40" y="654" on="0"/>
        <pt x="24" y="662" on="1"/>
        <pt x="24" y="700" on="1"/>
        <pt x="341" y="700" on="1"/>
        <pt x="341" y="662" on="1"/>
        <pt x="329" y="655" on="0"/>
        <pt x="293" y="640" on="0"/>
        <pt x="269" y="633" on="1"/>
        <pt x="391" y="432" on="1"/>
        <pt x="511" y="633" on="1"/>
        <pt x="491" y="637" on="0"/>
        <pt x="451" y="654" on="0"/>
        <pt x="435" y="662" on="1"/>
      </contour>
    </TTGlyph>
    <TTGlyph name="Y" xMin="0" yMin="0" xMax="698" yMax="700">
      <contour>
        <pt x="453" y="700" on="1"/>
        <pt x="698" y="700" on="1"/>
        <pt x="698" y="662" on="1"/>
        <pt x="683" y="653" on="0"/>
        <pt x="646" y="636" on="0"/>
        <pt x="627" y="633" on="1"/>
        <pt x="433" y="293" on="1"/>
        <pt x="433" y="67" on="1"/>
        <pt x="453" y="65" on="0"/>
        <pt x="492" y="48" on="0"/>
        <pt x="509" y="38" on="1"/>
        <pt x="509" y="0" on="1"/>
        <pt x="201" y="0" on="1"/>
        <pt x="201" y="38" on="1"/>
        <pt x="218" y="47" on="0"/>
        <pt x="260" y="63" on="0"/>
        <pt x="283" y="67" on="1"/>
        <pt x="283" y="292" on="1"/>
        <pt x="81" y="633" on="1"/>
        <pt x="58" y="637" on="0"/>
        <pt x="17" y="653" on="0"/>
        <pt x="0" y="662" on="1"/>
        <pt x="0" y="700" on="1"/>
        <pt x="328" y="700" on="1"/>
        <pt x="328" y="662" on="1"/>
        <pt x="314" y="654" on="0"/>
        <pt x="278" y="638" on="0"/>
        <pt x="254" y="633" on="1"/>
        <pt x="397" y="365" on="1"/>
        <pt x="533" y="633" on="1"/>
        <pt x="510" y="638" on="0"/>
        <pt x="468" y="654" on="0"/>
        <pt x="453" y="662" on="1"/>
      </contour>
    </TTGlyph>
    <TTGlyph name="Yacute" xMin="0" yMin="0" xMax="698" yMax="899">
      <component glyphName="Y" x="0" y="0" flags="0x204"/>
      <component glyphName="uniF6C9" x="292" y="0" flags="0x4"/>
    </TTGlyph>
    <TTGlyph name="Z" xMin="35" yMin="0" xMax="599" yMax="700">
      <contour>
        <pt x="537" y="211" on="1"/>
        <pt x="579" y="211" on="1"/>
        <pt x="583" y="190" on="0"/>
        <pt x="590" y="137" on="0"/>
        <pt x="596" y="80" on="0"/>
        <pt x="599" y="24" on="0"/>
        <pt x="599" y="0" on="1"/>
        <pt x="35" y="0" on="1"/>
        <pt x="35" y="65" on="1"/>
        <pt x="423" y="635" on="1"/>
        <pt x="175" y="635" on="1"/>
        <pt x="116" y="492" on="1"/>
        <pt x="74" y="492" on="1"/>
        <pt x="69" y="514" on="0"/>
        <pt x="61" y="570" on="0"/>
        <pt x="55" y="627" on="0"/>
        <pt x="53" y="680" on="0"/>
        <pt x="53" y="700" on="1"/>
        <pt x="587" y="700" on="1"/>
        <pt x="587" y="635" on="1"/>
        <pt x="201" y="65" on="1"/>
        <pt x="475" y="65" on="1"/>
      </contour>
    </TTGlyph>
    <TTGlyph name="a" xMin="27" yMin="-12" xMax="542" yMax="512">
      <contour>
        <pt x="470" y="145" on="1"/>
        <pt x="470" y="123" on="0"/>
        <pt x="471" y="91" on="0"/>
        <pt x="473" y="73" on="1"/>
        <pt x="542" y="63" on="1"/>
        <pt x="542" y="28" on="1"/>
        <pt x="530" y="22" on="0"/>
        <pt x="489" y="10" on="0"/>
        <pt x="444" y="-1" on="0"/>
        <pt x="400" y="-8" on="0"/>
        <pt x="383" y="-10" on="1"/>
        <pt x="349" y="-10" on="1"/>
        <pt x="339" y="13" on="0"/>
        <pt x="335" y="59" on="0"/>
        <pt x="334" y="92" on="1"/>
        <pt x="329" y="92" on="1"/>
        <pt x="324" y="72" on="0"/>
        <pt x="300" y="35" on="0"/>
        <pt x="263" y="6" on="0"/>
        <pt x="213" y="-12" on="0"/>
        <pt x="182" y="-12" on="1"/>
        <pt x="149" y="-12" on="0"/>
        <pt x="93" y="8" on="0"/>
        <pt x="51" y="44" on="0"/>
        <pt x="27" y="95" on="0"/>
        <pt x="27" y="127" on="1"/>
        <pt x="27" y="172" on="0"/>
        <pt x="61" y="230" on="0"/>
        <pt x="134" y="267" on="0"/>
        <pt x="249" y="285" on="0"/>
        <pt x="331" y="289" on="1"/>
        <pt x="339" y="375" on="0"/>
        <pt x="309" y="455" on="0"/>
        <pt x="259" y="455" on="1"/>
        <pt x="228" y="455" on="0"/>
        <pt x="202" y="445" on="1"/>
        <pt x="155" y="325" on="1"/>
        <pt x="111" y="325" on="1"/>
        <pt x="103" y="337" on="0"/>
        <pt x="88" y="368" on="0"/>
        <pt x="75" y="403" on="0"/>
        <pt x="66" y="439" on="0"/>
        <pt x="64" y="456" on="1"/>
        <pt x="102" y="482" on="0"/>
        <pt x="222" y="512" on="0"/>
        <pt x="289" y="512" on="1"/>
        <pt x="346" y="512" on="0"/>
        <pt x="418" y="487" on="0"/>
        <pt x="459" y="444" on="0"/>
        <pt x="475" y="386" on="0"/>
        <pt x="475" y="353" on="1"/>
        <pt x="475" y="293" on="0"/>
        <pt x="470" y="196" on="0"/>
      </contour>
      <contour>
        <pt x="245" y="68" on="1"/>
        <pt x="266" y="68" on="0"/>
        <pt x="296" y="84" on="0"/>
        <pt x="317" y="106" on="0"/>
        <pt x="328" y="132" on="0"/>
        <pt x="331" y="142" on="1"/>
        <pt x="331" y="242" on="1"/>
        <pt x="284" y="241" on="0"/>
        <pt x="224" y="231" on="0"/>
        <pt x="190" y="208" on="0"/>
        <pt x="177" y="173" on="0"/>
        <pt x="177" y="148" on="1"/>
        <pt x="177" y="110" on="0"/>
        <pt x="213" y="68" on="0"/>
      </contour>
    </TTGlyph>
    <TTGlyph name="aacute" xMin="27" yMin="-12" xMax="542" yMax="765">
      <component glyphName="a" x="0" y="0" flags="0x204"/>
      <component glyphName="acute" x="148" y="0" flags="0x4"/>
    </TTGlyph>
    <TTGlyph name="acircumflex" xMin="27" yMin="-12" xMax="542" yMax="794">
      <component glyphName="a" x="0" y="0" flags="0x204"/>
      <component glyphName="circumflex" x="84" y="0" flags="0x4"/>
    </TTGlyph>
    <TTGlyph name="acute" xMin="60" yMin="562" xMax="291" yMax="765">
      <contour>
        <pt x="168" y="763" on="1"/>
        <pt x="176" y="765" on="0"/>
        <pt x="213" y="764" on="0"/>
        <pt x="253" y="758" on="0"/>
        <pt x="286" y="747" on="0"/>
        <pt x="291" y="741" on="1"/>
        <pt x="291" y="717" on="1"/>
        <pt x="100" y="562" on="1"/>
        <pt x="60" y="584" on="1"/>
      </contour>
    </TTGlyph>
    <TTGlyph name="adieresis" xMin="27" yMin="-12" xMax="542" yMax="729">
      <component glyphName="a" x="0" y="0" flags="0x204"/>
      <component glyphName="dieresis" x="14" y="0" flags="0x4"/>
    </TTGlyph>
    <TTGlyph name="ae" xMin="27" yMin="-12" xMax="792" yMax="512">
      <component glyphName="uni04D5" x="0" y="0" flags="0x204"/>
    </TTGlyph>
    <TTGlyph name="agrave" xMin="27" yMin="-12" xMax="542" yMax="765">
      <component glyphName="a" x="0" y="0" flags="0x204"/>
      <component glyphName="grave" x="63" y="0" flags="0x4"/>
    </TTGlyph>
    <TTGlyph name="ampersand" xMin="105" yMin="-12" xMax="850" yMax="712">
      <contour>
        <pt x="529" y="116" on="1"/>
        <pt x="497" y="143" on="0"/>
        <pt x="431" y="213" on="0"/>
        <pt x="372" y="285" on="0"/>
        <pt x="324" y="353" on="0"/>
        <pt x="310" y="377" on="1"/>
        <pt x="281" y="341" on="0"/>
        <pt x="255" y="276" on="0"/>
        <pt x="255" y="232" on="1"/>
        <pt x="255" y="195" on="0"/>
        <pt x="279" y="133" on="0"/>
        <pt x="322" y="88" on="0"/>
        <pt x="380" y="63" on="0"/>
        <pt x="414" y="63" on="1"/>
        <pt x="444" y="63" on="0"/>
        <pt x="507" y="88" on="0"/>
      </contour>
      <contour>
        <pt x="324" y="582" on="1"/>
        <pt x="324" y="567" on="0"/>
        <pt x="336" y="531" on="0"/>
        <pt x="355" y="495" on="0"/>
        <pt x="378" y="461" on="0"/>
        <pt x="389" y="448" on="1"/>
        <pt x="423" y="474" on="0"/>
        <pt x="455" y="548" on="0"/>
        <pt x="453" y="590" on="1"/>
        <pt x="451" y="618" on="0"/>
        <pt x="420" y="657" on="0"/>
        <pt x="388" y="657" on="1"/>
        <pt x="355" y="657" on="0"/>
        <pt x="324" y="611" on="0"/>
      </contour>
      <contour>
        <pt x="676" y="0" on="1"/>
        <pt x="656" y="12" on="0"/>
        <pt x="602" y="45" on="0"/>
        <pt x="576" y="71" on="1"/>
        <pt x="545" y="39" on="0"/>
        <pt x="433" y="-12" on="0"/>
        <pt x="361" y="-12" on="1"/>
        <pt x="294" y="-12" on="0"/>
        <pt x="197" y="25" on="0"/>
        <pt x="135" y="84" on="0"/>
        <pt x="105" y="158" on="0"/>
        <pt x="105" y="196" on="1"/>
        <pt x="105" y="242" on="0"/>
        <pt x="140" y="319" on="0"/>
        <pt x="190" y="379" on="0"/>
        <pt x="247" y="422" on="0"/>
        <pt x="268" y="434" on="1"/>
        <pt x="243" y="461" on="0"/>
        <pt x="207" y="537" on="0"/>
        <pt x="207" y="574" on="1"/>
        <pt x="207" y="599" on="0"/>
        <pt x="228" y="649" on="0"/>
        <pt x="271" y="688" on="0"/>
        <pt x="334" y="712" on="0"/>
        <pt x="376" y="712" on="1"/>
        <pt x="448" y="712" on="0"/>
        <pt x="538" y="648" on="0"/>
        <pt x="538" y="588" on="1"/>
        <pt x="538" y="559" on="0"/>
        <pt x="518" y="507" on="0"/>
        <pt x="485" y="461" on="0"/>
        <pt x="442" y="420" on="0"/>
        <pt x="418" y="403" on="1"/>
        <pt x="487" y="308" on="0"/>
        <pt x="607" y="201" on="1"/>
        <pt x="615" y="212" on="0"/>
        <pt x="635" y="264" on="0"/>
        <pt x="649" y="330" on="0"/>
        <pt x="653" y="404" on="0"/>
        <pt x="645" y="437" on="1"/>
        <pt x="629" y="440" on="0"/>
        <pt x="605" y="452" on="0"/>
        <pt x="592" y="461" on="1"/>
        <pt x="592" y="500" on="1"/>
        <pt x="820" y="500" on="1"/>
        <pt x="820" y="461" on="1"/>
        <pt x="793" y="444" on="0"/>
        <pt x="754" y="437" on="1"/>
        <pt x="749" y="394" on="0"/>
        <pt x="729" y="310" on="0"/>
        <pt x="702" y="236" on="0"/>
        <pt x="672" y="178" on="0"/>
        <pt x="657" y="162" on="1"/>
        <pt x="692" y="131" on="0"/>
        <pt x="764" y="83" on="0"/>
        <pt x="799" y="63" on="1"/>
        <pt x="850" y="39" on="1"/>
        <pt x="850" y="0" on="1"/>
      </contour>
    </TTGlyph>
    <TTGlyph name="aring" xMin="27" yMin="-12" xMax="542" yMax="780">
      <component glyphName="a" x="0" y="0" flags="0x204"/>
      <component glyphName="ring" x="94" y="0" flags="0x4"/>
    </TTGlyph>
    <TTGlyph name="asciicircum" xMin="43" yMin="434" xMax="445" yMax="711">
      <contour>
        <pt x="229" y="711" on="1"/>
        <pt x="275" y="711" on="1"/>
        <pt x="445" y="434" on="1"/>
        <pt x="325" y="434" on="1"/>
        <pt x="246" y="569" on="1"/>
        <pt x="228" y="622" on="1"/>
        <pt x="203" y="568" on="1"/>
        <pt x="113" y="434" on="1"/>
        <pt x="43" y="434" on="1"/>
      </contour>
    </TTGlyph>
    <TTGlyph name="asciitilde" xMin="46" yMin="272" xMax="481" yMax="431">
      <contour>
        <pt x="46" y="312" on="1"/>
        <pt x="73" y="370" on="0"/>
        <pt x="153" y="431" on="0"/>
        <pt x="190" y="431" on="1"/>
        <pt x="215" y="431" on="0"/>
        <pt x="263" y="410" on="0"/>
        <pt x="309" y="384" on="0"/>
        <pt x="356" y="363" on="0"/>
        <pt x="381" y="363" on="1"/>
        <pt x="399" y="363" on="0"/>
        <pt x="438" y="378" on="0"/>
        <pt x="458" y="397" on="1"/>
        <pt x="481" y="367" on="1"/>
        <pt x="458" y="319" on="0"/>
        <pt x="392" y="272" on="0"/>
        <pt x="358" y="272" on="1"/>
        <pt x="332" y="272" on="0"/>
        <pt x="283" y="293" on="0"/>
        <pt x="235" y="319" on="0"/>
        <pt x="187" y="340" on="0"/>
        <pt x="163" y="340" on="1"/>
        <pt x="141" y="340" on="0"/>
        <pt x="96" y="316" on="0"/>
        <pt x="73" y="285" on="1"/>
      </contour>
    </TTGlyph>
    <TTGlyph name="asterisk" xMin="52" yMin="377" xMax="411" yMax="750">
      <contour>
        <pt x="58" y="597" on="1"/>
        <pt x="52" y="605" on="0"/>
        <pt x="59" y="638" on="0"/>
        <pt x="77" y="671" on="0"/>
        <pt x="103" y="696" on="0"/>
        <pt x="115" y="697" on="1"/>
        <pt x="206" y="591" on="1"/>
        <pt x="206" y="576" on="0"/>
        <pt x="193" y="569" on="1"/>
      </contour>
      <contour>
        <pt x="118" y="429" on="1"/>
        <pt x="107" y="429" on="0"/>
        <pt x="82" y="454" on="0"/>
        <pt x="62" y="487" on="0"/>
        <pt x="52" y="521" on="0"/>
        <pt x="57" y="530" on="1"/>
        <pt x="192" y="556" on="1"/>
        <pt x="206" y="548" on="0"/>
        <pt x="206" y="535" on="1"/>
      </contour>
      <contour>
        <pt x="291" y="395" on="1"/>
        <pt x="287" y="387" on="0"/>
        <pt x="254" y="378" on="0"/>
        <pt x="216" y="377" on="0"/>
        <pt x="182" y="385" on="0"/>
        <pt x="177" y="393" on="1"/>
        <pt x="220" y="524" on="1"/>
        <pt x="234" y="532" on="0"/>
        <pt x="247" y="524" on="1"/>
      </contour>
      <contour>
        <pt x="405" y="530" on="1"/>
        <pt x="411" y="519" on="0"/>
        <pt x="404" y="485" on="0"/>
        <pt x="387" y="453" on="0"/>
        <pt x="362" y="430" on="0"/>
        <pt x="350" y="430" on="1"/>
        <pt x="262" y="533" on="1"/>
        <pt x="262" y="546" on="0"/>
        <pt x="274" y="554" on="1"/>
      </contour>
      <contour>
        <pt x="352" y="696" on="1"/>
        <pt x="364" y="697" on="0"/>
        <pt x="387" y="676" on="0"/>
        <pt x="403" y="645" on="0"/>
        <pt x="410" y="610" on="0"/>
        <pt x="407" y="598" on="1"/>
        <pt x="273" y="568" on="1"/>
        <pt x="261" y="577" on="0"/>
        <pt x="261" y="590" on="1"/>
      </contour>
      <contour>
        <pt x="177" y="731" on="1"/>
        <pt x="181" y="740" on="0"/>
        <pt x="213" y="750" on="0"/>
        <pt x="251" y="750" on="0"/>
        <pt x="284" y="741" on="0"/>
        <pt x="289" y="731" on="1"/>
        <pt x="246" y="600" on="1"/>
        <pt x="233" y="592" on="0"/>
        <pt x="220" y="600" on="1"/>
      </contour>
    </TTGlyph>
    <TTGlyph name="at" xMin="81" yMin="-180" xMax="987" yMax="712">
      <contour>
        <pt x="647" y="465" on="1"/>
        <pt x="671" y="476" on="0"/>
        <pt x="738" y="486" on="0"/>
        <pt x="772" y="485" on="1"/>
        <pt x="723" y="207" on="1"/>
        <pt x="711" y="143" on="0"/>
        <pt x="714" y="80" on="0"/>
        <pt x="742" y="80" on="1"/>
        <pt x="765" y="80" on="0"/>
        <pt x="824" y="110" on="0"/>
        <pt x="876" y="171" on="0"/>
        <pt x="912" y="264" on="0"/>
        <pt x="912" y="326" on="1"/>
        <pt x="912" y="402" on="0"/>
        <pt x="857" y="522" on="0"/>
        <pt x="760" y="604" on="0"/>
        <pt x="627" y="647" on="0"/>
        <pt x="550" y="647" on="1"/>
        <pt x="463" y="647" on="0"/>
        <pt x="318" y="586" on="0"/>
        <pt x="214" y="478" on="0"/>
        <pt x="156" y="329" on="0"/>
        <pt x="156" y="242" on="1"/>
        <pt x="156" y="153" on="0"/>
        <pt x="215" y="20" on="0"/>
        <pt x="319" y="-70" on="0"/>
        <pt x="462" y="-115" on="0"/>
        <pt x="546" y="-115" on="1"/>
        <pt x="575" y="-115" on="0"/>
        <pt x="649" y="-101" on="0"/>
        <pt x="679" y="-87" on="1"/>
        <pt x="695" y="-144" on="1"/>
        <pt x="660" y="-164" on="0"/>
        <pt x="576" y="-180" on="0"/>
        <pt x="525" y="-180" on="1"/>
        <pt x="436" y="-180" on="0"/>
        <pt x="275" y="-128" on="0"/>
        <pt x="153" y="-24" on="0"/>
        <pt x="81" y="132" on="0"/>
        <pt x="81" y="236" on="1"/>
        <pt x="81" y="345" on="0"/>
        <pt x="156" y="521" on="0"/>
        <pt x="285" y="645" on="0"/>
        <pt x="457" y="712" on="0"/>
        <pt x="555" y="712" on="1"/>
        <pt x="650" y="712" on="0"/>
        <pt x="809" y="659" on="0"/>
        <pt x="923" y="560" on="0"/>
        <pt x="987" y="417" on="0"/>
        <pt x="987" y="326" on="1"/>
        <pt x="987" y="256" on="0"/>
        <pt x="936" y="141" on="0"/>
        <pt x="854" y="58" on="0"/>
        <pt x="750" y="13" on="0"/>
        <pt x="697" y="13" on="1"/>
        <pt x="667" y="13" on="0"/>
        <pt x="623" y="28" on="0"/>
        <pt x="595" y="64" on="0"/>
        <pt x="586" y="122" on="0"/>
        <pt x="592" y="165" on="1"/>
        <pt x="588" y="165" on="1"/>
        <pt x="579" y="138" on="0"/>
        <pt x="544" y="83" on="0"/>
        <pt x="499" y="40" on="0"/>
        <pt x="445" y="13" on="0"/>
        <pt x="417" y="13" on="1"/>
        <pt x="349" y="13" on="0"/>
        <pt x="280" y="101" on="0"/>
        <pt x="280" y="169" on="1"/>
        <pt x="280" y="228" on="0"/>
        <pt x="319" y="344" on="0"/>
        <pt x="388" y="435" on="0"/>
        <pt x="484" y="492" on="0"/>
        <pt x="541" y="492" on="1"/>
        <pt x="576" y="492" on="0"/>
        <pt x="623" y="479" on="0"/>
      </contour>
      <contour>
        <pt x="627" y="415" on="1"/>
        <pt x="616" y="423" on="0"/>
        <pt x="592" y="431" on="0"/>
        <pt x="575" y="431" on="1"/>
        <pt x="541" y="431" on="0"/>
        <pt x="483" y="379" on="0"/>
        <pt x="441" y="299" on="0"/>
        <pt x="417" y="206" on="0"/>
        <pt x="417" y="166" on="1"/>
        <pt x="417" y="132" on="0"/>
        <pt x="441" y="93" on="0"/>
        <pt x="470" y="93" on="1"/>
        <pt x="487" y="93" on="0"/>
        <pt x="522" y="121" on="0"/>
        <pt x="555" y="166" on="0"/>
        <pt x="586" y="223" on="0"/>
        <pt x="599" y="251" on="1"/>
      </contour>
    </TTGlyph>
    <TTGlyph name="atilde" xMin="27" yMin="-12" xMax="542" yMax="726">
      <component glyphName="a" x="0" y="0" flags="0x204"/>
      <component glyphName="tilde" x="44" y="0" flags="0x4"/>
    </TTGlyph>
    <TTGlyph name="b" xMin="-9" yMin="-9" xMax="557" yMax="752">
      <contour>
        <pt x="67" y="669" on="1"/>
        <pt x="-9" y="677" on="1"/>
        <pt x="-9" y="716" on="1"/>
        <pt x="6" y="722" on="0"/>
        <pt x="55" y="734" on="0"/>
        <pt x="108" y="743" on="0"/>
        <pt x="159" y="750" on="0"/>
        <pt x="177" y="752" on="1"/>
        <pt x="211" y="752" on="1"/>
        <pt x="211" y="406" on="1"/>
        <pt x="213" y="406" on="1"/>
        <pt x="233" y="456" on="0"/>
        <pt x="315" y="512" on="0"/>
        <pt x="371" y="512" on="1"/>
        <pt x="459" y="512" on="0"/>
        <pt x="557" y="390" on="0"/>
        <pt x="557" y="266" on="1"/>
        <pt x="557" y="129" on="0"/>
        <pt x="412" y="-9" on="0"/>
        <pt x="272" y="-9" on="1"/>
        <pt x="247" y="-9" on="0"/>
        <pt x="185" y="-2" on="0"/>
        <pt x="127" y="8" on="0"/>
        <pt x="78" y="22" on="0"/>
        <pt x="67" y="29" on="1"/>
      </contour>
      <contour>
        <pt x="306" y="432" on="1"/>
        <pt x="268" y="432" on="0"/>
        <pt x="222" y="377" on="0"/>
        <pt x="211" y="335" on="1"/>
        <pt x="211" y="70" on="1"/>
        <pt x="225" y="60" on="0"/>
        <pt x="266" y="48" on="0"/>
        <pt x="292" y="48" on="1"/>
        <pt x="349" y="48" on="0"/>
        <pt x="402" y="150" on="0"/>
        <pt x="402" y="259" on="1"/>
        <pt x="402" y="338" on="0"/>
        <pt x="359" y="432" on="0"/>
      </contour>
    </TTGlyph>
    <TTGlyph name="backslash" xMin="-56" yMin="-134" xMax="416" yMax="715">
      <contour>
        <pt x="416" y="-104" on="1"/>
        <pt x="359" y="-134" on="1"/>
        <pt x="-56" y="686" on="1"/>
        <pt x="2" y="715" on="1"/>
      </contour>
    </TTGlyph>
    <TTGlyph name="bar" xMin="83" yMin="-130" xMax="153" yMax="700">
      <contour>
        <pt x="83" y="700" on="1"/>
        <pt x="153" y="700" on="1"/>
        <pt x="153" y="-130" on="1"/>
        <pt x="83" y="-130" on="1"/>
      </contour>
    </TTGlyph>
    <TTGlyph name="braceleft" xMin="43" yMin="-230" xMax="340" yMax="700">
      <contour>
        <pt x="123" y="102" on="1"/>
        <pt x="123" y="153" on="0"/>
        <pt x="81" y="211" on="0"/>
        <pt x="43" y="211" on="1"/>
        <pt x="43" y="259" on="1"/>
        <pt x="81" y="259" on="0"/>
        <pt x="123" y="320" on="0"/>
        <pt x="123" y="364" on="1"/>
        <pt x="123" y="594" on="1"/>
        <pt x="123" y="642" on="0"/>
        <pt x="171" y="700" on="0"/>
        <pt x="219" y="700" on="1"/>
        <pt x="340" y="700" on="1"/>
        <pt x="340" y="645" on="1"/>
        <pt x="305" y="645" on="1"/>
        <pt x="278" y="645" on="0"/>
        <pt x="253" y="617" on="0"/>
        <pt x="253" y="585" on="1"/>
        <pt x="253" y="365" on="1"/>
        <pt x="253" y="332" on="0"/>
        <pt x="232" y="286" on="0"/>
        <pt x="199" y="257" on="0"/>
        <pt x="161" y="242" on="0"/>
        <pt x="143" y="240" on="1"/>
        <pt x="143" y="234" on="1"/>
        <pt x="160" y="232" on="0"/>
        <pt x="199" y="216" on="0"/>
        <pt x="232" y="184" on="0"/>
        <pt x="253" y="137" on="0"/>
        <pt x="253" y="105" on="1"/>
        <pt x="253" y="-115" on="1"/>
        <pt x="253" y="-146" on="0"/>
        <pt x="277" y="-175" on="0"/>
        <pt x="306" y="-175" on="1"/>
        <pt x="340" y="-175" on="1"/>
        <pt x="340" y="-230" on="1"/>
        <pt x="219" y="-230" on="1"/>
        <pt x="174" y="-230" on="0"/>
        <pt x="123" y="-177" on="0"/>
        <pt x="123" y="-125" on="1"/>
      </contour>
    </TTGlyph>
    <TTGlyph name="braceright" xMin="27" yMin="-230" xMax="324" yMax="700">
      <contour>
        <pt x="244" y="369" on="1"/>
        <pt x="244" y="318" on="0"/>
        <pt x="286" y="260" on="0"/>
        <pt x="324" y="260" on="1"/>
        <pt x="324" y="212" on="1"/>
        <pt x="286" y="212" on="0"/>
        <pt x="244" y="151" on="0"/>
        <pt x="244" y="107" on="1"/>
        <pt x="244" y="-124" on="1"/>
        <pt x="244" y="-172" on="0"/>
        <pt x="196" y="-230" on="0"/>
        <pt x="148" y="-230" on="1"/>
        <pt x="27" y="-230" on="1"/>
        <pt x="27" y="-175" on="1"/>
        <pt x="62" y="-175" on="1"/>
        <pt x="89" y="-175" on="0"/>
        <pt x="114" y="-147" on="0"/>
        <pt x="114" y="-115" on="1"/>
        <pt x="114" y="106" on="1"/>
        <pt x="114" y="139" on="0"/>
        <pt x="132" y="185" on="0"/>
        <pt x="161" y="214" on="0"/>
        <pt x="196" y="229" on="0"/>
        <pt x="214" y="231" on="1"/>
        <pt x="214" y="237" on="1"/>
        <pt x="197" y="239" on="0"/>
        <pt x="161" y="255" on="0"/>
        <pt x="132" y="287" on="0"/>
        <pt x="114" y="334" on="0"/>
        <pt x="114" y="366" on="1"/>
        <pt x="114" y="585" on="1"/>
        <pt x="114" y="616" on="0"/>
        <pt x="90" y="645" on="0"/>
        <pt x="61" y="645" on="1"/>
        <pt x="27" y="645" on="1"/>
        <pt x="27" y="700" on="1"/>
        <pt x="149" y="700" on="1"/>
        <pt x="194" y="700" on="0"/>
        <pt x="244" y="647" on="0"/>
        <pt x="244" y="595" on="1"/>
      </contour>
    </TTGlyph>
    <TTGlyph name="bracketleft" xMin="72" yMin="-230" xMax="306" yMax="700">
      <contour>
        <pt x="72" y="700" on="1"/>
        <pt x="306" y="700" on="1"/>
        <pt x="306" y="645" on="1"/>
        <pt x="202" y="645" on="1"/>
        <pt x="202" y="-175" on="1"/>
        <pt x="306" y="-175" on="1"/>
        <pt x="306" y="-230" on="1"/>
        <pt x="72" y="-230" on="1"/>
      </contour>
    </TTGlyph>
    <TTGlyph name="bracketright" xMin="18" yMin="-230" xMax="252" yMax="700">
      <contour>
        <pt x="252" y="-230" on="1"/>
        <pt x="18" y="-230" on="1"/>
        <pt x="18" y="-175" on="1"/>
        <pt x="122" y="-175" on="1"/>
        <pt x="122" y="645" on="1"/>
        <pt x="18" y="645" on="1"/>
        <pt x="18" y="700" on="1"/>
        <pt x="252" y="700" on="1"/>
      </contour>
    </TTGlyph>
    <TTGlyph name="brokenbar" xMin="83" yMin="-130" xMax="153" yMax="700">
      <contour>
        <pt x="83" y="190" on="1"/>
        <pt x="153" y="190" on="1"/>
        <pt x="153" y="-130" on="1"/>
        <pt x="83" y="-130" on="1"/>
      </contour>
      <contour>
        <pt x="153" y="380" on="1"/>
        <pt x="83" y="380" on="1"/>
        <pt x="83" y="700" on="1"/>
        <pt x="153" y="700" on="1"/>
      </contour>
    </TTGlyph>
    <TTGlyph name="bullet" xMin="88" yMin="156" xMax="398" yMax="466">
      <contour>
        <pt x="88" y="311" on="1"/>
        <pt x="88" y="345" on="0"/>
        <pt x="112" y="403" on="0"/>
        <pt x="154" y="443" on="0"/>
        <pt x="211" y="466" on="0"/>
        <pt x="243" y="466" on="1"/>
        <pt x="275" y="466" on="0"/>
        <pt x="332" y="445" on="0"/>
        <pt x="374" y="405" on="0"/>
        <pt x="398" y="347" on="0"/>
        <pt x="398" y="311" on="1"/>
        <pt x="398" y="275" on="0"/>
        <pt x="374" y="217" on="0"/>
        <pt x="332" y="177" on="0"/>
        <pt x="275" y="156" on="0"/>
        <pt x="243" y="156" on="1"/>
        <pt x="211" y="156" on="0"/>
        <pt x="154" y="177" on="0"/>
        <pt x="112" y="217" on="0"/>
        <pt x="88" y="275" on="0"/>
      </contour>
    </TTGlyph>
    <TTGlyph name="c" xMin="31" yMin="-12" xMax="456" yMax="512">
      <contour>
        <pt x="456" y="81" on="1"/>
        <pt x="449" y="61" on="0"/>
        <pt x="417" y="28" on="0"/>
        <pt x="372" y="2" on="0"/>
        <pt x="315" y="-12" on="0"/>
        <pt x="284" y="-12" on="1"/>
        <pt x="218" y="-12" on="0"/>
        <pt x="123" y="25" on="0"/>
        <pt x="61" y="94" on="0"/>
        <pt x="31" y="191" on="0"/>
        <pt x="31" y="250" on="1"/>
        <pt x="31" y="377" on="0"/>
        <pt x="170" y="512" on="0"/>
        <pt x="298" y="512" on="1"/>
        <pt x="347" y="512" on="0"/>
        <pt x="429" y="491" on="0"/>
        <pt x="456" y="477" on="1"/>
        <pt x="454" y="460" on="0"/>
        <pt x="447" y="419" on="0"/>
        <pt x="438" y="378" on="0"/>
        <pt x="426" y="339" on="0"/>
        <pt x="420" y="326" on="1"/>
        <pt x="371" y="326" on="1"/>
        <pt x="329" y="445" on="1"/>
        <pt x="322" y="450" on="0"/>
        <pt x="306" y="455" on="0"/>
        <pt x="290" y="455" on="1"/>
        <pt x="264" y="455" on="0"/>
        <pt x="226" y="436" on="0"/>
        <pt x="199" y="390" on="0"/>
        <pt x="186" y="314" on="0"/>
        <pt x="186" y="258" on="1"/>
        <pt x="186" y="217" on="0"/>
        <pt x="204" y="148" on="0"/>
        <pt x="241" y="97" on="0"/>
        <pt x="297" y="68" on="0"/>
        <pt x="335" y="68" on="1"/>
        <pt x="370" y="68" on="0"/>
        <pt x="422" y="88" on="0"/>
        <pt x="440" y="102" on="1"/>
      </contour>
    </TTGlyph>
    <TTGlyph name="ccedilla" xMin="31" yMin="-257" xMax="456" yMax="512">
      <contour>
        <pt x="456" y="81" on="1"/>
        <pt x="449" y="61" on="0"/>
        <pt x="416" y="28" on="0"/>
        <pt x="370" y="2" on="0"/>
        <pt x="313" y="-12" on="0"/>
        <pt x="282" y="-12" on="1"/>
        <pt x="261" y="-68" on="1"/>
        <pt x="321" y="-71" on="0"/>
        <pt x="384" y="-108" on="0"/>
        <pt x="385" y="-144" on="1"/>
        <pt x="385" y="-173" on="0"/>
        <pt x="351" y="-215" on="0"/>
        <pt x="295" y="-243" on="0"/>
        <pt x="225" y="-257" on="0"/>
        <pt x="190" y="-257" on="1"/>
        <pt x="190" y="-218" on="1"/>
        <pt x="260" y="-207" on="0"/>
        <pt x="260" y="-161" on="1"/>
        <pt x="259" y="-138" on="0"/>
        <pt x="222" y="-118" on="0"/>
        <pt x="187" y="-114" on="1"/>
        <pt x="225" y="-7" on="1"/>
        <pt x="124" y="8" on="0"/>
        <pt x="31" y="145" on="0"/>
        <pt x="31" y="250" on="1"/>
        <pt x="31" y="377" on="0"/>
        <pt x="170" y="512" on="0"/>
        <pt x="298" y="512" on="1"/>
        <pt x="347" y="512" on="0"/>
        <pt x="429" y="491" on="0"/>
        <pt x="456" y="477" on="1"/>
        <pt x="454" y="460" on="0"/>
        <pt x="447" y="419" on="0"/>
        <pt x="438" y="378" on="0"/>
        <pt x="426" y="339" on="0"/>
        <pt x="420" y="326" on="1"/>
        <pt x="371" y="326" on="1"/>
        <pt x="329" y="445" on="1"/>
        <pt x="322" y="450" on="0"/>
        <pt x="306" y="455" on="0"/>
        <pt x="290" y="455" on="1"/>
        <pt x="264" y="455" on="0"/>
        <pt x="226" y="436" on="0"/>
        <pt x="199" y="390" on="0"/>
        <pt x="186" y="314" on="0"/>
        <pt x="186" y="258" on="1"/>
        <pt x="186" y="217" on="0"/>
        <pt x="204" y="148" on="0"/>
        <pt x="241" y="97" on="0"/>
        <pt x="297" y="68" on="0"/>
        <pt x="335" y="68" on="1"/>
        <pt x="370" y="68" on="0"/>
        <pt x="422" y="88" on="0"/>
        <pt x="440" y="102" on="1"/>
      </contour>
    </TTGlyph>
    <TTGlyph name="cedilla" xMin="60" yMin="-257" xMax="258" yMax="1">
      <contour>
        <pt x="134" y="-68" on="1"/>
        <pt x="194" y="-71" on="0"/>
        <pt x="257" y="-108" on="0"/>
        <pt x="258" y="-144" on="1"/>
        <pt x="258" y="-173" on="0"/>
        <pt x="224" y="-215" on="0"/>
        <pt x="168" y="-243" on="0"/>
        <pt x="98" y="-257" on="0"/>
        <pt x="63" y="-257" on="1"/>
        <pt x="63" y="-218" on="1"/>
        <pt x="133" y="-207" on="0"/>
        <pt x="133" y="-161" on="1"/>
        <pt x="132" y="-138" on="0"/>
        <pt x="95" y="-118" on="0"/>
        <pt x="60" y="-114" on="1"/>
        <pt x="101" y="1" on="1"/>
        <pt x="160" y="1" on="1"/>
      </contour>
    </TTGlyph>
    <TTGlyph name="cent" xMin="56" yMin="-170" xMax="521" yMax="660">
      <contour>
        <pt x="521" y="81" on="1"/>
        <pt x="508" y="46" on="0"/>
        <pt x="430" y="-4" on="0"/>
        <pt x="376" y="-9" on="1"/>
        <pt x="376" y="-170" on="1"/>
        <pt x="299" y="-170" on="1"/>
        <pt x="299" y="-9" on="1"/>
        <pt x="178" y="4" on="0"/>
        <pt x="56" y="141" on="0"/>
        <pt x="56" y="250" on="1"/>
        <pt x="56" y="362" on="0"/>
        <pt x="181" y="493" on="0"/>
        <pt x="299" y="508" on="1"/>
        <pt x="299" y="660" on="1"/>
        <pt x="376" y="660" on="1"/>
        <pt x="376" y="511" on="1"/>
        <pt x="421" y="509" on="0"/>
        <pt x="495" y="490" on="0"/>
        <pt x="521" y="477" on="1"/>
        <pt x="519" y="460" on="0"/>
        <pt x="512" y="419" on="0"/>
        <pt x="503" y="378" on="0"/>
        <pt x="491" y="339" on="0"/>
        <pt x="485" y="326" on="1"/>
        <pt x="451" y="326" on="1"/>
        <pt x="415" y="445" on="1"/>
        <pt x="410" y="447" on="0"/>
        <pt x="399" y="452" on="0"/>
        <pt x="385" y="453" on="1"/>
        <pt x="369" y="454" on="1"/>
        <pt x="369" y="70" on="1"/>
        <pt x="377" y="68" on="0"/>
        <pt x="392" y="68" on="0"/>
        <pt x="400" y="68" on="1"/>
        <pt x="435" y="68" on="0"/>
        <pt x="487" y="88" on="0"/>
        <pt x="505" y="102" on="1"/>
      </contour>
      <contour>
        <pt x="211" y="258" on="1"/>
        <pt x="211" y="199" on="0"/>
        <pt x="256" y="108" on="0"/>
        <pt x="306" y="85" on="1"/>
        <pt x="306" y="446" on="1"/>
        <pt x="265" y="431" on="0"/>
        <pt x="211" y="343" on="0"/>
      </contour>
    </TTGlyph>
    <TTGlyph name="circumflex" xMin="60" yMin="577" xMax="336" yMax="794">
      <contour>
        <pt x="102" y="577" on="1"/>
        <pt x="60" y="602" on="1"/>
        <pt x="170" y="788" on="1"/>
        <pt x="176" y="793" on="0"/>
        <pt x="213" y="794" on="0"/>
        <pt x="222" y="788" on="1"/>
        <pt x="336" y="603" on="1"/>
        <pt x="295" y="577" on="1"/>
        <pt x="192" y="675" on="1"/>
      </contour>
    </TTGlyph>
    <TTGlyph name="colon" xMin="110" yMin="-8" xMax="280" yMax="509">
      <component glyphName="period" x="47" y="358" flags="0x4"/>
      <component glyphName="period" x="47" y="0" flags="0x4"/>
    </TTGlyph>
    <TTGlyph name="comma" xMin="53" yMin="-175" xMax="240" yMax="153">
      <contour>
        <pt x="53" y="-131" on="1"/>
        <pt x="73" y="-125" on="0"/>
        <pt x="105" y="-101" on="0"/>
        <pt x="128" y="-71" on="0"/>
        <pt x="140" y="-37" on="0"/>
        <pt x="139" y="-21" on="1"/>
        <pt x="125" y="-3" on="0"/>
        <pt x="86" y="19" on="0"/>
        <pt x="64" y="26" on="1"/>
        <pt x="59" y="47" on="0"/>
        <pt x="66" y="89" on="0"/>
        <pt x="86" y="125" on="0"/>
        <pt x="113" y="150" on="0"/>
        <pt x="128" y="153" on="1"/>
        <pt x="149" y="152" on="0"/>
        <pt x="189" y="135" on="0"/>
        <pt x="221" y="104" on="0"/>
        <pt x="240" y="56" on="0"/>
        <pt x="240" y="24" on="1"/>
        <pt x="240" y="-7" on="0"/>
        <pt x="215" y="-71" on="0"/>
        <pt x="172" y="-126" on="0"/>
        <pt x="112" y="-167" on="0"/>
        <pt x="76" y="-175" on="1"/>
      </contour>
    </TTGlyph>
    <TTGlyph name="copyright" xMin="55" yMin="-62" xMax="763" yMax="642">
      <contour>
        <pt x="55" y="290" on="1"/>
        <pt x="55" y="373" on="0"/>
        <pt x="114" y="504" on="0"/>
        <pt x="213" y="594" on="0"/>
        <pt x="340" y="642" on="0"/>
        <pt x="409" y="642" on="1"/>
        <pt x="478" y="642" on="0"/>
        <pt x="605" y="594" on="0"/>
        <pt x="704" y="504" on="0"/>
        <pt x="763" y="373" on="0"/>
        <pt x="763" y="290" on="1"/>
        <pt x="763" y="207" on="0"/>
        <pt x="704" y="76" on="0"/>
        <pt x="605" y="-14" on="0"/>
        <pt x="478" y="-62" on="0"/>
        <pt x="409" y="-62" on="1"/>
        <pt x="337" y="-62" on="0"/>
        <pt x="208" y="-14" on="0"/>
        <pt x="111" y="76" on="0"/>
        <pt x="55" y="207" on="0"/>
      </contour>
      <contour>
        <pt x="122" y="290" on="1"/>
        <pt x="122" y="223" on="0"/>
        <pt x="168" y="115" on="0"/>
        <pt x="246" y="40" on="0"/>
        <pt x="350" y="-1" on="0"/>
        <pt x="409" y="-1" on="1"/>
        <pt x="470" y="-1" on="0"/>
        <pt x="575" y="40" on="0"/>
        <pt x="652" y="115" on="0"/>
        <pt x="696" y="223" on="0"/>
        <pt x="696" y="290" on="1"/>
        <pt x="696" y="359" on="0"/>
        <pt x="648" y="467" on="0"/>
        <pt x="569" y="542" on="0"/>
        <pt x="465" y="581" on="0"/>
        <pt x="409" y="581" on="1"/>
        <pt x="346" y="581" on="0"/>
        <pt x="241" y="540" on="0"/>
        <pt x="165" y="465" on="0"/>
        <pt x="122" y="357" on="0"/>
      </contour>
      <contour>
        <pt x="515" y="220" on="1"/>
        <pt x="549" y="220" on="1"/>
        <pt x="551" y="212" on="0"/>
        <pt x="556" y="187" on="0"/>
        <pt x="559" y="157" on="0"/>
        <pt x="560" y="127" on="0"/>
        <pt x="559" y="115" on="1"/>
        <pt x="542" y="101" on="0"/>
        <pt x="471" y="82" on="0"/>
        <pt x="430" y="82" on="1"/>
        <pt x="381" y="82" on="0"/>
        <pt x="300" y="109" on="0"/>
        <pt x="241" y="162" on="0"/>
        <pt x="208" y="240" on="0"/>
        <pt x="208" y="291" on="1"/>
        <pt x="208" y="343" on="0"/>
        <pt x="245" y="421" on="0"/>
        <pt x="304" y="473" on="0"/>
        <pt x="379" y="500" on="0"/>
        <pt x="417" y="500" on="1"/>
        <pt x="465" y="500" on="0"/>
        <pt x="535" y="483" on="0"/>
        <pt x="556" y="470" on="1"/>
        <pt x="557" y="461" on="0"/>
        <pt x="555" y="431" on="0"/>
        <pt x="551" y="398" on="0"/>
        <pt x="546" y="366" on="0"/>
        <pt x="543" y="356" on="1"/>
        <pt x="509" y="356" on="1"/>
        <pt x="479" y="439" on="1"/>
        <pt x="472" y="444" on="0"/>
        <pt x="448" y="445" on="0"/>
        <pt x="436" y="445" on="1"/>
        <pt x="391" y="445" on="0"/>
        <pt x="343" y="369" on="0"/>
        <pt x="343" y="291" on="1"/>
        <pt x="343" y="258" on="0"/>
        <pt x="354" y="201" on="0"/>
        <pt x="378" y="160" on="0"/>
        <pt x="416" y="137" on="0"/>
        <pt x="443" y="137" on="1"/>
        <pt x="459" y="137" on="0"/>
        <pt x="483" y="142" on="0"/>
        <pt x="487" y="146" on="1"/>
      </contour>
    </TTGlyph>
    <TTGlyph name="currency" xMin="36" yMin="100" xMax="528" yMax="592">
      <contour>
        <pt x="36" y="178" on="1"/>
        <pt x="111" y="252" on="1"/>
        <pt x="151" y="266" on="1"/>
        <pt x="138" y="283" on="0"/>
        <pt x="127" y="320" on="0"/>
        <pt x="127" y="346" on="1"/>
        <pt x="127" y="392" on="0"/>
        <pt x="151" y="425" on="1"/>
        <pt x="111" y="440" on="1"/>
        <pt x="37" y="514" on="1"/>
        <pt x="115" y="592" on="1"/>
        <pt x="188" y="518" on="1"/>
        <pt x="204" y="478" on="1"/>
        <pt x="220" y="489" on="0"/>
        <pt x="256" y="501" on="0"/>
        <pt x="282" y="501" on="1"/>
        <pt x="334" y="500" on="0"/>
        <pt x="362" y="479" on="1"/>
        <pt x="378" y="518" on="1"/>
        <pt x="450" y="590" on="1"/>
        <pt x="528" y="513" on="1"/>
        <pt x="454" y="440" on="1"/>
        <pt x="416" y="426" on="1"/>
        <pt x="426" y="409" on="0"/>
        <pt x="436" y="371" on="0"/>
        <pt x="437" y="345" on="1"/>
        <pt x="437" y="300" on="0"/>
        <pt x="416" y="266" on="1"/>
        <pt x="454" y="252" on="1"/>
        <pt x="527" y="178" on="1"/>
        <pt x="449" y="100" on="1"/>
        <pt x="376" y="173" on="1"/>
        <pt x="362" y="212" on="1"/>
        <pt x="347" y="203" on="0"/>
        <pt x="306" y="191" on="0"/>
        <pt x="283" y="191" on="1"/>
        <pt x="257" y="192" on="0"/>
        <pt x="218" y="203" on="0"/>
        <pt x="202" y="212" on="1"/>
        <pt x="188" y="174" on="1"/>
        <pt x="114" y="100" on="1"/>
      </contour>
      <contour>
        <pt x="282" y="264" on="1"/>
        <pt x="318" y="264" on="0"/>
        <pt x="367" y="310" on="0"/>
        <pt x="367" y="346" on="1"/>
        <pt x="367" y="382" on="0"/>
        <pt x="318" y="429" on="0"/>
        <pt x="282" y="429" on="1"/>
        <pt x="246" y="430" on="0"/>
        <pt x="197" y="382" on="0"/>
        <pt x="197" y="346" on="1"/>
        <pt x="197" y="310" on="0"/>
        <pt x="246" y="264" on="0"/>
      </contour>
    </TTGlyph>
    <TTGlyph name="d" xMin="31" yMin="-12" xMax="585" yMax="752">
      <contour>
        <pt x="372" y="99" on="1"/>
        <pt x="367" y="77" on="0"/>
        <pt x="341" y="37" on="0"/>
        <pt x="305" y="6" on="0"/>
        <pt x="259" y="-12" on="0"/>
        <pt x="233" y="-12" on="1"/>
        <pt x="134" y="-12" on="0"/>
        <pt x="31" y="113" on="0"/>
        <pt x="31" y="242" on="1"/>
        <pt x="31" y="308" on="0"/>
        <pt x="67" y="407" on="0"/>
        <pt x="132" y="475" on="0"/>
        <pt x="224" y="509" on="0"/>
        <pt x="280" y="509" on="1"/>
        <pt x="298" y="509" on="0"/>
        <pt x="323" y="507" on="0"/>
        <pt x="344" y="504" on="0"/>
        <pt x="363" y="497" on="0"/>
        <pt x="375" y="493" on="1"/>
        <pt x="375" y="669" on="1"/>
        <pt x="299" y="677" on="1"/>
        <pt x="299" y="716" on="1"/>
        <pt x="313" y="722" on="0"/>
        <pt x="362" y="732" on="0"/>
        <pt x="416" y="741" on="0"/>
        <pt x="468" y="749" on="0"/>
        <pt x="485" y="752" on="1"/>
        <pt x="519" y="752" on="1"/>
        <pt x="519" y="71" on="1"/>
        <pt x="585" y="63" on="1"/>
        <pt x="585" y="28" on="1"/>
        <pt x="571" y="21" on="0"/>
        <pt x="527" y="9" on="0"/>
        <pt x="479" y="-1" on="0"/>
        <pt x="434" y="-8" on="0"/>
        <pt x="419" y="-10" on="1"/>
        <pt x="385" y="-10" on="1"/>
        <pt x="376" y="99" on="1"/>
      </contour>
      <contour>
        <pt x="281" y="68" on="1"/>
        <pt x="316" y="68" on="0"/>
        <pt x="364" y="112" on="0"/>
        <pt x="375" y="165" on="1"/>
        <pt x="375" y="434" on="1"/>
        <pt x="362" y="442" on="0"/>
        <pt x="323" y="452" on="0"/>
        <pt x="294" y="452" on="1"/>
        <pt x="236" y="452" on="0"/>
        <pt x="186" y="347" on="0"/>
        <pt x="186" y="247" on="1"/>
        <pt x="186" y="166" on="0"/>
        <pt x="230" y="68" on="0"/>
      </contour>
    </TTGlyph>
    <TTGlyph name="degree" xMin="69" yMin="430" xMax="357" yMax="712">
      <contour>
        <pt x="69" y="571" on="1"/>
        <pt x="69" y="602" on="0"/>
        <pt x="92" y="654" on="0"/>
        <pt x="131" y="691" on="0"/>
        <pt x="184" y="712" on="0"/>
        <pt x="213" y="712" on="1"/>
        <pt x="242" y="712" on="0"/>
        <pt x="295" y="694" on="0"/>
        <pt x="334" y="659" on="0"/>
        <pt x="357" y="606" on="0"/>
        <pt x="357" y="571" on="1"/>
        <pt x="357" y="538" on="0"/>
        <pt x="334" y="486" on="0"/>
        <pt x="295" y="449" on="0"/>
        <pt x="242" y="430" on="0"/>
        <pt x="213" y="430" on="1"/>
        <pt x="184" y="430" on="0"/>
        <pt x="131" y="449" on="0"/>
        <pt x="92" y="486" on="0"/>
        <pt x="69" y="538" on="0"/>
      </contour>
      <contour>
        <pt x="138" y="571" on="1"/>
        <pt x="138" y="533" on="0"/>
        <pt x="184" y="491" on="0"/>
        <pt x="213" y="491" on="1"/>
        <pt x="245" y="491" on="0"/>
        <pt x="288" y="530" on="0"/>
        <pt x="288" y="571" on="1"/>
        <pt x="288" y="610" on="0"/>
        <pt x="245" y="651" on="0"/>
        <pt x="213" y="651" on="1"/>
        <pt x="180" y="651" on="0"/>
        <pt x="138" y="609" on="0"/>
      </contour>
    </TTGlyph>
    <TTGlyph name="dieresis" xMin="60" yMin="591" xMax="445" yMax="729">
      <contour>
        <pt x="60" y="659" on="1"/>
        <pt x="60" y="691" on="0"/>
        <pt x="100" y="729" on="0"/>
        <pt x="133" y="729" on="1"/>
        <pt x="165" y="729" on="0"/>
        <pt x="206" y="691" on="0"/>
        <pt x="206" y="659" on="1"/>
        <pt x="206" y="629" on="0"/>
        <pt x="165" y="591" on="0"/>
        <pt x="133" y="591" on="1"/>
        <pt x="100" y="591" on="0"/>
        <pt x="60" y="629" on="0"/>
      </contour>
      <contour>
        <pt x="299" y="659" on="1"/>
        <pt x="299" y="691" on="0"/>
        <pt x="339" y="729" on="0"/>
        <pt x="371" y="729" on="1"/>
        <pt x="404" y="729" on="0"/>
        <pt x="445" y="691" on="0"/>
        <pt x="445" y="659" on="1"/>
        <pt x="445" y="629" on="0"/>
        <pt x="404" y="591" on="0"/>
        <pt x="371" y="591" on="1"/>
        <pt x="339" y="591" on="0"/>
        <pt x="299" y="629" on="0"/>
      </contour>
    </TTGlyph>
    <TTGlyph name="divide" xMin="57" yMin="76" xMax="507" yMax="616">
      <contour>
        <pt x="57" y="386" on="1"/>
        <pt x="507" y="386" on="1"/>
        <pt x="507" y="306" on="1"/>
        <pt x="57" y="306" on="1"/>
      </contour>
      <contour>
        <pt x="197" y="536" on="1"/>
        <pt x="197" y="572" on="0"/>
        <pt x="243" y="616" on="0"/>
        <pt x="281" y="616" on="1"/>
        <pt x="319" y="616" on="0"/>
        <pt x="367" y="572" on="0"/>
        <pt x="367" y="536" on="1"/>
        <pt x="367" y="500" on="0"/>
        <pt x="319" y="457" on="0"/>
        <pt x="281" y="457" on="1"/>
        <pt x="243" y="457" on="0"/>
        <pt x="197" y="500" on="0"/>
      </contour>
      <contour>
        <pt x="197" y="155" on="1"/>
        <pt x="197" y="191" on="0"/>
        <pt x="243" y="235" on="0"/>
        <pt x="281" y="235" on="1"/>
        <pt x="319" y="235" on="0"/>
        <pt x="367" y="191" on="0"/>
        <pt x="367" y="155" on="1"/>
        <pt x="367" y="119" on="0"/>
        <pt x="319" y="76" on="0"/>
        <pt x="281" y="76" on="1"/>
        <pt x="243" y="76" on="0"/>
        <pt x="197" y="119" on="0"/>
      </contour>
    </TTGlyph>
    <TTGlyph name="dollar" xMin="51" yMin="-70" xMax="520" yMax="760">
      <contour>
        <pt x="246" y="-12" on="1"/>
        <pt x="216" y="-12" on="0"/>
        <pt x="156" y="-3" on="0"/>
        <pt x="104" y="11" on="0"/>
        <pt x="64" y="28" on="0"/>
        <pt x="54" y="37" on="1"/>
        <pt x="56" y="76" on="0"/>
        <pt x="73" y="153" on="0"/>
        <pt x="81" y="175" on="1"/>
        <pt x="123" y="175" on="1"/>
        <pt x="174" y="78" on="1"/>
        <pt x="184" y="70" on="0"/>
        <pt x="217" y="55" on="0"/>
        <pt x="246" y="53" on="1"/>
        <pt x="246" y="306" on="1"/>
        <pt x="244" y="307" on="0"/>
        <pt x="239" y="308" on="0"/>
        <pt x="237" y="310" on="1"/>
        <pt x="214" y="320" on="1"/>
        <pt x="183" y="333" on="0"/>
        <pt x="125" y="370" on="0"/>
        <pt x="79" y="419" on="0"/>
        <pt x="51" y="485" on="0"/>
        <pt x="51" y="527" on="1"/>
        <pt x="51" y="568" on="0"/>
        <pt x="80" y="633" on="0"/>
        <pt x="132" y="679" on="0"/>
        <pt x="204" y="707" on="0"/>
        <pt x="246" y="710" on="1"/>
        <pt x="246" y="760" on="1"/>
        <pt x="316" y="760" on="1"/>
        <pt x="316" y="711" on="1"/>
        <pt x="364" y="709" on="0"/>
        <pt x="441" y="691" on="0"/>
        <pt x="476" y="676" on="1"/>
        <pt x="476" y="661" on="0"/>
        <pt x="471" y="628" on="0"/>
        <pt x="463" y="597" on="0"/>
        <pt x="453" y="571" on="0"/>
        <pt x="449" y="564" on="1"/>
        <pt x="408" y="564" on="1"/>
        <pt x="357" y="641" on="1"/>
        <pt x="349" y="643" on="0"/>
        <pt x="330" y="646" on="0"/>
        <pt x="316" y="646" on="1"/>
        <pt x="316" y="406" on="1"/>
        <pt x="354" y="390" on="1"/>
        <pt x="384" y="376" on="0"/>
        <pt x="444" y="341" on="0"/>
        <pt x="491" y="293" on="0"/>
        <pt x="520" y="229" on="0"/>
        <pt x="520" y="185" on="1"/>
        <pt x="520" y="106" on="0"/>
        <pt x="416" y="4" on="0"/>
        <pt x="316" y="-9" on="1"/>
        <pt x="316" y="-70" on="1"/>
        <pt x="246" y="-70" on="1"/>
      </contour>
      <contour>
        <pt x="390" y="166" on="1"/>
        <pt x="390" y="209" on="0"/>
        <pt x="342" y="260" on="0"/>
        <pt x="306" y="279" on="1"/>
        <pt x="306" y="58" on="1"/>
        <pt x="346" y="69" on="0"/>
        <pt x="390" y="123" on="0"/>
      </contour>
      <contour>
        <pt x="175" y="546" on="1"/>
        <pt x="175" y="504" on="0"/>
        <pt x="221" y="453" on="0"/>
        <pt x="256" y="434" on="1"/>
        <pt x="256" y="644" on="1"/>
        <pt x="218" y="639" on="0"/>
        <pt x="175" y="588" on="0"/>
      </contour>
    </TTGlyph>
    <TTGlyph name="dotlessi" xMin="31" yMin="0" xMax="307" yMax="512">
      <contour>
        <pt x="307" y="0" on="1"/>
        <pt x="31" y="0" on="1"/>
        <pt x="31" y="39" on="1"/>
        <pt x="46" y="47" on="0"/>
        <pt x="78" y="58" on="0"/>
        <pt x="97" y="63" on="1"/>
        <pt x="97" y="429" on="1"/>
        <pt x="31" y="437" on="1"/>
        <pt x="31" y="476" on="1"/>
        <pt x="46" y="482" on="0"/>
        <pt x="91" y="494" on="0"/>
        <pt x="141" y="503" on="0"/>
        <pt x="189" y="510" on="0"/>
        <pt x="207" y="512" on="1"/>
        <pt x="241" y="512" on="1"/>
        <pt x="241" y="63" on="1"/>
        <pt x="261" y="58" on="0"/>
        <pt x="293" y="47" on="0"/>
        <pt x="307" y="39" on="1"/>
      </contour>
    </TTGlyph>
    <TTGlyph name="e" xMin="31" yMin="-12" xMax="506" yMax="512">
      <contour>
        <pt x="486" y="84" on="1"/>
        <pt x="478" y="67" on="0"/>
        <pt x="443" y="32" on="0"/>
        <pt x="392" y="5" on="0"/>
        <pt x="325" y="-12" on="0"/>
        <pt x="286" y="-12" on="1"/>
        <pt x="224" y="-12" on="0"/>
        <pt x="128" y="25" on="0"/>
        <pt x="64" y="94" on="0"/>
        <pt x="31" y="190" on="0"/>
        <pt x="31" y="250" on="1"/>
        <pt x="31" y="378" on="0"/>
        <pt x="165" y="512" on="0"/>
        <pt x="284" y="512" on="1"/>
        <pt x="335" y="512" on="0"/>
        <pt x="424" y="484" on="0"/>
        <pt x="483" y="420" on="0"/>
        <pt x="506" y="316" on="0"/>
        <pt x="493" y="241" on="1"/>
        <pt x="186" y="241" on="1"/>
        <pt x="187" y="162" on="0"/>
        <pt x="266" y="68" on="0"/>
        <pt x="343" y="68" on="1"/>
        <pt x="376" y="68" on="0"/>
        <pt x="447" y="88" on="0"/>
        <pt x="467" y="104" on="1"/>
      </contour>
      <contour>
        <pt x="280" y="455" on="1"/>
        <pt x="260" y="455" on="0"/>
        <pt x="229" y="441" on="0"/>
        <pt x="206" y="404" on="0"/>
        <pt x="192" y="341" on="0"/>
        <pt x="189" y="293" on="1"/>
        <pt x="350" y="293" on="1"/>
        <pt x="357" y="371" on="0"/>
        <pt x="325" y="455" on="0"/>
      </contour>
    </TTGlyph>
    <TTGlyph name="eacute" xMin="31" yMin="-12" xMax="506" yMax="765">
      <component glyphName="e" x="0" y="0" flags="0x204"/>
      <component glyphName="acute" x="140" y="0" flags="0x4"/>
    </TTGlyph>
    <TTGlyph name="ecircumflex" xMin="31" yMin="-12" xMax="506" yMax="794">
      <component glyphName="e" x="0" y="0" flags="0x204"/>
      <component glyphName="circumflex" x="81" y="0" flags="0x4"/>
    </TTGlyph>
    <TTGlyph name="edieresis" xMin="31" yMin="-12" xMax="506" yMax="729">
      <component glyphName="e" x="0" y="0" flags="0x204"/>
      <component glyphName="dieresis" x="23" y="0" flags="0x4"/>
    </TTGlyph>
    <TTGlyph name="egrave" xMin="31" yMin="-12" xMax="506" yMax="765">
      <component glyphName="e" x="0" y="0" flags="0x204"/>
      <component glyphName="grave" x="65" y="0" flags="0x4"/>
    </TTGlyph>
    <TTGlyph name="eight" xMin="35" yMin="-12" xMax="529" yMax="712">
      <contour>
        <pt x="35" y="157" on="1"/>
        <pt x="35" y="227" on="0"/>
        <pt x="125" y="322" on="0"/>
        <pt x="198" y="345" on="1"/>
        <pt x="138" y="379" on="0"/>
        <pt x="64" y="472" on="0"/>
        <pt x="64" y="533" on="1"/>
        <pt x="64" y="572" on="0"/>
        <pt x="95" y="637" on="0"/>
        <pt x="153" y="685" on="0"/>
        <pt x="236" y="712" on="0"/>
        <pt x="288" y="712" on="1"/>
        <pt x="336" y="712" on="0"/>
        <pt x="415" y="688" on="0"/>
        <pt x="471" y="646" on="0"/>
        <pt x="501" y="586" on="0"/>
        <pt x="501" y="550" on="1"/>
        <pt x="501" y="490" on="0"/>
        <pt x="421" y="402" on="0"/>
        <pt x="360" y="383" on="1"/>
        <pt x="403" y="360" on="0"/>
        <pt x="466" y="314" on="0"/>
        <pt x="508" y="264" on="0"/>
        <pt x="529" y="208" on="0"/>
        <pt x="529" y="175" on="1"/>
        <pt x="529" y="136" on="0"/>
        <pt x="496" y="68" on="0"/>
        <pt x="433" y="17" on="0"/>
        <pt x="340" y="-12" on="0"/>
        <pt x="279" y="-12" on="1"/>
        <pt x="223" y="-12" on="0"/>
        <pt x="132" y="14" on="0"/>
        <pt x="69" y="59" on="0"/>
        <pt x="35" y="121" on="0"/>
      </contour>
      <contour>
        <pt x="387" y="146" on="1"/>
        <pt x="387" y="180" on="0"/>
        <pt x="362" y="228" on="0"/>
        <pt x="321" y="267" on="0"/>
        <pt x="266" y="300" on="0"/>
        <pt x="236" y="318" on="1"/>
        <pt x="201" y="291" on="0"/>
        <pt x="175" y="217" on="0"/>
        <pt x="175" y="182" on="1"/>
        <pt x="175" y="158" on="0"/>
        <pt x="187" y="110" on="0"/>
        <pt x="214" y="73" on="0"/>
        <pt x="256" y="49" on="0"/>
        <pt x="287" y="49" on="1"/>
        <pt x="312" y="49" on="0"/>
        <pt x="349" y="65" on="0"/>
        <pt x="374" y="92" on="0"/>
        <pt x="387" y="127" on="0"/>
      </contour>
      <contour>
        <pt x="200" y="554" on="1"/>
        <pt x="200" y="506" on="0"/>
        <pt x="267" y="433" on="0"/>
        <pt x="320" y="406" on="1"/>
        <pt x="348" y="432" on="0"/>
        <pt x="371" y="495" on="0"/>
        <pt x="371" y="536" on="1"/>
        <pt x="371" y="594" on="0"/>
        <pt x="324" y="651" on="0"/>
        <pt x="286" y="651" on="1"/>
        <pt x="241" y="651" on="0"/>
        <pt x="200" y="595" on="0"/>
      </contour>
    </TTGlyph>
    <TTGlyph name="ellipsis" xMin="63" yMin="-8" xMax="883" yMax="151">
      <contour>
        <pt x="63" y="71" on="1"/>
        <pt x="63" y="107" on="0"/>
        <pt x="109" y="151" on="0"/>
        <pt x="147" y="151" on="1"/>
        <pt x="185" y="151" on="0"/>
        <pt x="233" y="107" on="0"/>
        <pt x="233" y="71" on="1"/>
        <pt x="233" y="35" on="0"/>
        <pt x="185" y="-8" on="0"/>
        <pt x="147" y="-8" on="1"/>
        <pt x="109" y="-8" on="0"/>
        <pt x="63" y="35" on="0"/>
      </contour>
      <contour>
        <pt x="388" y="71" on="1"/>
        <pt x="388" y="107" on="0"/>
        <pt x="434" y="151" on="0"/>
        <pt x="472" y="151" on="1"/>
        <pt x="510" y="151" on="0"/>
        <pt x="558" y="107" on="0"/>
        <pt x="558" y="71" on="1"/>
        <pt x="558" y="35" on="0"/>
        <pt x="510" y="-8" on="0"/>
        <pt x="472" y="-8" on="1"/>
        <pt x="434" y="-8" on="0"/>
        <pt x="388" y="35" on="0"/>
      </contour>
      <contour>
        <pt x="713" y="71" on="1"/>
        <pt x="713" y="107" on="0"/>
        <pt x="759" y="151" on="0"/>
        <pt x="797" y="151" on="1"/>
        <pt x="835" y="151" on="0"/>
        <pt x="883" y="107" on="0"/>
        <pt x="883" y="71" on="1"/>
        <pt x="883" y="35" on="0"/>
        <pt x="835" y="-8" on="0"/>
        <pt x="797" y="-8" on="1"/>
        <pt x="759" y="-8" on="0"/>
        <pt x="713" y="35" on="0"/>
      </contour>
    </TTGlyph>
    <TTGlyph name="emdash" xMin="72" yMin="237" xMax="814" yMax="327">
      <contour>
        <pt x="72" y="327" on="1"/>
        <pt x="814" y="327" on="1"/>
        <pt x="814" y="237" on="1"/>
        <pt x="72" y="237" on="1"/>
      </contour>
    </TTGlyph>
    <TTGlyph name="endash" xMin="72" yMin="237" xMax="554" yMax="327">
      <contour>
        <pt x="72" y="327" on="1"/>
        <pt x="554" y="327" on="1"/>
        <pt x="554" y="237" on="1"/>
        <pt x="72" y="237" on="1"/>
      </contour>
    </TTGlyph>
    <TTGlyph name="equal" xMin="57" yMin="219" xMax="507" yMax="469">
      <contour>
        <pt x="57" y="469" on="1"/>
        <pt x="507" y="469" on="1"/>
        <pt x="507" y="389" on="1"/>
        <pt x="57" y="389" on="1"/>
      </contour>
      <contour>
        <pt x="57" y="299" on="1"/>
        <pt x="507" y="299" on="1"/>
        <pt x="507" y="219" on="1"/>
        <pt x="57" y="219" on="1"/>
      </contour>
    </TTGlyph>
    <TTGlyph name="eth" xMin="24" yMin="-12" xMax="548" yMax="750">
      <contour>
        <pt x="175" y="610" on="1"/>
        <pt x="271" y="649" on="1"/>
        <pt x="246" y="673" on="0"/>
        <pt x="188" y="712" on="0"/>
        <pt x="156" y="724" on="1"/>
        <pt x="156" y="750" on="1"/>
        <pt x="253" y="750" on="1"/>
        <pt x="308" y="733" on="0"/>
        <pt x="364" y="688" on="1"/>
        <pt x="462" y="728" on="1"/>
        <pt x="489" y="672" on="1"/>
        <pt x="415" y="641" on="1"/>
        <pt x="443" y="610" on="0"/>
        <pt x="491" y="534" on="0"/>
        <pt x="527" y="445" on="0"/>
        <pt x="548" y="344" on="0"/>
        <pt x="548" y="289" on="1"/>
        <pt x="548" y="224" on="0"/>
        <pt x="515" y="113" on="0"/>
        <pt x="449" y="33" on="0"/>
        <pt x="350" y="-12" on="0"/>
        <pt x="285" y="-12" on="1"/>
        <pt x="224" y="-12" on="0"/>
        <pt x="127" y="25" on="0"/>
        <pt x="60" y="93" on="0"/>
        <pt x="24" y="186" on="0"/>
        <pt x="24" y="242" on="1"/>
        <pt x="24" y="309" on="0"/>
        <pt x="63" y="411" on="0"/>
        <pt x="128" y="478" on="0"/>
        <pt x="210" y="512" on="0"/>
        <pt x="253" y="512" on="1"/>
        <pt x="304" y="512" on="0"/>
        <pt x="363" y="478" on="0"/>
        <pt x="385" y="454" on="1"/>
        <pt x="374" y="490" on="0"/>
        <pt x="339" y="565" on="0"/>
        <pt x="314" y="600" on="1"/>
        <pt x="203" y="554" on="1"/>
      </contour>
      <contour>
        <pt x="179" y="242" on="1"/>
        <pt x="179" y="201" on="0"/>
        <pt x="192" y="131" on="0"/>
        <pt x="220" y="79" on="0"/>
        <pt x="262" y="49" on="0"/>
        <pt x="292" y="49" on="1"/>
        <pt x="347" y="49" on="0"/>
        <pt x="393" y="164" on="0"/>
        <pt x="393" y="274" on="1"/>
        <pt x="393" y="327" on="0"/>
        <pt x="387" y="387" on="0"/>
        <pt x="382" y="400" on="1"/>
        <pt x="353" y="437" on="0"/>
        <pt x="289" y="437" on="1"/>
        <pt x="264" y="437" on="0"/>
        <pt x="224" y="417" on="0"/>
        <pt x="195" y="371" on="0"/>
        <pt x="179" y="296" on="0"/>
      </contour>
    </TTGlyph>
    <TTGlyph name="exclam" xMin="110" yMin="-8" xMax="281" yMax="701">
      <contour>
        <pt x="172" y="218" on="1"/>
        <pt x="122" y="412" on="1"/>
        <pt x="122" y="690" on="1"/>
        <pt x="132" y="696" on="0"/>
        <pt x="172" y="701" on="0"/>
        <pt x="216" y="701" on="0"/>
        <pt x="255" y="696" on="0"/>
        <pt x="266" y="690" on="1"/>
        <pt x="266" y="412" on="1"/>
        <pt x="216" y="218" on="1"/>
      </contour>
      <contour>
        <pt x="110" y="71" on="1"/>
        <pt x="110" y="107" on="0"/>
        <pt x="157" y="151" on="0"/>
        <pt x="195" y="151" on="1"/>
        <pt x="233" y="151" on="0"/>
        <pt x="281" y="107" on="0"/>
        <pt x="281" y="71" on="1"/>
        <pt x="281" y="35" on="0"/>
        <pt x="233" y="-8" on="0"/>
        <pt x="195" y="-8" on="1"/>
        <pt x="157" y="-8" on="0"/>
        <pt x="110" y="35" on="0"/>
      </contour>
    </TTGlyph>
    <TTGlyph name="exclamdown" xMin="63" yMin="-197" xMax="233" yMax="512">
      <contour>
        <pt x="172" y="286" on="1"/>
        <pt x="222" y="92" on="1"/>
        <pt x="222" y="-186" on="1"/>
        <pt x="211" y="-192" on="0"/>
        <pt x="172" y="-197" on="0"/>
        <pt x="128" y="-197" on="0"/>
        <pt x="88" y="-192" on="0"/>
        <pt x="78" y="-186" on="1"/>
        <pt x="78" y="92" on="1"/>
        <pt x="128" y="286" on="1"/>
      </contour>
      <contour>
        <pt x="233" y="433" on="1"/>
        <pt x="233" y="396" on="0"/>
        <pt x="187" y="353" on="0"/>
        <pt x="149" y="353" on="1"/>
        <pt x="111" y="353" on="0"/>
        <pt x="63" y="396" on="0"/>
        <pt x="63" y="433" on="1"/>
        <pt x="63" y="469" on="0"/>
        <pt x="111" y="512" on="0"/>
        <pt x="149" y="512" on="1"/>
        <pt x="187" y="512" on="0"/>
        <pt x="233" y="469" on="0"/>
      </contour>
    </TTGlyph>
    <TTGlyph name="f" xMin="23" yMin="0" xMax="444" yMax="752">
      <contour>
        <pt x="321" y="752" on="1"/>
        <pt x="362" y="752" on="0"/>
        <pt x="427" y="737" on="0"/>
        <pt x="444" y="730" on="1"/>
        <pt x="441" y="697" on="0"/>
        <pt x="421" y="627" on="0"/>
        <pt x="413" y="604" on="1"/>
        <pt x="379" y="604" on="1"/>
        <pt x="335" y="699" on="1"/>
        <pt x="309" y="699" on="0"/>
        <pt x="274" y="688" on="0"/>
        <pt x="253" y="656" on="0"/>
        <pt x="243" y="597" on="0"/>
        <pt x="243" y="550" on="1"/>
        <pt x="243" y="500" on="1"/>
        <pt x="349" y="500" on="1"/>
        <pt x="349" y="437" on="1"/>
        <pt x="243" y="437" on="1"/>
        <pt x="243" y="63" on="1"/>
        <pt x="295" y="57" on="0"/>
        <pt x="339" y="39" on="1"/>
        <pt x="339" y="0" on="1"/>
        <pt x="33" y="0" on="1"/>
        <pt x="33" y="39" on="1"/>
        <pt x="64" y="57" on="0"/>
        <pt x="99" y="63" on="1"/>
        <pt x="99" y="437" on="1"/>
        <pt x="23" y="437" on="1"/>
        <pt x="23" y="476" on="1"/>
        <pt x="58" y="498" on="0"/>
        <pt x="99" y="509" on="1"/>
        <pt x="99" y="544" on="1"/>
        <pt x="99" y="606" on="0"/>
        <pt x="134" y="687" on="0"/>
        <pt x="194" y="734" on="0"/>
        <pt x="275" y="752" on="0"/>
      </contour>
    </TTGlyph>
    <TTGlyph name="fi" xMin="23" yMin="0" xMax="635" yMax="752">
      <contour>
        <pt x="635" y="0" on="1"/>
        <pt x="364" y="0" on="1"/>
        <pt x="364" y="39" on="1"/>
        <pt x="376" y="46" on="0"/>
        <pt x="408" y="59" on="0"/>
        <pt x="425" y="63" on="1"/>
        <pt x="425" y="437" on="1"/>
        <pt x="243" y="437" on="1"/>
        <pt x="243" y="63" on="1"/>
        <pt x="263" y="61" on="0"/>
        <pt x="302" y="47" on="0"/>
        <pt x="319" y="39" on="1"/>
        <pt x="319" y="0" on="1"/>
        <pt x="33" y="0" on="1"/>
        <pt x="33" y="39" on="1"/>
        <pt x="64" y="57" on="0"/>
        <pt x="99" y="63" on="1"/>
        <pt x="99" y="437" on="1"/>
        <pt x="23" y="437" on="1"/>
        <pt x="23" y="476" on="1"/>
        <pt x="58" y="498" on="0"/>
        <pt x="99" y="509" on="1"/>
        <pt x="99" y="544" on="1"/>
        <pt x="99" y="606" on="0"/>
        <pt x="145" y="687" on="0"/>
        <pt x="218" y="734" on="0"/>
        <pt x="309" y="752" on="0"/>
        <pt x="355" y="752" on="1"/>
        <pt x="381" y="752" on="0"/>
        <pt x="446" y="745" on="0"/>
        <pt x="508" y="733" on="0"/>
        <pt x="560" y="718" on="0"/>
        <pt x="574" y="710" on="1"/>
        <pt x="571" y="677" on="0"/>
        <pt x="553" y="624" on="0"/>
        <pt x="543" y="604" on="1"/>
        <pt x="459" y="604" on="1"/>
        <pt x="385" y="699" on="1"/>
        <pt x="359" y="699" on="0"/>
        <pt x="308" y="688" on="0"/>
        <pt x="268" y="656" on="0"/>
        <pt x="243" y="597" on="0"/>
        <pt x="243" y="550" on="1"/>
        <pt x="243" y="500" on="1"/>
        <pt x="339" y="500" on="1"/>
        <pt x="356" y="500" on="0"/>
        <pt x="408" y="503" on="0"/>
        <pt x="465" y="506" on="0"/>
        <pt x="518" y="510" on="0"/>
        <pt x="535" y="512" on="1"/>
        <pt x="569" y="512" on="1"/>
        <pt x="569" y="63" on="1"/>
        <pt x="589" y="58" on="0"/>
        <pt x="621" y="47" on="0"/>
        <pt x="635" y="39" on="1"/>
      </contour>
    </TTGlyph>
    <TTGlyph name="five" xMin="40" yMin="-12" xMax="498" yMax="755">
      <contour>
        <pt x="455" y="755" on="1"/>
        <pt x="489" y="755" on="1"/>
        <pt x="489" y="740" on="0"/>
        <pt x="487" y="692" on="0"/>
        <pt x="481" y="642" on="0"/>
        <pt x="473" y="597" on="0"/>
        <pt x="469" y="585" on="1"/>
        <pt x="195" y="585" on="1"/>
        <pt x="177" y="442" on="1"/>
        <pt x="260" y="442" on="1"/>
        <pt x="314" y="442" on="0"/>
        <pt x="402" y="413" on="0"/>
        <pt x="464" y="358" on="0"/>
        <pt x="498" y="279" on="0"/>
        <pt x="498" y="228" on="1"/>
        <pt x="498" y="171" on="0"/>
        <pt x="455" y="82" on="0"/>
        <pt x="381" y="21" on="0"/>
        <pt x="281" y="-12" on="0"/>
        <pt x="223" y="-12" on="1"/>
        <pt x="165" y="-12" on="0"/>
        <pt x="69" y="25" on="0"/>
        <pt x="40" y="48" on="1"/>
        <pt x="82" y="147" on="1"/>
        <pt x="111" y="147" on="1"/>
        <pt x="118" y="140" on="0"/>
        <pt x="136" y="118" on="0"/>
        <pt x="156" y="94" on="0"/>
        <pt x="174" y="70" on="0"/>
        <pt x="181" y="61" on="1"/>
        <pt x="191" y="57" on="0"/>
        <pt x="208" y="53" on="0"/>
        <pt x="222" y="53" on="1"/>
        <pt x="252" y="53" on="0"/>
        <pt x="304" y="74" on="0"/>
        <pt x="341" y="112" on="0"/>
        <pt x="363" y="165" on="0"/>
        <pt x="363" y="197" on="1"/>
        <pt x="363" y="232" on="0"/>
        <pt x="336" y="285" on="0"/>
        <pt x="290" y="319" on="0"/>
        <pt x="228" y="336" on="0"/>
        <pt x="194" y="336" on="1"/>
        <pt x="107" y="335" on="1"/>
        <pt x="147" y="700" on="1"/>
        <pt x="408" y="700" on="1"/>
      </contour>
    </TTGlyph>
    <TTGlyph name="fl" xMin="23" yMin="0" xMax="640" yMax="752">
      <contour>
        <pt x="425" y="669" on="1"/>
        <pt x="404" y="677" on="0"/>
        <pt x="366" y="689" on="0"/>
        <pt x="347" y="689" on="1"/>
        <pt x="321" y="689" on="0"/>
        <pt x="283" y="675" on="0"/>
        <pt x="256" y="642" on="0"/>
        <pt x="243" y="585" on="0"/>
        <pt x="243" y="543" on="1"/>
        <pt x="243" y="500" on="1"/>
        <pt x="349" y="500" on="1"/>
        <pt x="349" y="437" on="1"/>
        <pt x="243" y="437" on="1"/>
        <pt x="243" y="63" on="1"/>
        <pt x="265" y="60" on="0"/>
        <pt x="307" y="47" on="0"/>
        <pt x="324" y="39" on="1"/>
        <pt x="324" y="0" on="1"/>
        <pt x="33" y="0" on="1"/>
        <pt x="33" y="39" on="1"/>
        <pt x="64" y="57" on="0"/>
        <pt x="99" y="63" on="1"/>
        <pt x="99" y="437" on="1"/>
        <pt x="23" y="437" on="1"/>
        <pt x="23" y="476" on="1"/>
        <pt x="58" y="498" on="0"/>
        <pt x="99" y="509" on="1"/>
        <pt x="99" y="544" on="1"/>
        <pt x="99" y="606" on="0"/>
        <pt x="130" y="687" on="0"/>
        <pt x="184" y="734" on="0"/>
        <pt x="257" y="752" on="0"/>
        <pt x="298" y="752" on="1"/>
        <pt x="340" y="752" on="0"/>
        <pt x="407" y="731" on="0"/>
        <pt x="423" y="725" on="1"/>
        <pt x="444" y="733" on="0"/>
        <pt x="506" y="750" on="0"/>
        <pt x="535" y="752" on="1"/>
        <pt x="569" y="752" on="1"/>
        <pt x="569" y="63" on="1"/>
        <pt x="586" y="59" on="0"/>
        <pt x="623" y="47" on="0"/>
        <pt x="640" y="39" on="1"/>
        <pt x="640" y="0" on="1"/>
        <pt x="369" y="0" on="1"/>
        <pt x="369" y="39" on="1"/>
        <pt x="381" y="47" on="0"/>
        <pt x="411" y="59" on="0"/>
        <pt x="425" y="63" on="1"/>
      </contour>
    </TTGlyph>
    <TTGlyph name="four" xMin="0" yMin="0" xMax="560" yMax="712">
      <contour>
        <pt x="513" y="0" on="1"/>
        <pt x="204" y="0" on="1"/>
        <pt x="204" y="43" on="1"/>
        <pt x="253" y="60" on="0"/>
        <pt x="296" y="67" on="1"/>
        <pt x="296" y="180" on="1"/>
        <pt x="0" y="180" on="1"/>
        <pt x="0" y="225" on="1"/>
        <pt x="383" y="712" on="1"/>
        <pt x="437" y="712" on="1"/>
        <pt x="437" y="245" on="1"/>
        <pt x="560" y="245" on="1"/>
        <pt x="560" y="180" on="1"/>
        <pt x="437" y="180" on="1"/>
        <pt x="437" y="67" on="1"/>
        <pt x="476" y="59" on="0"/>
        <pt x="513" y="43" on="1"/>
      </contour>
      <contour>
        <pt x="296" y="458" on="1"/>
        <pt x="306" y="528" on="1"/>
        <pt x="303" y="528" on="1"/>
        <pt x="265" y="458" on="1"/>
        <pt x="120" y="271" on="1"/>
        <pt x="80" y="238" on="1"/>
        <pt x="151" y="245" on="1"/>
        <pt x="296" y="245" on="1"/>
      </contour>
    </TTGlyph>
    <TTGlyph name="fraction" xMin="-158" yMin="-13" xMax="474" yMax="715">
      <contour>
        <pt x="426" y="715" on="1"/>
        <pt x="474" y="673" on="1"/>
        <pt x="-111" y="-13" on="1"/>
        <pt x="-158" y="30" on="1"/>
      </contour>
    </TTGlyph>
    <TTGlyph name="g" xMin="16" yMin="-212" xMax="582" yMax="536">
      <contour>
        <pt x="264" y="512" on="1"/>
        <pt x="329" y="512" on="0"/>
        <pt x="415" y="485" on="0"/>
        <pt x="437" y="465" on="1"/>
        <pt x="484" y="516" on="0"/>
        <pt x="545" y="536" on="1"/>
        <pt x="552" y="531" on="0"/>
        <pt x="566" y="512" on="0"/>
        <pt x="576" y="490" on="0"/>
        <pt x="582" y="468" on="0"/>
        <pt x="582" y="461" on="1"/>
        <pt x="569" y="437" on="1"/>
        <pt x="464" y="437" on="1"/>
        <pt x="475" y="423" on="0"/>
        <pt x="494" y="378" on="0"/>
        <pt x="494" y="347" on="1"/>
        <pt x="494" y="314" on="0"/>
        <pt x="466" y="256" on="0"/>
        <pt x="409" y="211" on="0"/>
        <pt x="322" y="185" on="0"/>
        <pt x="264" y="185" on="1"/>
        <pt x="247" y="185" on="0"/>
        <pt x="220" y="186" on="0"/>
        <pt x="210" y="188" on="1"/>
        <pt x="206" y="182" on="0"/>
        <pt x="197" y="165" on="0"/>
        <pt x="197" y="157" on="1"/>
        <pt x="197" y="140" on="0"/>
        <pt x="245" y="120" on="0"/>
        <pt x="319" y="104" on="0"/>
        <pt x="404" y="84" on="0"/>
        <pt x="478" y="51" on="0"/>
        <pt x="528" y="-2" on="0"/>
        <pt x="529" y="-44" on="1"/>
        <pt x="530" y="-84" on="0"/>
        <pt x="488" y="-146" on="0"/>
        <pt x="415" y="-189" on="0"/>
        <pt x="316" y="-212" on="0"/>
        <pt x="260" y="-212" on="1"/>
        <pt x="194" y="-212" on="0"/>
        <pt x="101" y="-191" on="0"/>
        <pt x="43" y="-155" on="0"/>
        <pt x="16" y="-109" on="0"/>
        <pt x="16" y="-84" on="1"/>
        <pt x="16" y="-56" on="0"/>
        <pt x="38" y="-16" on="0"/>
        <pt x="78" y="14" on="0"/>
        <pt x="131" y="34" on="0"/>
        <pt x="163" y="42" on="1"/>
        <pt x="148" y="46" on="0"/>
        <pt x="120" y="58" on="0"/>
        <pt x="98" y="75" on="0"/>
        <pt x="84" y="98" on="0"/>
        <pt x="84" y="113" on="1"/>
        <pt x="84" y="126" on="0"/>
        <pt x="100" y="151" on="0"/>
        <pt x="126" y="172" on="0"/>
        <pt x="156" y="189" on="0"/>
        <pt x="171" y="195" on="1"/>
        <pt x="108" y="209" on="0"/>
        <pt x="34" y="290" on="0"/>
        <pt x="34" y="353" on="1"/>
        <pt x="34" y="428" on="0"/>
        <pt x="158" y="512" on="0"/>
      </contour>
      <contour>
        <pt x="390" y="-76" on="1"/>
        <pt x="390" y="-49" on="0"/>
        <pt x="357" y="-16" on="0"/>
        <pt x="305" y="5" on="0"/>
        <pt x="240" y="20" on="0"/>
        <pt x="208" y="30" on="1"/>
        <pt x="182" y="10" on="0"/>
        <pt x="160" y="-30" on="0"/>
        <pt x="160" y="-58" on="1"/>
        <pt x="160" y="-104" on="0"/>
        <pt x="223" y="-155" on="0"/>
        <pt x="280" y="-155" on="1"/>
        <pt x="336" y="-155" on="0"/>
        <pt x="390" y="-108" on="0"/>
      </contour>
      <contour>
        <pt x="178" y="348" on="1"/>
        <pt x="178" y="296" on="0"/>
        <pt x="213" y="242" on="0"/>
        <pt x="264" y="242" on="1"/>
        <pt x="313" y="242" on="0"/>
        <pt x="350" y="297" on="0"/>
        <pt x="350" y="348" on="1"/>
        <pt x="350" y="402" on="0"/>
        <pt x="312" y="455" on="0"/>
        <pt x="264" y="455" on="1"/>
        <pt x="214" y="455" on="0"/>
        <pt x="178" y="403" on="0"/>
      </contour>
    </TTGlyph>
    <TTGlyph name="germandbls" xMin="23" yMin="-12" xMax="676" yMax="752">
      <contour>
        <pt x="458" y="584" on="1"/>
        <pt x="458" y="635" on="0"/>
        <pt x="402" y="695" on="0"/>
        <pt x="359" y="695" on="1"/>
        <pt x="337" y="695" on="0"/>
        <pt x="295" y="685" on="0"/>
        <pt x="263" y="652" on="0"/>
        <pt x="243" y="589" on="0"/>
        <pt x="243" y="537" on="1"/>
        <pt x="243" y="0" on="1"/>
        <pt x="33" y="0" on="1"/>
        <pt x="33" y="39" on="1"/>
        <pt x="64" y="57" on="0"/>
        <pt x="99" y="63" on="1"/>
        <pt x="99" y="437" on="1"/>
        <pt x="23" y="437" on="1"/>
        <pt x="23" y="476" on="1"/>
        <pt x="58" y="498" on="0"/>
        <pt x="99" y="509" on="1"/>
        <pt x="99" y="544" on="1"/>
        <pt x="99" y="606" on="0"/>
        <pt x="150" y="687" on="0"/>
        <pt x="227" y="734" on="0"/>
        <pt x="318" y="752" on="0"/>
        <pt x="359" y="752" on="1"/>
        <pt x="474" y="752" on="0"/>
        <pt x="590" y="655" on="0"/>
        <pt x="592" y="575" on="1"/>
        <pt x="562" y="570" on="0"/>
        <pt x="506" y="553" on="0"/>
        <pt x="463" y="524" on="0"/>
        <pt x="437" y="482" on="0"/>
        <pt x="437" y="452" on="1"/>
        <pt x="437" y="421" on="0"/>
        <pt x="472" y="374" on="0"/>
        <pt x="526" y="332" on="0"/>
        <pt x="587" y="291" on="0"/>
        <pt x="641" y="241" on="0"/>
        <pt x="676" y="179" on="0"/>
        <pt x="676" y="138" on="1"/>
        <pt x="676" y="68" on="0"/>
        <pt x="571" y="-12" on="0"/>
        <pt x="470" y="-12" on="1"/>
        <pt x="422" y="-12" on="0"/>
        <pt x="325" y="8" on="0"/>
        <pt x="288" y="26" on="1"/>
        <pt x="290" y="56" on="0"/>
        <pt x="306" y="103" on="0"/>
        <pt x="317" y="120" on="1"/>
        <pt x="351" y="120" on="1"/>
        <pt x="420" y="54" on="1"/>
        <pt x="431" y="48" on="0"/>
        <pt x="453" y="45" on="0"/>
        <pt x="465" y="45" on="1"/>
        <pt x="497" y="45" on="0"/>
        <pt x="542" y="79" on="0"/>
        <pt x="542" y="109" on="1"/>
        <pt x="542" y="138" on="0"/>
        <pt x="507" y="181" on="0"/>
        <pt x="453" y="221" on="0"/>
        <pt x="392" y="261" on="0"/>
        <pt x="338" y="311" on="0"/>
        <pt x="303" y="375" on="0"/>
        <pt x="303" y="420" on="1"/>
        <pt x="303" y="480" on="0"/>
        <pt x="389" y="563" on="0"/>
      </contour>
    </TTGlyph>
    <TTGlyph name="grave" xMin="60" yMin="567" xMax="291" yMax="765">
      <contour>
        <pt x="291" y="589" on="1"/>
        <pt x="246" y="567" on="1"/>
        <pt x="60" y="712" on="1"/>
        <pt x="60" y="741" on="1"/>
        <pt x="66" y="747" on="0"/>
        <pt x="106" y="758" on="0"/>
        <pt x="151" y="764" on="0"/>
        <pt x="191" y="765" on="0"/>
        <pt x="198" y="763" on="1"/>
      </contour>
    </TTGlyph>
    <TTGlyph name="greater" xMin="73" yMin="103" xMax="513" yMax="590">
      <contour>
        <pt x="513" y="369" on="1"/>
        <pt x="513" y="338" on="1"/>
        <pt x="128" y="103" on="1"/>
        <pt x="92" y="168" on="1"/>
        <pt x="305" y="296" on="1"/>
        <pt x="387" y="330" on="1"/>
        <pt x="306" y="361" on="1"/>
        <pt x="73" y="497" on="1"/>
        <pt x="129" y="590" on="1"/>
      </contour>
    </TTGlyph>
    <TTGlyph name="guillemotleft" xMin="20" yMin="39" xMax="463" yMax="482">
      <contour>
        <pt x="236" y="259" on="1"/>
        <pt x="414" y="481" on="1"/>
        <pt x="457" y="445" on="1"/>
        <pt x="351" y="266" on="1"/>
        <pt x="463" y="77" on="1"/>
        <pt x="421" y="41" on="1"/>
      </contour>
      <contour>
        <pt x="20" y="259" on="1"/>
        <pt x="260" y="482" on="1"/>
        <pt x="299" y="446" on="1"/>
        <pt x="155" y="265" on="1"/>
        <pt x="305" y="76" on="1"/>
        <pt x="266" y="39" on="1"/>
      </contour>
    </TTGlyph>
    <TTGlyph name="guillemotright" xMin="45" yMin="40" xMax="485" yMax="482">
      <contour>
        <pt x="87" y="41" on="1"/>
        <pt x="45" y="77" on="1"/>
        <pt x="154" y="259" on="1"/>
        <pt x="45" y="445" on="1"/>
        <pt x="87" y="481" on="1"/>
        <pt x="269" y="261" on="1"/>
      </contour>
      <contour>
        <pt x="242" y="40" on="1"/>
        <pt x="203" y="77" on="1"/>
        <pt x="350" y="259" on="1"/>
        <pt x="203" y="446" on="1"/>
        <pt x="242" y="482" on="1"/>
        <pt x="485" y="261" on="1"/>
      </contour>
    </TTGlyph>
    <TTGlyph name="guilsinglleft" xMin="20" yMin="44" xMax="267" yMax="482">
      <contour>
        <pt x="20" y="259" on="1"/>
        <pt x="223" y="482" on="1"/>
        <pt x="261" y="445" on="1"/>
        <pt x="160" y="266" on="1"/>
        <pt x="267" y="77" on="1"/>
        <pt x="230" y="44" on="1"/>
      </contour>
    </TTGlyph>
    <TTGlyph name="guilsinglright" xMin="50" yMin="44" xMax="294" yMax="482">
      <contour>
        <pt x="87" y="44" on="1"/>
        <pt x="50" y="82" on="1"/>
        <pt x="154" y="263" on="1"/>
        <pt x="50" y="450" on="1"/>
        <pt x="87" y="482" on="1"/>
        <pt x="294" y="266" on="1"/>
      </contour>
    </TTGlyph>
    <TTGlyph name="h" xMin="9" yMin="0" xMax="628" yMax="752">
      <contour>
        <pt x="628" y="0" on="1"/>
        <pt x="363" y="0" on="1"/>
        <pt x="363" y="39" on="1"/>
        <pt x="375" y="46" on="0"/>
        <pt x="401" y="58" on="0"/>
        <pt x="418" y="63" on="1"/>
        <pt x="418" y="265" on="1"/>
        <pt x="418" y="351" on="0"/>
        <pt x="385" y="432" on="0"/>
        <pt x="337" y="432" on="1"/>
        <pt x="297" y="432" on="0"/>
        <pt x="241" y="377" on="0"/>
        <pt x="229" y="341" on="1"/>
        <pt x="229" y="63" on="1"/>
        <pt x="245" y="59" on="0"/>
        <pt x="270" y="49" on="0"/>
        <pt x="284" y="39" on="1"/>
        <pt x="284" y="0" on="1"/>
        <pt x="19" y="0" on="1"/>
        <pt x="19" y="39" on="1"/>
        <pt x="50" y="55" on="0"/>
        <pt x="85" y="63" on="1"/>
        <pt x="85" y="669" on="1"/>
        <pt x="9" y="677" on="1"/>
        <pt x="9" y="716" on="1"/>
        <pt x="24" y="722" on="0"/>
        <pt x="71" y="734" on="0"/>
        <pt x="123" y="743" on="0"/>
        <pt x="175" y="750" on="0"/>
        <pt x="195" y="752" on="1"/>
        <pt x="229" y="752" on="1"/>
        <pt x="229" y="399" on="1"/>
        <pt x="230" y="399" on="1"/>
        <pt x="240" y="422" on="0"/>
        <pt x="274" y="463" on="0"/>
        <pt x="317" y="494" on="0"/>
        <pt x="367" y="512" on="0"/>
        <pt x="395" y="512" on="1"/>
        <pt x="435" y="512" on="0"/>
        <pt x="498" y="493" on="0"/>
        <pt x="540" y="445" on="0"/>
        <pt x="562" y="364" on="0"/>
        <pt x="562" y="302" on="1"/>
        <pt x="562" y="63" on="1"/>
        <pt x="579" y="59" on="0"/>
        <pt x="613" y="49" on="0"/>
        <pt x="628" y="39" on="1"/>
      </contour>
    </TTGlyph>
    <TTGlyph name="hyphen" xMin="66" yMin="237" xMax="348" yMax="327">
      <contour>
        <pt x="66" y="327" on="1"/>
        <pt x="348" y="327" on="1"/>
        <pt x="348" y="237" on="1"/>
        <pt x="66" y="237" on="1"/>
      </contour>
    </TTGlyph>
    <TTGlyph name="i" xMin="31" yMin="0" xMax="307" yMax="739">
      <contour>
        <pt x="307" y="0" on="1"/>
        <pt x="31" y="0" on="1"/>
        <pt x="31" y="39" on="1"/>
        <pt x="46" y="47" on="0"/>
        <pt x="78" y="58" on="0"/>
        <pt x="97" y="63" on="1"/>
        <pt x="97" y="429" on="1"/>
        <pt x="31" y="437" on="1"/>
        <pt x="31" y="476" on="1"/>
        <pt x="46" y="482" on="0"/>
        <pt x="91" y="494" on="0"/>
        <pt x="141" y="503" on="0"/>
        <pt x="189" y="510" on="0"/>
        <pt x="207" y="512" on="1"/>
        <pt x="241" y="512" on="1"/>
        <pt x="241" y="63" on="1"/>
        <pt x="261" y="58" on="0"/>
        <pt x="293" y="47" on="0"/>
        <pt x="307" y="39" on="1"/>
      </contour>
      <contour>
        <pt x="80" y="664" on="1"/>
        <pt x="80" y="699" on="0"/>
        <pt x="128" y="739" on="0"/>
        <pt x="166" y="739" on="1"/>
        <pt x="204" y="739" on="0"/>
        <pt x="252" y="699" on="0"/>
        <pt x="252" y="664" on="1"/>
        <pt x="252" y="630" on="0"/>
        <pt x="204" y="590" on="0"/>
        <pt x="166" y="590" on="1"/>
        <pt x="128" y="590" on="0"/>
        <pt x="80" y="630" on="0"/>
      </contour>
    </TTGlyph>
    <TTGlyph name="iacute" xMin="31" yMin="0" xMax="312" yMax="765">
      <component glyphName="dotlessi" x="0" y="0" flags="0x204"/>
      <component glyphName="acute" x="21" y="0" flags="0x4"/>
    </TTGlyph>
    <TTGlyph name="icircumflex" xMin="26" yMin="0" xMax="307" yMax="794">
      <component glyphName="dotlessi" x="0" y="0" flags="0x204"/>
      <component glyphName="circumflex" x="-34" y="0" flags="0x4"/>
    </TTGlyph>
    <TTGlyph name="idieresis" xMin="-24" yMin="0" xMax="361" yMax="729">
      <component glyphName="dotlessi" x="0" y="0" flags="0x204"/>
      <component glyphName="dieresis" x="-84" y="0" flags="0x4"/>
    </TTGlyph>
    <TTGlyph name="igrave" xMin="2" yMin="0" xMax="307" yMax="765">
      <component glyphName="dotlessi" x="0" y="0" flags="0x204"/>
      <component glyphName="grave" x="-58" y="0" flags="0x4"/>
    </TTGlyph>
    <TTGlyph name="j" xMin="27" yMin="-212" xMax="252" yMax="739">
      <contour>
        <pt x="97" y="429" on="1"/>
        <pt x="31" y="437" on="1"/>
        <pt x="31" y="476" on="1"/>
        <pt x="46" y="483" on="0"/>
        <pt x="90" y="495" on="0"/>
        <pt x="140" y="504" on="0"/>
        <pt x="189" y="510" on="0"/>
        <pt x="207" y="512" on="1"/>
        <pt x="241" y="512" on="1"/>
        <pt x="241" y="43" on="1"/>
        <pt x="241" y="-4" on="0"/>
        <pt x="218" y="-78" on="0"/>
        <pt x="181" y="-132" on="0"/>
        <pt x="136" y="-170" on="0"/>
        <pt x="93" y="-195" on="0"/>
        <pt x="57" y="-209" on="0"/>
        <pt x="47" y="-212" on="1"/>
        <pt x="27" y="-182" on="1"/>
        <pt x="39" y="-176" on="0"/>
        <pt x="63" y="-149" on="0"/>
        <pt x="84" y="-101" on="0"/>
        <pt x="97" y="-28" on="0"/>
        <pt x="97" y="24" on="1"/>
      </contour>
      <contour>
        <pt x="80" y="664" on="1"/>
        <pt x="80" y="699" on="0"/>
        <pt x="128" y="739" on="0"/>
        <pt x="166" y="739" on="1"/>
        <pt x="204" y="739" on="0"/>
        <pt x="252" y="699" on="0"/>
        <pt x="252" y="664" on="1"/>
        <pt x="252" y="630" on="0"/>
        <pt x="204" y="590" on="0"/>
        <pt x="166" y="590" on="1"/>
        <pt x="128" y="590" on="0"/>
        <pt x="80" y="630" on="0"/>
      </contour>
    </TTGlyph>
    <TTGlyph name="k" xMin="9" yMin="0" xMax="583" yMax="752">
      <contour>
        <pt x="322" y="500" on="1"/>
        <pt x="556" y="500" on="1"/>
        <pt x="556" y="461" on="1"/>
        <pt x="537" y="453" on="0"/>
        <pt x="504" y="441" on="0"/>
        <pt x="484" y="437" on="1"/>
        <pt x="469" y="417" on="0"/>
        <pt x="434" y="378" on="0"/>
        <pt x="399" y="342" on="0"/>
        <pt x="367" y="309" on="0"/>
        <pt x="354" y="296" on="1"/>
        <pt x="369" y="276" on="0"/>
        <pt x="409" y="220" on="0"/>
        <pt x="455" y="157" on="0"/>
        <pt x="506" y="92" on="0"/>
        <pt x="532" y="63" on="1"/>
        <pt x="583" y="39" on="1"/>
        <pt x="583" y="0" on="1"/>
        <pt x="414" y="0" on="1"/>
        <pt x="387" y="24" on="1"/>
        <pt x="364" y="55" on="0"/>
        <pt x="329" y="109" on="0"/>
        <pt x="301" y="159" on="0"/>
        <pt x="275" y="206" on="0"/>
        <pt x="262" y="229" on="1"/>
        <pt x="229" y="239" on="1"/>
        <pt x="229" y="63" on="1"/>
        <pt x="246" y="60" on="0"/>
        <pt x="274" y="48" on="0"/>
        <pt x="290" y="39" on="1"/>
        <pt x="290" y="0" on="1"/>
        <pt x="19" y="0" on="1"/>
        <pt x="19" y="39" on="1"/>
        <pt x="52" y="55" on="0"/>
        <pt x="85" y="63" on="1"/>
        <pt x="85" y="669" on="1"/>
        <pt x="9" y="677" on="1"/>
        <pt x="9" y="716" on="1"/>
        <pt x="23" y="722" on="0"/>
        <pt x="71" y="734" on="0"/>
        <pt x="125" y="743" on="0"/>
        <pt x="177" y="750" on="0"/>
        <pt x="195" y="752" on="1"/>
        <pt x="229" y="752" on="1"/>
        <pt x="229" y="283" on="1"/>
        <pt x="255" y="283" on="1"/>
        <pt x="288" y="318" on="0"/>
        <pt x="345" y="402" on="0"/>
        <pt x="367" y="437" on="1"/>
        <pt x="354" y="441" on="0"/>
        <pt x="333" y="453" on="0"/>
        <pt x="322" y="461" on="1"/>
      </contour>
    </TTGlyph>
    <TTGlyph name="l" xMin="21" yMin="0" xMax="307" yMax="752">
      <contour>
        <pt x="307" y="0" on="1"/>
        <pt x="31" y="0" on="1"/>
        <pt x="31" y="39" on="1"/>
        <pt x="64" y="55" on="0"/>
        <pt x="97" y="63" on="1"/>
        <pt x="97" y="669" on="1"/>
        <pt x="21" y="677" on="1"/>
        <pt x="21" y="716" on="1"/>
        <pt x="34" y="722" on="0"/>
        <pt x="80" y="734" on="0"/>
        <pt x="133" y="743" on="0"/>
        <pt x="186" y="750" on="0"/>
        <pt x="207" y="752" on="1"/>
        <pt x="241" y="752" on="1"/>
        <pt x="241" y="63" on="1"/>
        <pt x="274" y="55" on="0"/>
        <pt x="307" y="39" on="1"/>
      </contour>
    </TTGlyph>
    <TTGlyph name="less" xMin="65" yMin="103" xMax="505" yMax="590">
      <contour>
        <pt x="65" y="324" on="1"/>
        <pt x="65" y="355" on="1"/>
        <pt x="450" y="590" on="1"/>
        <pt x="486" y="525" on="1"/>
        <pt x="273" y="397" on="1"/>
        <pt x="191" y="363" on="1"/>
        <pt x="272" y="332" on="1"/>
        <pt x="505" y="195" on="1"/>
        <pt x="449" y="103" on="1"/>
      </contour>
    </TTGlyph>
    <TTGlyph name="logicalnot" xMin="59" yMin="185" xMax="493" yMax="401">
      <contour>
        <pt x="59" y="401" on="1"/>
        <pt x="493" y="401" on="1"/>
        <pt x="493" y="185" on="1"/>
        <pt x="413" y="185" on="1"/>
        <pt x="413" y="311" on="1"/>
        <pt x="59" y="311" on="1"/>
      </contour>
    </TTGlyph>
    <TTGlyph name="m" xMin="23" yMin="0" xMax="912" yMax="512">
      <contour>
        <pt x="594" y="0" on="1"/>
        <pt x="344" y="0" on="1"/>
        <pt x="344" y="39" on="1"/>
        <pt x="354" y="45" on="0"/>
        <pt x="379" y="58" on="0"/>
        <pt x="394" y="63" on="1"/>
        <pt x="394" y="262" on="1"/>
        <pt x="394" y="308" on="0"/>
        <pt x="389" y="372" on="0"/>
        <pt x="373" y="413" on="0"/>
        <pt x="345" y="432" on="0"/>
        <pt x="323" y="432" on="1"/>
        <pt x="291" y="432" on="0"/>
        <pt x="244" y="383" on="0"/>
        <pt x="233" y="343" on="1"/>
        <pt x="233" y="63" on="1"/>
        <pt x="260" y="55" on="0"/>
        <pt x="283" y="39" on="1"/>
        <pt x="283" y="0" on="1"/>
        <pt x="23" y="0" on="1"/>
        <pt x="23" y="39" on="1"/>
        <pt x="37" y="46" on="0"/>
        <pt x="71" y="58" on="0"/>
        <pt x="89" y="63" on="1"/>
        <pt x="89" y="429" on="1"/>
        <pt x="23" y="437" on="1"/>
        <pt x="23" y="476" on="1"/>
        <pt x="39" y="483" on="0"/>
        <pt x="86" y="495" on="0"/>
        <pt x="136" y="504" on="0"/>
        <pt x="183" y="510" on="0"/>
        <pt x="199" y="512" on="1"/>
        <pt x="233" y="512" on="1"/>
        <pt x="233" y="399" on="1"/>
        <pt x="234" y="399" on="1"/>
        <pt x="250" y="446" on="0"/>
        <pt x="331" y="512" on="0"/>
        <pt x="388" y="512" on="1"/>
        <pt x="412" y="512" on="0"/>
        <pt x="458" y="502" on="0"/>
        <pt x="497" y="475" on="0"/>
        <pt x="525" y="427" on="0"/>
        <pt x="531" y="389" on="1"/>
        <pt x="549" y="444" on="0"/>
        <pt x="633" y="512" on="0"/>
        <pt x="693" y="512" on="1"/>
        <pt x="730" y="512" on="0"/>
        <pt x="787" y="493" on="0"/>
        <pt x="826" y="445" on="0"/>
        <pt x="846" y="363" on="0"/>
        <pt x="846" y="300" on="1"/>
        <pt x="846" y="63" on="1"/>
        <pt x="880" y="57" on="0"/>
        <pt x="912" y="39" on="1"/>
        <pt x="912" y="0" on="1"/>
        <pt x="652" y="0" on="1"/>
        <pt x="652" y="39" on="1"/>
        <pt x="675" y="54" on="0"/>
        <pt x="702" y="63" on="1"/>
        <pt x="702" y="280" on="1"/>
        <pt x="702" y="358" on="0"/>
        <pt x="673" y="432" on="0"/>
        <pt x="625" y="432" on="1"/>
        <pt x="589" y="432" on="0"/>
        <pt x="548" y="378" on="0"/>
        <pt x="538" y="333" on="1"/>
        <pt x="538" y="63" on="1"/>
        <pt x="555" y="58" on="0"/>
        <pt x="582" y="46" on="0"/>
        <pt x="594" y="39" on="1"/>
      </contour>
    </TTGlyph>
    <TTGlyph name="macron" xMin="60" yMin="619" xMax="354" yMax="689">
      <contour>
        <pt x="60" y="619" on="1"/>
        <pt x="60" y="689" on="1"/>
        <pt x="354" y="689" on="1"/>
        <pt x="354" y="619" on="1"/>
      </contour>
    </TTGlyph>
    <TTGlyph name="minus" xMin="57" yMin="304" xMax="507" yMax="384">
      <contour>
        <pt x="57" y="384" on="1"/>
        <pt x="507" y="384" on="1"/>
        <pt x="507" y="304" on="1"/>
        <pt x="57" y="304" on="1"/>
      </contour>
    </TTGlyph>
    <TTGlyph name="mu" xMin="11" yMin="-208" xMax="605" yMax="512">
      <contour>
        <pt x="150" y="13" on="1"/>
        <pt x="199" y="-161" on="1"/>
        <pt x="199" y="-200" on="1"/>
        <pt x="163" y="-208" on="0"/>
        <pt x="100" y="-208" on="0"/>
        <pt x="71" y="-200" on="1"/>
        <pt x="71" y="429" on="1"/>
        <pt x="11" y="437" on="1"/>
        <pt x="11" y="476" on="1"/>
        <pt x="27" y="482" on="0"/>
        <pt x="74" y="494" on="0"/>
        <pt x="124" y="503" on="0"/>
        <pt x="171" y="510" on="0"/>
        <pt x="187" y="512" on="1"/>
        <pt x="221" y="512" on="1"/>
        <pt x="221" y="437" on="0"/>
        <pt x="215" y="292" on="0"/>
        <pt x="215" y="222" on="1"/>
        <pt x="215" y="140" on="0"/>
        <pt x="248" y="68" on="0"/>
        <pt x="293" y="68" on="1"/>
        <pt x="324" y="68" on="0"/>
        <pt x="378" y="115" on="0"/>
        <pt x="395" y="167" on="1"/>
        <pt x="395" y="429" on="1"/>
        <pt x="329" y="437" on="1"/>
        <pt x="329" y="476" on="1"/>
        <pt x="344" y="482" on="0"/>
        <pt x="389" y="494" on="0"/>
        <pt x="439" y="503" on="0"/>
        <pt x="487" y="510" on="0"/>
        <pt x="505" y="512" on="1"/>
        <pt x="539" y="512" on="1"/>
        <pt x="539" y="71" on="1"/>
        <pt x="605" y="63" on="1"/>
        <pt x="605" y="28" on="1"/>
        <pt x="591" y="22" on="0"/>
        <pt x="549" y="10" on="0"/>
        <pt x="502" y="-1" on="0"/>
        <pt x="457" y="-8" on="0"/>
        <pt x="439" y="-10" on="1"/>
        <pt x="405" y="-10" on="1"/>
        <pt x="398" y="109" on="1"/>
        <pt x="394" y="109" on="1"/>
        <pt x="389" y="88" on="0"/>
        <pt x="364" y="45" on="0"/>
        <pt x="324" y="10" on="0"/>
        <pt x="272" y="-12" on="0"/>
        <pt x="242" y="-12" on="1"/>
        <pt x="214" y="-12" on="0"/>
        <pt x="169" y="2" on="0"/>
        <pt x="155" y="13" on="1"/>
      </contour>
    </TTGlyph>
    <TTGlyph name="multiply" xMin="94" yMin="154" xMax="471" yMax="531">
      <contour>
        <pt x="94" y="213" on="1"/>
        <pt x="224" y="344" on="1"/>
        <pt x="96" y="473" on="1"/>
        <pt x="152" y="529" on="1"/>
        <pt x="281" y="401" on="1"/>
        <pt x="412" y="531" on="1"/>
        <pt x="468" y="475" on="1"/>
        <pt x="338" y="344" on="1"/>
        <pt x="471" y="211" on="1"/>
        <pt x="414" y="154" on="1"/>
        <pt x="281" y="287" on="1"/>
        <pt x="150" y="157" on="1"/>
      </contour>
    </TTGlyph>
    <TTGlyph name="n" xMin="23" yMin="0" xMax="632" yMax="512">
      <contour>
        <pt x="632" y="0" on="1"/>
        <pt x="367" y="0" on="1"/>
        <pt x="367" y="39" on="1"/>
        <pt x="380" y="46" on="0"/>
        <pt x="405" y="57" on="0"/>
        <pt x="422" y="63" on="1"/>
        <pt x="422" y="298" on="1"/>
        <pt x="422" y="361" on="0"/>
        <pt x="386" y="432" on="0"/>
        <pt x="340" y="432" on="1"/>
        <pt x="302" y="432" on="0"/>
        <pt x="247" y="383" on="0"/>
        <pt x="233" y="341" on="1"/>
        <pt x="233" y="63" on="1"/>
        <pt x="249" y="59" on="0"/>
        <pt x="274" y="48" on="0"/>
        <pt x="288" y="39" on="1"/>
        <pt x="288" y="0" on="1"/>
        <pt x="23" y="0" on="1"/>
        <pt x="23" y="39" on="1"/>
        <pt x="48" y="52" on="0"/>
        <pt x="89" y="63" on="1"/>
        <pt x="89" y="429" on="1"/>
        <pt x="23" y="437" on="1"/>
        <pt x="23" y="476" on="1"/>
        <pt x="36" y="482" on="0"/>
        <pt x="78" y="493" on="0"/>
        <pt x="127" y="503" on="0"/>
        <pt x="178" y="510" on="0"/>
        <pt x="199" y="512" on="1"/>
        <pt x="233" y="512" on="1"/>
        <pt x="233" y="409" on="1"/>
        <pt x="234" y="409" on="1"/>
        <pt x="255" y="451" on="0"/>
        <pt x="339" y="512" on="0"/>
        <pt x="399" y="512" on="1"/>
        <pt x="438" y="512" on="0"/>
        <pt x="500" y="493" on="0"/>
        <pt x="543" y="445" on="0"/>
        <pt x="566" y="364" on="0"/>
        <pt x="566" y="302" on="1"/>
        <pt x="566" y="63" on="1"/>
        <pt x="606" y="56" on="0"/>
        <pt x="632" y="39" on="1"/>
      </contour>
    </TTGlyph>
    <TTGlyph name="nine" xMin="38" yMin="-12" xMax="531" yMax="712">
      <contour>
        <pt x="38" y="482" on="1"/>
        <pt x="38" y="533" on="0"/>
        <pt x="74" y="617" on="0"/>
        <pt x="139" y="678" on="0"/>
        <pt x="229" y="712" on="0"/>
        <pt x="284" y="712" on="1"/>
        <pt x="342" y="712" on="0"/>
        <pt x="434" y="673" on="0"/>
        <pt x="498" y="603" on="0"/>
        <pt x="531" y="502" on="0"/>
        <pt x="531" y="441" on="1"/>
        <pt x="531" y="348" on="0"/>
        <pt x="475" y="191" on="0"/>
        <pt x="373" y="72" on="0"/>
        <pt x="230" y="-3" on="0"/>
        <pt x="144" y="-12" on="1"/>
        <pt x="121" y="31" on="1"/>
        <pt x="236" y="61" on="0"/>
        <pt x="360" y="217" on="0"/>
        <pt x="376" y="331" on="1"/>
        <pt x="357" y="306" on="0"/>
        <pt x="295" y="274" on="0"/>
        <pt x="246" y="274" on="1"/>
        <pt x="203" y="274" on="0"/>
        <pt x="128" y="300" on="0"/>
        <pt x="71" y="353" on="0"/>
        <pt x="38" y="431" on="0"/>
      </contour>
      <contour>
        <pt x="188" y="488" on="1"/>
        <pt x="188" y="459" on="0"/>
        <pt x="201" y="407" on="0"/>
        <pt x="227" y="367" on="0"/>
        <pt x="265" y="344" on="0"/>
        <pt x="291" y="344" on="1"/>
        <pt x="321" y="344" on="0"/>
        <pt x="367" y="367" on="0"/>
        <pt x="379" y="387" on="1"/>
        <pt x="381" y="400" on="0"/>
        <pt x="383" y="438" on="0"/>
        <pt x="383" y="456" on="1"/>
        <pt x="383" y="495" on="0"/>
        <pt x="372" y="566" on="0"/>
        <pt x="348" y="619" on="0"/>
        <pt x="310" y="651" on="0"/>
        <pt x="282" y="651" on="1"/>
        <pt x="232" y="651" on="0"/>
        <pt x="188" y="570" on="0"/>
      </contour>
    </TTGlyph>
    <TTGlyph name="ntilde" xMin="23" yMin="0" xMax="632" yMax="726">
      <component glyphName="n" x="0" y="0" flags="0x204"/>
      <component glyphName="tilde" x="102" y="0" flags="0x4"/>
    </TTGlyph>
    <TTGlyph name="numbersign" xMin="38" yMin="58" xMax="525" yMax="642">
      <contour>
        <pt x="314" y="220" on="1"/>
        <pt x="190" y="220" on="1"/>
        <pt x="152" y="58" on="1"/>
        <pt x="81" y="58" on="1"/>
        <pt x="119" y="220" on="1"/>
        <pt x="38" y="220" on="1"/>
        <pt x="57" y="284" on="1"/>
        <pt x="134" y="284" on="1"/>
        <pt x="165" y="416" on="1"/>
        <pt x="88" y="416" on="1"/>
        <pt x="107" y="480" on="1"/>
        <pt x="181" y="480" on="1"/>
        <pt x="220" y="642" on="1"/>
        <pt x="290" y="642" on="1"/>
        <pt x="252" y="480" on="1"/>
        <pt x="376" y="480" on="1"/>
        <pt x="415" y="642" on="1"/>
        <pt x="485" y="642" on="1"/>
        <pt x="446" y="480" on="1"/>
        <pt x="525" y="480" on="1"/>
        <pt x="503" y="416" on="1"/>
        <pt x="430" y="416" on="1"/>
        <pt x="399" y="284" on="1"/>
        <pt x="475" y="284" on="1"/>
        <pt x="453" y="220" on="1"/>
        <pt x="384" y="220" on="1"/>
        <pt x="346" y="58" on="1"/>
        <pt x="276" y="58" on="1"/>
      </contour>
      <contour>
        <pt x="205" y="284" on="1"/>
        <pt x="329" y="284" on="1"/>
        <pt x="360" y="416" on="1"/>
        <pt x="236" y="416" on="1"/>
      </contour>
    </TTGlyph>
    <TTGlyph name="o" xMin="31" yMin="-12" xMax="563" yMax="512">
      <contour>
        <pt x="31" y="250" on="1"/>
        <pt x="31" y="311" on="0"/>
        <pt x="68" y="408" on="0"/>
        <pt x="137" y="476" on="0"/>
        <pt x="235" y="512" on="0"/>
        <pt x="297" y="512" on="1"/>
        <pt x="367" y="512" on="0"/>
        <pt x="468" y="473" on="0"/>
        <pt x="533" y="404" on="0"/>
        <pt x="563" y="307" on="0"/>
        <pt x="563" y="250" on="1"/>
        <pt x="563" y="189" on="0"/>
        <pt x="527" y="92" on="0"/>
        <pt x="458" y="24" on="0"/>
        <pt x="359" y="-12" on="0"/>
        <pt x="297" y="-12" on="1"/>
        <pt x="229" y="-12" on="0"/>
        <pt x="129" y="27" on="0"/>
        <pt x="63" y="96" on="0"/>
        <pt x="31" y="193" on="0"/>
      </contour>
      <contour>
        <pt x="186" y="250" on="1"/>
        <pt x="186" y="205" on="0"/>
        <pt x="197" y="130" on="0"/>
        <pt x="225" y="78" on="0"/>
        <pt x="273" y="49" on="0"/>
        <pt x="311" y="49" on="1"/>
        <pt x="333" y="49" on="0"/>
        <pt x="369" y="70" on="0"/>
        <pt x="395" y="117" on="0"/>
        <pt x="408" y="194" on="0"/>
        <pt x="408" y="250" on="1"/>
        <pt x="408" y="296" on="0"/>
        <pt x="397" y="370" on="0"/>
        <pt x="370" y="422" on="0"/>
        <pt x="324" y="451" on="0"/>
        <pt x="289" y="451" on="1"/>
        <pt x="263" y="451" on="0"/>
        <pt x="225" y="430" on="0"/>
        <pt x="199" y="383" on="0"/>
        <pt x="186" y="306" on="0"/>
      </contour>
    </TTGlyph>
    <TTGlyph name="oacute" xMin="31" yMin="-12" xMax="563" yMax="765">
      <component glyphName="o" x="0" y="0" flags="0x204"/>
      <component glyphName="acute" x="169" y="0" flags="0x4"/>
    </TTGlyph>
    <TTGlyph name="ocircumflex" xMin="31" yMin="-12" xMax="563" yMax="794">
      <component glyphName="o" x="0" y="0" flags="0x204"/>
      <component glyphName="circumflex" x="98" y="0" flags="0x4"/>
    </TTGlyph>
    <TTGlyph name="odieresis" xMin="31" yMin="-12" xMax="563" yMax="729">
      <component glyphName="o" x="0" y="0" flags="0x204"/>
      <component glyphName="dieresis" x="45" y="0" flags="0x4"/>
    </TTGlyph>
    <TTGlyph name="oe" xMin="31" yMin="-12" xMax="882" yMax="512">
      <contour>
        <pt x="186" y="250" on="1"/>
        <pt x="186" y="205" on="0"/>
        <pt x="197" y="129" on="0"/>
        <pt x="226" y="75" on="0"/>
        <pt x="275" y="45" on="0"/>
        <pt x="314" y="45" on="1"/>
        <pt x="361" y="45" on="0"/>
        <pt x="408" y="138" on="0"/>
        <pt x="408" y="250" on="1"/>
        <pt x="408" y="296" on="0"/>
        <pt x="397" y="371" on="0"/>
        <pt x="370" y="425" on="0"/>
        <pt x="324" y="455" on="0"/>
        <pt x="289" y="455" on="1"/>
        <pt x="236" y="455" on="0"/>
        <pt x="186" y="362" on="0"/>
      </contour>
      <contour>
        <pt x="484" y="61" on="1"/>
        <pt x="449" y="22" on="0"/>
        <pt x="354" y="-12" on="0"/>
        <pt x="297" y="-12" on="1"/>
        <pt x="229" y="-12" on="0"/>
        <pt x="129" y="27" on="0"/>
        <pt x="63" y="96" on="0"/>
        <pt x="31" y="193" on="0"/>
        <pt x="31" y="250" on="1"/>
        <pt x="31" y="311" on="0"/>
        <pt x="68" y="408" on="0"/>
        <pt x="137" y="476" on="0"/>
        <pt x="235" y="512" on="0"/>
        <pt x="297" y="512" on="1"/>
        <pt x="359" y="512" on="0"/>
        <pt x="457" y="474" on="0"/>
        <pt x="483" y="439" on="1"/>
        <pt x="514" y="476" on="0"/>
        <pt x="604" y="512" on="0"/>
        <pt x="660" y="512" on="1"/>
        <pt x="711" y="512" on="0"/>
        <pt x="800" y="484" on="0"/>
        <pt x="859" y="420" on="0"/>
        <pt x="882" y="316" on="0"/>
        <pt x="869" y="241" on="1"/>
        <pt x="562" y="241" on="1"/>
        <pt x="563" y="162" on="0"/>
        <pt x="643" y="68" on="0"/>
        <pt x="719" y="68" on="1"/>
        <pt x="753" y="68" on="0"/>
        <pt x="823" y="88" on="0"/>
        <pt x="843" y="104" on="1"/>
        <pt x="862" y="84" on="1"/>
        <pt x="854" y="67" on="0"/>
        <pt x="819" y="32" on="0"/>
        <pt x="768" y="5" on="0"/>
        <pt x="701" y="-12" on="0"/>
        <pt x="662" y="-12" on="1"/>
        <pt x="633" y="-12" on="0"/>
        <pt x="579" y="-1" on="0"/>
        <pt x="532" y="18" on="0"/>
        <pt x="495" y="45" on="0"/>
      </contour>
      <contour>
        <pt x="656" y="455" on="1"/>
        <pt x="636" y="455" on="0"/>
        <pt x="605" y="441" on="0"/>
        <pt x="582" y="404" on="0"/>
        <pt x="568" y="341" on="0"/>
        <pt x="565" y="293" on="1"/>
        <pt x="726" y="293" on="1"/>
        <pt x="733" y="371" on="0"/>
        <pt x="701" y="455" on="0"/>
      </contour>
    </TTGlyph>
    <TTGlyph name="ograve" xMin="31" yMin="-12" xMax="563" yMax="765">
      <component glyphName="o" x="0" y="0" flags="0x204"/>
      <component glyphName="grave" x="84" y="0" flags="0x4"/>
    </TTGlyph>
    <TTGlyph name="one" xMin="101" yMin="0" xMax="466" yMax="712">
      <contour>
        <pt x="466" y="0" on="1"/>
        <pt x="120" y="0" on="1"/>
        <pt x="120" y="43" on="1"/>
        <pt x="145" y="54" on="0"/>
        <pt x="196" y="71" on="0"/>
        <pt x="222" y="77" on="1"/>
        <pt x="222" y="536" on="1"/>
        <pt x="226" y="595" on="1"/>
        <pt x="198" y="586" on="0"/>
        <pt x="138" y="580" on="0"/>
        <pt x="106" y="581" on="1"/>
        <pt x="101" y="618" on="1"/>
        <pt x="154" y="632" on="0"/>
        <pt x="279" y="680" on="0"/>
        <pt x="332" y="712" on="1"/>
        <pt x="366" y="712" on="1"/>
        <pt x="366" y="77" on="1"/>
        <pt x="391" y="71" on="0"/>
        <pt x="441" y="54" on="0"/>
        <pt x="466" y="43" on="1"/>
      </contour>
    </TTGlyph>
    <TTGlyph name="onehalf" xMin="51" yMin="-13" xMax="975" yMax="715">
      <component glyphName="uni2081" x="-12" y="382" flags="0x4"/>
      <component glyphName="uni2082" x="574" y="100" flags="0x4"/>
      <component glyphName="fraction" x="346" y="0" flags="0x4"/>
    </TTGlyph>
    <TTGlyph name="onequarter" xMin="51" yMin="-13" xMax="903" yMax="715">
      <component glyphName="uni2081" x="-12" y="382" flags="0x4"/>
      <component glyphName="uni2084" x="473" y="100" flags="0x4"/>
      <component glyphName="fraction" x="346" y="0" flags="0x4"/>
    </TTGlyph>
    <TTGlyph name="onesuperior" xMin="65" yMin="386" xMax="385" yMax="813">
      <contour>
        <pt x="385" y="386" on="1"/>
        <pt x="72" y="386" on="1"/>
        <pt x="72" y="416" on="1"/>
        <pt x="99" y="430" on="0"/>
        <pt x="148" y="450" on="0"/>
        <pt x="173" y="455" on="1"/>
        <pt x="173" y="670" on="1"/>
        <pt x="177" y="715" on="1"/>
        <pt x="153" y="708" on="0"/>
        <pt x="88" y="707" on="0"/>
        <pt x="65" y="709" on="1"/>
        <pt x="65" y="751" on="1"/>
        <pt x="111" y="757" on="0"/>
        <pt x="209" y="793" on="0"/>
        <pt x="245" y="813" on="1"/>
        <pt x="285" y="813" on="1"/>
        <pt x="285" y="455" on="1"/>
        <pt x="340" y="442" on="0"/>
        <pt x="385" y="416" on="1"/>
      </contour>
    </TTGlyph>
    <TTGlyph name="ordfeminine" xMin="45" yMin="376" xMax="435" yMax="708">
      <contour>
        <pt x="99" y="596" on="1"/>
        <pt x="89" y="607" on="0"/>
        <pt x="71" y="651" on="0"/>
        <pt x="70" y="672" on="1"/>
        <pt x="95" y="685" on="0"/>
        <pt x="181" y="708" on="0"/>
        <pt x="257" y="708" on="1"/>
        <pt x="296" y="708" on="0"/>
        <pt x="346" y="695" on="0"/>
        <pt x="376" y="669" on="0"/>
        <pt x="388" y="631" on="0"/>
        <pt x="388" y="607" on="1"/>
        <pt x="388" y="569" on="0"/>
        <pt x="385" y="483" on="0"/>
        <pt x="385" y="451" on="1"/>
        <pt x="435" y="441" on="1"/>
        <pt x="435" y="406" on="1"/>
        <pt x="426" y="401" on="0"/>
        <pt x="395" y="392" on="0"/>
        <pt x="360" y="384" on="0"/>
        <pt x="327" y="379" on="0"/>
        <pt x="316" y="378" on="1"/>
        <pt x="290" y="378" on="1"/>
        <pt x="283" y="395" on="0"/>
        <pt x="278" y="424" on="0"/>
        <pt x="277" y="441" on="1"/>
        <pt x="273" y="441" on="1"/>
        <pt x="268" y="432" on="0"/>
        <pt x="250" y="409" on="0"/>
        <pt x="221" y="389" on="0"/>
        <pt x="181" y="376" on="0"/>
        <pt x="154" y="376" on="1"/>
        <pt x="104" y="376" on="0"/>
        <pt x="45" y="427" on="0"/>
        <pt x="45" y="471" on="1"/>
        <pt x="45" y="502" on="0"/>
        <pt x="78" y="541" on="0"/>
        <pt x="133" y="563" on="0"/>
        <pt x="205" y="572" on="0"/>
        <pt x="245" y="572" on="1"/>
        <pt x="252" y="572" on="0"/>
        <pt x="265" y="571" on="0"/>
        <pt x="272" y="571" on="1"/>
        <pt x="273" y="577" on="0"/>
        <pt x="273" y="598" on="0"/>
        <pt x="273" y="603" on="1"/>
        <pt x="273" y="626" on="0"/>
        <pt x="249" y="657" on="0"/>
        <pt x="215" y="657" on="1"/>
        <pt x="204" y="657" on="0"/>
        <pt x="177" y="653" on="0"/>
        <pt x="163" y="648" on="1"/>
        <pt x="135" y="596" on="1"/>
      </contour>
      <contour>
        <pt x="205" y="431" on="1"/>
        <pt x="233" y="431" on="0"/>
        <pt x="265" y="466" on="0"/>
        <pt x="272" y="482" on="1"/>
        <pt x="272" y="533" on="1"/>
        <pt x="263" y="534" on="0"/>
        <pt x="246" y="535" on="0"/>
        <pt x="238" y="535" on="1"/>
        <pt x="206" y="535" on="0"/>
        <pt x="162" y="511" on="0"/>
        <pt x="162" y="480" on="1"/>
        <pt x="162" y="461" on="0"/>
        <pt x="184" y="431" on="0"/>
      </contour>
    </TTGlyph>
    <TTGlyph name="ordmasculine" xMin="37" yMin="372" xMax="421" yMax="712">
      <contour>
        <pt x="37" y="542" on="1"/>
        <pt x="37" y="581" on="0"/>
        <pt x="65" y="643" on="0"/>
        <pt x="116" y="688" on="0"/>
        <pt x="186" y="712" on="0"/>
        <pt x="229" y="712" on="1"/>
        <pt x="272" y="712" on="0"/>
        <pt x="343" y="691" on="0"/>
        <pt x="393" y="649" on="0"/>
        <pt x="421" y="585" on="0"/>
        <pt x="421" y="542" on="1"/>
        <pt x="421" y="503" on="0"/>
        <pt x="393" y="440" on="0"/>
        <pt x="343" y="396" on="0"/>
        <pt x="272" y="372" on="0"/>
        <pt x="229" y="372" on="1"/>
        <pt x="186" y="372" on="0"/>
        <pt x="116" y="393" on="0"/>
        <pt x="65" y="435" on="0"/>
        <pt x="37" y="499" on="0"/>
      </contour>
      <contour>
        <pt x="157" y="542" on="1"/>
        <pt x="157" y="423" on="0"/>
        <pt x="229" y="423" on="1"/>
        <pt x="264" y="423" on="0"/>
        <pt x="301" y="476" on="0"/>
        <pt x="301" y="542" on="1"/>
        <pt x="301" y="608" on="0"/>
        <pt x="264" y="661" on="0"/>
        <pt x="229" y="661" on="1"/>
        <pt x="192" y="661" on="0"/>
        <pt x="157" y="608" on="0"/>
      </contour>
    </TTGlyph>
    <TTGlyph name="oslash" xMin="31" yMin="-58" xMax="563" yMax="550">
      <contour>
        <pt x="114" y="44" on="1"/>
        <pt x="71" y="79" on="0"/>
        <pt x="31" y="184" on="0"/>
        <pt x="31" y="250" on="1"/>
        <pt x="31" y="311" on="0"/>
        <pt x="68" y="408" on="0"/>
        <pt x="137" y="476" on="0"/>
        <pt x="235" y="512" on="0"/>
        <pt x="297" y="512" on="1"/>
        <pt x="336" y="512" on="0"/>
        <pt x="401" y="499" on="0"/>
        <pt x="428" y="487" on="1"/>
        <pt x="472" y="550" on="1"/>
        <pt x="526" y="512" on="1"/>
        <pt x="484" y="453" on="1"/>
        <pt x="525" y="418" on="0"/>
        <pt x="563" y="314" on="0"/>
        <pt x="563" y="250" on="1"/>
        <pt x="563" y="189" on="0"/>
        <pt x="527" y="92" on="0"/>
        <pt x="458" y="24" on="0"/>
        <pt x="359" y="-12" on="0"/>
        <pt x="297" y="-12" on="1"/>
        <pt x="225" y="-12" on="0"/>
        <pt x="171" y="11" on="1"/>
        <pt x="123" y="-58" on="1"/>
        <pt x="70" y="-19" on="1"/>
      </contour>
      <contour>
        <pt x="186" y="250" on="1"/>
        <pt x="186" y="224" on="0"/>
        <pt x="192" y="179" on="0"/>
        <pt x="200" y="161" on="1"/>
        <pt x="374" y="412" on="1"/>
        <pt x="360" y="432" on="0"/>
        <pt x="319" y="455" on="0"/>
        <pt x="289" y="455" on="1"/>
        <pt x="236" y="455" on="0"/>
        <pt x="186" y="362" on="0"/>
      </contour>
      <contour>
        <pt x="408" y="250" on="1"/>
        <pt x="408" y="297" on="0"/>
        <pt x="395" y="332" on="1"/>
        <pt x="223" y="83" on="1"/>
        <pt x="253" y="45" on="0"/>
        <pt x="314" y="45" on="1"/>
        <pt x="361" y="45" on="0"/>
        <pt x="408" y="138" on="0"/>
      </contour>
    </TTGlyph>
    <TTGlyph name="otilde" xMin="31" yMin="-12" xMax="563" yMax="726">
      <component glyphName="o" x="0" y="0" flags="0x204"/>
      <component glyphName="tilde" x="74" y="0" flags="0x4"/>
    </TTGlyph>
    <TTGlyph name="p" xMin="21" yMin="-200" xMax="578" yMax="512">
      <contour>
        <pt x="297" y="-200" on="1"/>
        <pt x="21" y="-200" on="1"/>
        <pt x="21" y="-161" on="1"/>
        <pt x="55" y="-145" on="0"/>
        <pt x="87" y="-137" on="1"/>
        <pt x="87" y="429" on="1"/>
        <pt x="21" y="437" on="1"/>
        <pt x="21" y="476" on="1"/>
        <pt x="37" y="483" on="0"/>
        <pt x="84" y="495" on="0"/>
        <pt x="134" y="504" on="0"/>
        <pt x="181" y="510" on="0"/>
        <pt x="197" y="512" on="1"/>
        <pt x="231" y="512" on="1"/>
        <pt x="231" y="400" on="1"/>
        <pt x="232" y="400" on="1"/>
        <pt x="249" y="448" on="0"/>
        <pt x="322" y="512" on="0"/>
        <pt x="387" y="512" on="1"/>
        <pt x="431" y="512" on="0"/>
        <pt x="502" y="483" on="0"/>
        <pt x="551" y="422" on="0"/>
        <pt x="578" y="327" on="0"/>
        <pt x="578" y="261" on="1"/>
        <pt x="578" y="198" on="0"/>
        <pt x="543" y="96" on="0"/>
        <pt x="478" y="26" on="0"/>
        <pt x="385" y="-12" on="0"/>
        <pt x="326" y="-12" on="1"/>
        <pt x="292" y="-12" on="0"/>
        <pt x="253" y="-3" on="0"/>
        <pt x="231" y="8" on="1"/>
        <pt x="231" y="-137" on="1"/>
        <pt x="247" y="-139" on="0"/>
        <pt x="279" y="-150" on="0"/>
        <pt x="297" y="-161" on="1"/>
      </contour>
      <contour>
        <pt x="329" y="432" on="1"/>
        <pt x="295" y="432" on="0"/>
        <pt x="242" y="384" on="0"/>
        <pt x="231" y="334" on="1"/>
        <pt x="231" y="68" on="1"/>
        <pt x="247" y="56" on="0"/>
        <pt x="283" y="45" on="0"/>
        <pt x="312" y="45" on="1"/>
        <pt x="369" y="45" on="0"/>
        <pt x="423" y="155" on="0"/>
        <pt x="423" y="261" on="1"/>
        <pt x="423" y="343" on="0"/>
        <pt x="382" y="432" on="0"/>
      </contour>
    </TTGlyph>
    <TTGlyph name="paragraph" xMin="60" yMin="-212" xMax="487" yMax="700">
      <contour>
        <pt x="411" y="94" on="1"/>
        <pt x="411" y="27" on="0"/>
        <pt x="391" y="-60" on="0"/>
        <pt x="352" y="-113" on="0"/>
        <pt x="295" y="-140" on="0"/>
        <pt x="258" y="-148" on="1"/>
        <pt x="238" y="-177" on="0"/>
        <pt x="179" y="-206" on="0"/>
        <pt x="148" y="-212" on="1"/>
        <pt x="132" y="-179" on="1"/>
        <pt x="154" y="-170" on="0"/>
        <pt x="193" y="-143" on="0"/>
        <pt x="221" y="-98" on="0"/>
        <pt x="238" y="-28" on="0"/>
        <pt x="238" y="24" on="1"/>
        <pt x="238" y="310" on="1"/>
        <pt x="206" y="310" on="0"/>
        <pt x="143" y="330" on="0"/>
        <pt x="92" y="375" on="0"/>
        <pt x="60" y="448" on="0"/>
        <pt x="60" y="500" on="1"/>
        <pt x="60" y="542" on="0"/>
        <pt x="85" y="615" on="0"/>
        <pt x="134" y="669" on="0"/>
        <pt x="210" y="700" on="0"/>
        <pt x="261" y="700" on="1"/>
        <pt x="487" y="700" on="1"/>
        <pt x="487" y="657" on="1"/>
        <pt x="470" y="649" on="0"/>
        <pt x="434" y="637" on="0"/>
        <pt x="411" y="633" on="1"/>
      </contour>
      <contour>
        <pt x="278" y="-111" on="1"/>
        <pt x="319" y="-98" on="0"/>
        <pt x="347" y="5" on="0"/>
        <pt x="347" y="94" on="1"/>
        <pt x="347" y="638" on="1"/>
        <pt x="303" y="638" on="1"/>
        <pt x="303" y="24" on="1"/>
        <pt x="303" y="-16" on="0"/>
        <pt x="292" y="-85" on="0"/>
      </contour>
    </TTGlyph>
    <TTGlyph name="parenleft" xMin="50" yMin="-210" xMax="360" yMax="702">
      <contour>
        <pt x="327" y="-210" on="1"/>
        <pt x="279" y="-181" on="0"/>
        <pt x="180" y="-104" on="0"/>
        <pt x="100" y="4" on="0"/>
        <pt x="50" y="147" on="0"/>
        <pt x="50" y="243" on="1"/>
        <pt x="50" y="330" on="0"/>
        <pt x="97" y="469" on="0"/>
        <pt x="175" y="580" on="0"/>
        <pt x="276" y="667" on="0"/>
        <pt x="330" y="702" on="1"/>
        <pt x="360" y="671" on="1"/>
        <pt x="320" y="628" on="0"/>
        <pt x="257" y="541" on="0"/>
        <pt x="213" y="439" on="0"/>
        <pt x="190" y="319" on="0"/>
        <pt x="190" y="243" on="1"/>
        <pt x="190" y="170" on="0"/>
        <pt x="215" y="48" on="0"/>
        <pt x="260" y="-55" on="0"/>
        <pt x="323" y="-141" on="0"/>
        <pt x="360" y="-177" on="1"/>
      </contour>
    </TTGlyph>
    <TTGlyph name="parenright" xMin="15" yMin="-210" xMax="325" yMax="702">
      <contour>
        <pt x="15" y="-177" on="1"/>
        <pt x="52" y="-141" on="0"/>
        <pt x="114" y="-52" on="0"/>
        <pt x="159" y="55" on="0"/>
        <pt x="184" y="180" on="0"/>
        <pt x="184" y="253" on="1"/>
        <pt x="184" y="329" on="0"/>
        <pt x="161" y="448" on="0"/>
        <pt x="118" y="546" on="0"/>
        <pt x="55" y="630" on="0"/>
        <pt x="15" y="671" on="1"/>
        <pt x="45" y="702" on="1"/>
        <pt x="102" y="669" on="0"/>
        <pt x="203" y="583" on="0"/>
        <pt x="280" y="473" on="0"/>
        <pt x="325" y="337" on="0"/>
        <pt x="325" y="253" on="1"/>
        <pt x="325" y="168" on="0"/>
        <pt x="284" y="27" on="0"/>
        <pt x="211" y="-87" on="0"/>
        <pt x="109" y="-176" on="0"/>
        <pt x="48" y="-210" on="1"/>
      </contour>
    </TTGlyph>
    <TTGlyph name="percent" xMin="42" yMin="-13" xMax="806" yMax="715">
      <component glyphName="fraction" x="265" y="0" flags="0x4"/>
      <component glyphName="ordmasculine" x="5" y="0" flags="0x4"/>
      <component glyphName="ordmasculine" x="385" y="-383" flags="0x4"/>
    </TTGlyph>
    <TTGlyph name="period" xMin="63" yMin="-8" xMax="233" yMax="151">
      <contour>
        <pt x="63" y="71" on="1"/>
        <pt x="63" y="107" on="0"/>
        <pt x="109" y="151" on="0"/>
        <pt x="147" y="151" on="1"/>
        <pt x="185" y="151" on="0"/>
        <pt x="233" y="107" on="0"/>
        <pt x="233" y="71" on="1"/>
        <pt x="233" y="35" on="0"/>
        <pt x="185" y="-8" on="0"/>
        <pt x="147" y="-8" on="1"/>
        <pt x="109" y="-8" on="0"/>
        <pt x="63" y="35" on="0"/>
      </contour>
    </TTGlyph>
    <TTGlyph name="periodcentered" xMin="63" yMin="242" xMax="233" yMax="401">
      <component glyphName="period" x="0" y="250" flags="0x204"/>
    </TTGlyph>
    <TTGlyph name="perthousand" xMin="42" yMin="-13" xMax="1216" yMax="715">
      <component glyphName="fraction" x="263" y="0" flags="0x4"/>
      <component glyphName="ordmasculine" x="5" y="0" flags="0x4"/>
      <component glyphName="ordmasculine" x="380" y="-383" flags="0x4"/>
      <component glyphName="ordmasculine" x="795" y="-383" flags="0x4"/>
    </TTGlyph>
    <TTGlyph name="plus" xMin="57" yMin="102" xMax="507" yMax="580">
      <contour>
        <pt x="57" y="384" on="1"/>
        <pt x="242" y="384" on="1"/>
        <pt x="242" y="580" on="1"/>
        <pt x="322" y="580" on="1"/>
        <pt x="322" y="384" on="1"/>
        <pt x="507" y="384" on="1"/>
        <pt x="507" y="304" on="1"/>
        <pt x="322" y="304" on="1"/>
        <pt x="322" y="102" on="1"/>
        <pt x="242" y="102" on="1"/>
        <pt x="242" y="304" on="1"/>
        <pt x="57" y="304" on="1"/>
      </contour>
    </TTGlyph>
    <TTGlyph name="plusminus" xMin="57" yMin="164" xMax="507" yMax="700">
      <contour>
        <pt x="57" y="504" on="1"/>
        <pt x="242" y="504" on="1"/>
        <pt x="242" y="700" on="1"/>
        <pt x="322" y="700" on="1"/>
        <pt x="322" y="504" on="1"/>
        <pt x="507" y="504" on="1"/>
        <pt x="507" y="424" on="1"/>
        <pt x="322" y="424" on="1"/>
        <pt x="322" y="292" on="1"/>
        <pt x="242" y="292" on="1"/>
        <pt x="242" y="424" on="1"/>
        <pt x="57" y="424" on="1"/>
      </contour>
      <contour>
        <pt x="57" y="244" on="1"/>
        <pt x="507" y="244" on="1"/>
        <pt x="507" y="164" on="1"/>
        <pt x="57" y="164" on="1"/>
      </contour>
    </TTGlyph>
    <TTGlyph name="q" xMin="31" yMin="-200" xMax="581" yMax="509">
      <contour>
        <pt x="367" y="89" on="1"/>
        <pt x="360" y="69" on="0"/>
        <pt x="334" y="33" on="0"/>
        <pt x="298" y="5" on="0"/>
        <pt x="251" y="-12" on="0"/>
        <pt x="222" y="-12" on="1"/>
        <pt x="131" y="-12" on="0"/>
        <pt x="31" y="112" on="0"/>
        <pt x="31" y="237" on="1"/>
        <pt x="31" y="374" on="0"/>
        <pt x="178" y="509" on="0"/>
        <pt x="313" y="509" on="1"/>
        <pt x="341" y="509" on="0"/>
        <pt x="403" y="503" on="0"/>
        <pt x="459" y="494" on="0"/>
        <pt x="504" y="483" on="0"/>
        <pt x="515" y="478" on="1"/>
        <pt x="515" y="-137" on="1"/>
        <pt x="548" y="-143" on="0"/>
        <pt x="581" y="-161" on="1"/>
        <pt x="581" y="-200" on="1"/>
        <pt x="305" y="-200" on="1"/>
        <pt x="305" y="-161" on="1"/>
        <pt x="336" y="-145" on="0"/>
        <pt x="371" y="-137" on="1"/>
        <pt x="371" y="89" on="1"/>
      </contour>
      <contour>
        <pt x="272" y="68" on="1"/>
        <pt x="347" y="68" on="0"/>
        <pt x="371" y="164" on="1"/>
        <pt x="371" y="438" on="1"/>
        <pt x="354" y="443" on="0"/>
        <pt x="316" y="452" on="0"/>
        <pt x="293" y="452" on="1"/>
        <pt x="235" y="452" on="0"/>
        <pt x="186" y="360" on="0"/>
        <pt x="186" y="249" on="1"/>
        <pt x="186" y="162" on="0"/>
        <pt x="222" y="68" on="0"/>
      </contour>
    </TTGlyph>
    <TTGlyph name="question" xMin="56" yMin="-8" xMax="460" yMax="712">
      <contour>
        <pt x="135" y="501" on="1"/>
        <pt x="101" y="501" on="1"/>
        <pt x="95" y="514" on="0"/>
        <pt x="81" y="553" on="0"/>
        <pt x="68" y="596" on="0"/>
        <pt x="58" y="641" on="0"/>
        <pt x="56" y="661" on="1"/>
        <pt x="94" y="684" on="0"/>
        <pt x="191" y="712" on="0"/>
        <pt x="266" y="712" on="1"/>
        <pt x="311" y="712" on="0"/>
        <pt x="382" y="687" on="0"/>
        <pt x="433" y="644" on="0"/>
        <pt x="460" y="584" on="0"/>
        <pt x="460" y="549" on="1"/>
        <pt x="460" y="504" on="0"/>
        <pt x="426" y="440" on="0"/>
        <pt x="376" y="391" on="0"/>
        <pt x="317" y="350" on="0"/>
        <pt x="266" y="303" on="0"/>
        <pt x="232" y="245" on="0"/>
        <pt x="232" y="203" on="1"/>
        <pt x="199" y="203" on="1"/>
        <pt x="185" y="249" on="0"/>
        <pt x="192" y="316" on="0"/>
        <pt x="218" y="370" on="0"/>
        <pt x="256" y="414" on="0"/>
        <pt x="291" y="460" on="0"/>
        <pt x="316" y="512" on="0"/>
        <pt x="316" y="546" on="1"/>
        <pt x="316" y="565" on="0"/>
        <pt x="307" y="602" on="0"/>
        <pt x="286" y="630" on="0"/>
        <pt x="253" y="647" on="0"/>
        <pt x="229" y="647" on="1"/>
        <pt x="208" y="647" on="0"/>
        <pt x="176" y="639" on="0"/>
        <pt x="168" y="633" on="1"/>
      </contour>
      <contour>
        <pt x="142" y="71" on="1"/>
        <pt x="142" y="107" on="0"/>
        <pt x="188" y="151" on="0"/>
        <pt x="226" y="151" on="1"/>
        <pt x="264" y="151" on="0"/>
        <pt x="312" y="107" on="0"/>
        <pt x="312" y="71" on="1"/>
        <pt x="312" y="35" on="0"/>
        <pt x="264" y="-8" on="0"/>
        <pt x="226" y="-8" on="1"/>
        <pt x="188" y="-8" on="0"/>
        <pt x="142" y="35" on="0"/>
      </contour>
    </TTGlyph>
    <TTGlyph name="questiondown" xMin="26" yMin="-208" xMax="430" yMax="512">
      <contour>
        <pt x="351" y="3" on="1"/>
        <pt x="385" y="3" on="1"/>
        <pt x="390" y="-10" on="0"/>
        <pt x="404" y="-49" on="0"/>
        <pt x="418" y="-92" on="0"/>
        <pt x="428" y="-138" on="0"/>
        <pt x="430" y="-157" on="1"/>
        <pt x="392" y="-180" on="0"/>
        <pt x="295" y="-208" on="0"/>
        <pt x="220" y="-208" on="1"/>
        <pt x="175" y="-208" on="0"/>
        <pt x="104" y="-183" on="0"/>
        <pt x="53" y="-140" on="0"/>
        <pt x="26" y="-80" on="0"/>
        <pt x="26" y="-45" on="1"/>
        <pt x="26" y="0" on="0"/>
        <pt x="60" y="64" on="0"/>
        <pt x="110" y="113" on="0"/>
        <pt x="169" y="154" on="0"/>
        <pt x="220" y="201" on="0"/>
        <pt x="254" y="259" on="0"/>
        <pt x="254" y="301" on="1"/>
        <pt x="287" y="301" on="1"/>
        <pt x="301" y="255" on="0"/>
        <pt x="294" y="187" on="0"/>
        <pt x="268" y="134" on="0"/>
        <pt x="231" y="89" on="0"/>
        <pt x="196" y="44" on="0"/>
        <pt x="171" y="-8" on="0"/>
        <pt x="171" y="-42" on="1"/>
        <pt x="171" y="-62" on="0"/>
        <pt x="180" y="-98" on="0"/>
        <pt x="200" y="-126" on="0"/>
        <pt x="233" y="-143" on="0"/>
        <pt x="257" y="-143" on="1"/>
        <pt x="301" y="-143" on="0"/>
        <pt x="318" y="-129" on="1"/>
      </contour>
      <contour>
        <pt x="344" y="433" on="1"/>
        <pt x="344" y="396" on="0"/>
        <pt x="297" y="353" on="0"/>
        <pt x="259" y="353" on="1"/>
        <pt x="221" y="353" on="0"/>
        <pt x="173" y="396" on="0"/>
        <pt x="173" y="433" on="1"/>
        <pt x="173" y="469" on="0"/>
        <pt x="221" y="512" on="0"/>
        <pt x="259" y="512" on="1"/>
        <pt x="297" y="512" on="0"/>
        <pt x="344" y="469" on="0"/>
      </contour>
    </TTGlyph>
    <TTGlyph name="quotedbl" xMin="65" yMin="486" xMax="351" yMax="700">
      <component glyphName="quotesingle" x="156" y="0" flags="0x4"/>
      <component glyphName="quotesingle" x="0" y="0" flags="0x4"/>
    </TTGlyph>
    <TTGlyph name="quotedblbase" xMin="62" yMin="-149" xMax="447" yMax="136">
      <component glyphName="quotesinglbase" x="205" y="0" flags="0x4"/>
      <component glyphName="quotesinglbase" x="0" y="0" flags="0x4"/>
    </TTGlyph>
    <TTGlyph name="quotedblleft" xMin="67" yMin="550" xMax="450" yMax="824">
      <component glyphName="quoteleft" x="205" y="0" flags="0x4"/>
      <component glyphName="quoteleft" x="0" y="0" flags="0x4"/>
    </TTGlyph>
</ttFont>
